
<svg xmlns="http://www.w3.org/2000/svg" version="1.1" xmlns:xlink="http://www.w3.org/1999/xlink" preserveAspectRatio="none" x="0px" y="0px" width="110px" height="122px" viewBox="0 0 110 122">
<defs>
<g id="bird_anim_19_Layer2_0_FILL">
<path fill="#FFFFFF" stroke="none" d="
M 101.9 15.1
L 105.6 15.55 99.75 11.45 108 7.95 98.55 6.15
Q 97.4 4.15 95.35 2.6
L 95 2.35
Q 90.2 -1.05 85.55 0.5 82.95 1.45 81.3 3.35 80.6 4.05 79.7 5.35 77.05 8.55 60.15 10.35 43.35 12.05 33.05 9.9 25.25 7.85 21 6.85 13.8 5.15 11.7 4.6 8.85 3.85 7.5 5.25
L 6.7 6.8
Q 4.7 6.85 3.7 8.2 3.05 9.15 3 10.2 1.9591796875 10.3939453125 1.25 10.95 -0.5494140625 12.1685546875 -0.55 13.95
L -0.55 13.95
Q -0.748046875 15.7560546875 1.2 17.05 -0.6640625 19.0859375 0.2 21.55 1.124609375 24.8580078125 5.8 24.3
L 38.1 20.4
Q 39.9103515625 22.3044921875 41.85 23.9 41.4 24.9 41.35 25.85
L 38.9 25.85
Q 37.4 25.9 37.15 25.7 36.6 25.5 36.4 23.85 36.1 22.35 34.95 22.05 34.4 21.95 33.9 22.2
L 34.25 24.35
Q 34.1 26.7 31.55 27.55 28.75 28.55 27.1 27.1 26.3 26.55 26 25.75
L 25.65 25.8
Q 25.3 26.1 25.3 27.25 25.3 28.4 26 28.9
L 26.75 29.2
Q 27.35 30.7 29.3 30.5 30.8 30.4 32.5 29.1 33.7 28.1 35.6 27.8
L 37.35 27.65 41.7 27.85
Q 42.15 28.75 43.1 29.4 44.6 30.45 46.7 30.65 48.75 30.85 50.7 30.2 63.15 37.25 73.15 34.15 81.75 31.5 90.55 20.1 93.3 16.55 97.8 15.5 100 14.95 101.9 15.1
M 93.8 8.3
Q 94.996875 8.3494140625 95.65 9.05 96.306640625 9.7990234375 96.25 10.35 97.05 9.7 98 7.95
L 101.5 8.65 96.8 11.15 99.15 13.3
Q 92.8 14.15 89.1 19 80.15 30.45 71.3 32.7 62.45 34.9 51.2 28.3
L 50.85 28.1 50.4 28.25
Q 48.85 28.9 47.1 28.8 45.35 28.65 44.2 27.85 42.35 26.55 43.85 24.25
L 44.4 23.55 43.7 23
Q 39.35 19.45 36.1 15.1 34.9 13.4 33.9 11.55 40.6 13.4 55.7 12.45 70.9 11.55 79.85 7.8 81.95 8.65 83.4 10.5 84.65 12.1 84.95 13.7 88.3 13.35 91 12.15 90.45703125 10.693359375 91.55 9.5 92.649609375 8.3029296875 93.8 8.3
M 36 18.05
Q 36.2265625 18.321875 36.45 18.6
L 5.55 22.3
Q 2.7697265625 22.6427734375 2.1 20.95 1.580859375 19.1349609375 3.5 17.7 3.787109375 17.48984375 3.85 17.15 3.9580078125 16.80234375 3.8 16.45 3.646484375 16.151953125 3.3 16 2.276171875 15.5021484375 1.8 14.9 15.5486328125 15.880859375 21.75 16.65
L 35.95 17.9
Q 35.95 18 36 18.05
M 92.55 10.45
Q 92.15 10.95 92.25 11.65 92.35 12.3 92.9 12.7 93.45 13.05 94.15 12.95 94.75 12.8 95.15 12.3 95.7 11.45 95.2 10.55
L 95.1 10.75
Q 94.6 11.45 93.95 11 93.25 10.5 93.75 9.8
L 93.8 9.75
Q 93.05 9.75 92.55 10.45 Z"/>
</g>

<g id="bird_anim_19_Layer1_0_FILL">
<path fill="#FFFFFF" stroke="none" d="
M 76.25 32.9
Q 74.9998046875 33.52109375 73.75 33.95 74.753125 34.6884765625 75.95 35.3 76.95 34.45 76.25 32.9
M 96.15 28.05
Q 93.95 22.4 91.25 19.1 90.85 19.5 90.45 20 83.25 29.35 76.15 32.8 78.2 32.95 78.15 37.4 79.9 37.4 80.85 34.9 82.5 37.25 81.25 39.95 85.65 40.3 85.45 37.3 85.85 40.1 85.15 43.95 89 44.7 89.55 42.25 89.7 45.7 88.25 48.2 91.5 49 92.25 45.65
L 93.85 53.05
Q 100.55 39.35 96.15 28.05 Z"/>
</g>

<g id="bird_anim_19_Layer0_0_FILL">
<path fill="#FFFFFF" stroke="none" d="
M 62.75 29.1
Q 80.3169921875 16.2328125 74.5 9.65 67.126953125 10.1494140625 61.55 11.95 39.55 12.3 31.15 25.15 33.3 25.35 34.9 25.4 29.75 27.3 28.4 32.7 30.8 32.25 32.2 31.9 28 34.35 29.05 42.2 31.9 41.5 33.75 41 29.65 45.4 39.55 54.4 40 52.75 39.7 49.4 41.6 55.05 53.65 59.3 45.194140625 41.9556640625 62.75 29.1 Z"/>
</g>
</defs>

<g transform="matrix( 1, 0, 0, 1, 1.55,50.8) ">
<g transform="matrix( 1, 0, 0, 1, 0,0) ">
<use xlink:href="#bird_anim_19_Layer2_0_FILL"/>
</g>

<g transform="matrix( 1, 0, 0, 1, 0,0) ">
<use xlink:href="#bird_anim_19_Layer1_0_FILL"/>
</g>

<g transform="matrix( 1, 0, 0, 1, 0,0) ">
<use xlink:href="#bird_anim_19_Layer0_0_FILL"/>
</g>
</g>
</svg>
