<?xml version="1.0" encoding="utf-8"?>
<!-- Generator: Adobe Illustrator 26.0.1, SVG Export Plug-In . SVG Version: 6.00 Build 0)  -->
<svg version="1.1" id="Слой_1" xmlns="http://www.w3.org/2000/svg" xmlns:xlink="http://www.w3.org/1999/xlink" x="0px" y="0px"
	 viewBox="0 0 110 122" style="enable-background:new 0 0 110 122;" xml:space="preserve">
<style type="text/css">
	.st0{fill:#FFFFFF;}
</style>
<g>
	<g id="_____1_00000029751785340311904400000012460752660002379161_" transform="matrix( 1, 0, 0, 1, 1.55,50.8) ">
		<path class="st0" d="M84.3-16.6c0,0.4,0.1,0.8,0.5,1.1c0.3,0.3,0.7,0.5,1.1,0.5c0.4,0,0.8-0.2,1.2-0.5c0.3-0.3,0.4-0.7,0.4-1.1
			c0-0.7-0.4-1.2-1-1.4l0,0.2c0,0.6-0.3,0.9-0.8,0.9c-0.6,0-0.9-0.3-0.9-0.9l0-0.1C84.5-17.6,84.3-17.2,84.3-16.6z"/>
		<path class="st0" d="M90.7-20l4.6-7.7l-8.7,4.1c-1.4-0.6-3-1-4.7-1l-0.4,0c-3.9,0-6.8,1.4-8.7,4c-1,1.5-1.6,3.1-1.8,4.8
			c-0.1,0.7-0.1,1.5-0.1,2.6c-0.2,2.8-4.5,7.9-12.9,15.5C49.5,9.8,42.1,15,35.7,17.8c-5,1.9-8.9,3.5-11.6,4.6
			c-4.6,1.9-7.5,3.1-8.9,3.6c-1.8,0.7-2.8,1.7-3,3l0.3,1.7c-1.1,0.8-1.6,1.8-1.6,2.9c0,0.8,0.2,1.4,0.6,2c-0.5,0.5-0.8,1.1-1,1.6
			c-0.5,1.4-0.4,2.5,0.3,3.5c0.6,1.1,1.7,1.5,3.2,1.5c-0.2,1.8,0.4,3.2,1.8,4.2c1.8,1.4,3.8,1.1,6.1-1.1L46,23.4
			c1.7,0.3,3.4,0.5,5,0.6c0,0,0.1,0,0.1,0c0.2,0.7,0.4,1.3,0.8,1.9c0.4,0.6,0.9,1.1,1.5,1.4c0.6,0.3,1.3,0.4,2,0.4
			c1.2,0,2.4-0.4,3.6-1.1c1.2-0.7,2.2-1.6,3-2.7c0,0,0,0,0,0c0.1,0,0.1,0,0.2,0c9.4-1.1,16.2-4.4,20.3-9.9C86,9.2,88,2,88.3-7.6
			c0.1-3,1.2-5.7,3.2-8c1-1.2,2-2.1,3.1-2.7l3.3-1.8L90.7-20z M20.7,44c-1.4,1.3-2.6,1.6-3.6,0.9c-1-0.8-1.2-1.9-0.8-3.5
			c0.1-0.2,0.1-0.4,0-0.7c-0.1-0.2-0.2-0.4-0.5-0.5c-0.2-0.1-0.4-0.1-0.7-0.1c-0.7,0.1-1.4,0.1-1.9,0c7.8-4.8,13.5-8.3,17.2-10.3
			l12.2-7.3c0,0.1,0.1,0.1,0.1,0.1c0.2,0.1,0.5,0.1,0.7,0.2L20.7,44z M86.5-7.6C86.1,2.1,84,9.2,80.1,13.9
			c-3.9,4.6-10.2,7.4-18.9,8.2l-0.4,0c0,0,0-0.1,0-0.1l-0.3,0.4c-0.6,1-1.4,1.8-2.3,2.4c-1,0.6-2,0.9-2.9,1c-1.4,0-2.2-0.8-2.4-2.4
			c0-0.1,0-0.2,0-0.3l0-0.9l-0.9,0c-3.7-0.2-7.3-0.9-10.8-1.9c-1.3-0.4-2.6-1-3.9-1.6c4.3-1.6,10.4-5.6,18.2-12
			C63.4,0.2,69-5.8,72.4-11.3c1.5-0.4,3-0.3,4.5,0.1c1.3,0.4,2.3,0.9,3.1,1.7c1.7-1.5,3-3.1,4-4.8c-0.9-0.6-1.2-1.4-1.1-2.5
			c0.1-1.1,0.5-1.8,1.1-2.3c0.7-0.4,1.3-0.6,1.9-0.5c0.6,0.1,1.1,0.4,1.2,0.7c0.2-0.7,0.2-1.7,0-3l3.2-1.5l-2.3,4.8l3.2,0.4
			C88.2-15.2,86.6-11.7,86.5-7.6z"/>
		<path class="st0" d="M54.1,27.6l11.4,2.1c1,0.2,1.6,0.2,1.7,0.4c0.3,0.2,0.5,0.8,0.5,1.9c0.1,1,0.4,1.7,1.2,2
			c0.4,0.1,0.7,0.1,1.1,0l0-2.2c0.3-1.5,1.4-2.5,3.1-2.8c1.9-0.4,3.4,0,4.3,1.1c0.5,0.4,0.8,0.9,0.9,1.5l0.4,0
			c0.3-0.2,0.4-0.6,0.6-1.4c0.1-0.8,0-1.3-0.5-1.7L78,28.2c-0.3-1-1-1.6-2.3-1.7c-1-0.1-2.1,0.2-3.4,0.9c-0.9,0.5-2,0.8-3.3,0.8
			l-1.8-0.1l-11-2.1C56.1,25.4,52.9,26.9,54.1,27.6z"/>
	</g>
	<g transform="matrix( 1, 0, 0, 1, 0,0) ">
		<g>
			<g id="bird_anim_23_Layer1_0_FILL_00000049918778645295207570000006283684092354152071_">
				<path class="st0" d="M69.3,65.8c0.3,0.7,0.9,1.5,1.6,2.4c10.3-5.5,15.2-17.3,10.9-22.1C77,40.8,62.7,50,53.9,54.2
					C39.8,60,34,62.2,16.1,61c6.4,4.6,12.5,6.9,18.1,6.9c-3.2,0.4-5.6,0.7-7.1,1.1c10.4,3,17.3,3.3,20.7,0.9
					c-0.1,0.8-0.3,1.9-0.3,3.3c7.6-0.7,12.1-2.1,13.6-4.2c-0.1,0.6-0.1,1.5-0.1,2.6C65.9,70.2,68.6,68.3,69.3,65.8z"/>
			</g>
		</g>
	</g>
</g>
</svg>
