<svg width="75" height="156" viewBox="0 0 75 156" fill="none" xmlns="http://www.w3.org/2000/svg">
<path d="M44.5086 -3.52227C47.8086 25.9777 46.8086 56.4777 37.4086 84.8777C37.3086 85.0777 37.2086 85.0777 37.0086 85.0777C36.9086 85.0777 36.8086 84.8777 36.8086 84.7777C39.1086 68.2777 41.3086 51.8777 42.1086 35.2777C42.3086 29.8777 42.6086 24.0777 42.8086 18.6777C43.1086 11.2777 43.3086 3.87773 43.9086 -3.52227C43.9086 -3.72227 44.1086 -3.82227 44.2086 -3.82227C44.3086 -3.82227 44.4086 -3.72227 44.5086 -3.52227Z" fill="white"/>
<path d="M38.5086 -5.52226C40.2086 1.87774 40.6086 9.57774 40.7086 17.0777C40.9086 32.1777 39.8086 47.2777 38.8086 62.2777C38.3086 69.7777 37.7086 77.2777 37.4086 84.7777C37.4086 84.9777 37.2086 85.1777 37.0086 85.1777C36.8086 85.1777 36.6086 84.9777 36.6086 84.7777C34.7086 62.2777 37.1086 39.4777 37.6086 17.0777C37.8086 9.57774 38.0086 2.07774 37.3086 -5.32226C37.2086 -6.02226 38.3086 -6.32226 38.5086 -5.52226Z" fill="white"/>
<path d="M68.8087 104.178C64.2087 97.1777 55.8087 92.1777 47.4087 92.9777C46.9087 91.1777 46.4087 89.4777 46.4087 87.7777C47.2087 86.0777 47.0087 84.0777 45.1087 82.6777C43.2087 81.0777 40.5087 80.2777 38.2087 80.8777C38.1087 80.8777 38.1087 81.0777 38.2087 81.0777C40.4087 81.6777 42.1087 82.6777 43.4087 84.2777C44.1087 85.1777 44.3087 85.6777 43.7087 86.6777C41.9087 88.9777 33.3087 88.2777 31.1087 86.3777C30.8087 86.0777 30.7087 85.7777 30.8087 85.2777C31.5087 83.4777 33.4087 82.1777 35.3087 81.6777C35.6087 81.5777 35.6087 81.0777 35.2087 81.0777C32.4087 80.9777 28.6087 82.9777 28.8087 86.1777C28.9087 86.5777 29.0087 86.9777 29.2087 87.2777C29.0087 87.3777 28.9087 87.5777 28.9087 87.8777C29.0087 89.4777 29.0087 91.1777 28.8087 92.9777C25.8087 92.9777 22.9087 93.3777 20.0087 94.2777C19.8087 94.2777 19.6087 94.3777 19.4087 94.4777C18.7087 94.6777 18.0087 94.9777 17.3087 95.2777C9.40866 98.6777 4.00866 106.178 1.60866 114.278C-3.99134 132.078 5.40866 150.178 23.9087 154.378C28.9087 155.678 34.2087 155.978 39.3087 155.878C46.7087 155.778 54.2087 154.778 60.5087 150.678C76.0087 141.178 78.9087 118.678 68.8087 104.178ZM59.1087 100.378C59.2087 100.678 59.3087 100.878 59.4087 101.178C59.2087 100.978 59.0087 100.878 58.8087 100.678L58.9087 100.578C59.0087 100.578 59.1087 100.478 59.1087 100.378ZM57.2087 99.3777C57.1087 99.4777 57.1087 99.5777 57.1087 99.6777C56.9087 99.5777 56.7087 99.4777 56.5087 99.3777C56.6087 99.3777 56.7087 99.3777 56.8087 99.3777C57.0087 99.3777 57.1087 99.3777 57.2087 99.3777ZM38.8087 90.9777C40.5087 90.9777 42.1087 90.9777 43.8087 90.2777C44.4087 90.0777 44.9087 89.7777 45.3087 89.3777C45.2087 90.0777 45.3087 90.7777 45.4087 91.4777C45.6087 92.9777 46.2087 94.4777 47.1087 95.7777C47.3087 96.2777 47.8087 96.7777 47.9087 97.2777C47.9087 97.5777 47.5087 97.1777 47.3087 97.1777C46.7087 97.0777 46.3087 97.8777 46.5087 98.2777C46.7087 98.7777 46.3087 98.8777 45.9087 98.8777C45.1087 98.7777 44.9087 97.9777 44.1087 97.3777C43.9087 97.2777 43.7087 96.9777 43.1087 96.9777C42.5087 97.0777 42.2087 97.3777 42.1087 97.5777C41.5087 98.3777 41.7087 99.2777 41.3087 100.078C41.1087 100.478 40.9087 100.078 40.8087 99.7777C40.2087 98.7777 40.4087 97.2777 39.3087 96.6777C38.4087 96.4777 37.9087 96.7777 37.1087 97.0777C35.8087 97.5777 35.0087 98.7777 34.0087 99.6777C33.5087 99.9777 33.3087 99.5777 33.3087 99.1777C33.1087 98.3777 33.1087 97.4777 33.1087 96.6777C33.1087 96.4777 33.0087 96.1777 32.7087 95.8777C31.6087 95.1777 29.3087 96.7777 28.3087 97.8777C28.8087 96.2777 29.3087 94.7777 29.6087 93.2777C29.7087 93.2777 29.7087 93.1777 29.6087 93.0777C30.0087 91.4777 30.2087 89.9777 30.4087 88.4777C32.7087 90.2777 36.6087 90.8777 38.8087 90.9777ZM47.5087 153.278C47.6087 153.278 47.6087 153.278 47.7087 153.278C47.6087 153.378 47.6087 153.378 47.5087 153.278C47.5087 153.378 47.5087 153.378 47.5087 153.278ZM43.8087 154.378C43.6087 154.378 43.5087 154.478 43.3087 154.478C43.5087 154.378 43.7087 154.278 43.8087 154.078C43.8087 154.178 43.8087 154.278 43.8087 154.378ZM63.4087 143.678C63.5087 143.378 63.7087 142.978 63.8087 142.678C64.1087 142.178 63.8087 141.478 63.3087 141.278C62.8087 140.978 62.1087 141.278 61.9087 141.778C61.6087 142.478 61.3087 143.178 61.1087 143.978C60.8087 143.578 60.5087 143.178 60.2087 142.778C59.8087 142.278 59.2087 142.278 58.7087 142.578C58.2087 142.978 58.2087 143.578 58.5087 144.078C58.9087 144.578 59.3087 145.078 59.6087 145.578C58.9087 145.578 58.2087 145.478 57.4087 145.378C56.8087 145.278 56.3087 145.678 56.2087 146.178C56.1087 146.778 56.5087 147.278 57.0087 147.378C57.3087 147.478 57.6087 147.478 57.9087 147.478C57.7087 147.778 57.7087 148.078 57.8087 148.478C55.0087 150.278 52.0087 151.878 48.9087 152.978C49.0087 152.878 49.1087 152.678 49.1087 152.478C49.2087 151.878 48.8087 151.378 48.2087 151.278C47.9087 151.278 47.7087 151.178 47.4087 151.178L48.6087 150.178C49.1087 149.778 49.1087 149.178 48.7087 148.678C48.3087 148.178 47.7087 148.178 47.2087 148.578L45.9087 149.678C45.9087 149.378 45.9087 148.978 45.8087 148.678C45.8087 148.078 45.3087 147.678 44.7087 147.678C44.1087 147.678 43.7087 148.178 43.7087 148.778C43.7087 149.078 43.7087 149.478 43.8087 149.778C43.6087 149.478 43.3087 149.178 43.1087 148.978C42.7087 148.578 42.1087 148.478 41.6087 148.878C41.1087 149.278 41.1087 149.878 41.5087 150.378C41.7087 150.578 41.8087 150.778 42.0087 150.978C41.9087 150.978 41.7087 150.978 41.6087 150.978C41.0087 150.978 40.5087 151.478 40.6087 152.078C40.6087 152.678 41.1087 153.078 41.6087 153.078C41.2087 153.378 41.0087 153.878 41.2087 154.378C41.3087 154.578 41.4087 154.778 41.6087 154.878C36.3087 155.678 30.8087 155.378 25.7087 153.878C21.4087 152.578 17.7087 150.378 14.6087 147.578C14.8087 147.478 14.9087 147.278 15.0087 147.078C15.2087 146.478 14.9087 145.878 14.4087 145.678L12.9087 145.178C12.8087 145.178 12.7087 145.078 12.6087 145.078C12.9087 144.878 13.3087 144.578 13.6087 144.378C14.0087 143.978 14.1087 143.278 13.7087 142.878C13.3087 142.478 12.6087 142.378 12.2087 142.778C11.9087 143.078 11.5087 143.278 11.2087 143.478C11.1087 142.778 11.0087 142.178 10.8087 141.578C10.6087 140.978 10.0087 140.678 9.50866 140.878C9.40866 140.878 9.30866 140.978 9.20866 141.078C7.60866 138.478 6.30866 135.578 5.40866 132.678C5.50866 132.678 5.60866 132.678 5.70866 132.678C5.90866 132.678 6.10866 132.578 6.30866 132.478C6.80866 132.178 6.90866 131.478 6.60866 130.978C6.20866 130.478 5.80866 129.878 5.40866 129.378C6.20866 129.278 6.90866 129.178 7.70866 129.078C8.30866 128.978 8.70866 128.478 8.70866 127.878C8.60866 127.278 8.10866 126.878 7.50866 126.878C6.90866 126.978 6.30866 126.978 5.70866 127.078L6.30866 126.278C6.70866 125.778 6.60866 125.178 6.20866 124.778C5.70866 124.378 5.10866 124.478 4.70866 124.878L4.10866 125.578C3.80866 123.178 3.80866 120.778 4.10866 118.378C4.20866 118.478 4.40866 118.478 4.60866 118.478C4.70866 118.478 4.70866 118.478 4.80866 118.478C5.40866 118.378 5.80866 117.878 5.70866 117.278C5.60866 116.778 5.40866 116.278 5.20866 115.778C5.30866 115.778 5.50866 115.778 5.60866 115.778C6.20866 115.778 6.70866 115.378 6.70866 114.778C6.70866 114.178 6.30866 113.678 5.70866 113.678C5.60866 113.678 5.60866 113.678 5.50866 113.678L5.60866 113.578C5.90866 113.178 5.80866 112.578 5.40866 112.178C7.50866 105.178 12.0087 99.1777 19.0087 95.9777C18.9087 96.2777 18.7087 96.5777 18.5087 96.8777C18.2087 97.3777 18.3087 97.9777 18.7087 98.3777C18.9087 98.4777 19.1087 98.5777 19.3087 98.5777C19.6087 98.5777 19.9087 98.4777 20.2087 98.1777C20.3087 98.0777 20.4087 97.8777 20.5087 97.7777L20.6087 98.0777C20.7087 98.5777 21.1087 98.9777 21.6087 98.9777C21.7087 98.9777 21.7087 98.9777 21.8087 98.9777C22.4087 98.8777 22.7087 98.2777 22.6087 97.6777L22.4087 96.8777L23.8087 97.5777C24.0087 97.6777 24.1087 97.6777 24.3087 97.6777C24.7087 97.6777 25.1087 97.4777 25.2087 97.0777C25.5087 96.5777 25.3087 95.8777 24.7087 95.6777L22.7087 94.6777C24.6087 94.1777 26.6087 93.7777 28.8087 93.6777C28.6087 95.1777 28.4087 96.7777 28.0087 98.4777C28.0087 98.5777 28.1087 98.5777 28.1087 98.5777C29.4087 97.9777 30.5087 97.4777 31.8087 97.2777C32.2087 98.1777 32.8087 99.2777 33.4087 100.178C34.0087 100.678 34.6087 99.5777 35.1087 99.2777C36.2087 98.4777 37.6087 98.0777 38.8087 98.0777C39.3087 98.6777 40.0087 99.4777 40.5087 100.278C40.6087 100.478 40.7087 100.678 40.9087 100.878C41.1087 101.078 41.6087 100.978 41.8087 100.778C42.4087 100.278 42.9087 99.2777 43.4087 98.7777C43.4087 98.7777 43.4087 98.7777 43.5087 98.7777C44.2087 99.0777 45.2087 99.6777 46.1087 99.4777C46.6087 99.3777 46.9087 99.0777 47.4087 98.7777C47.5087 98.6777 47.6087 98.5777 47.7087 98.5777C47.9087 98.2777 48.5087 98.0777 48.5087 97.6777C48.5087 97.3777 48.5087 97.1777 48.4087 96.8777C48.2087 95.9777 48.0087 95.1777 47.7087 94.2777C50.6087 95.0777 53.4087 96.2777 55.8087 97.8777C55.6087 98.0777 55.5087 98.4777 55.5087 98.7777C55.5087 98.9777 55.7087 99.1777 55.9087 99.3777C54.4087 98.7777 52.8087 98.6777 51.1087 99.1777C49.3087 99.7777 48.1087 101.478 48.0087 103.278C52.4087 104.378 57.1087 106.178 60.3087 109.378C61.8087 110.878 64.4087 109.178 63.6087 107.178C63.0087 105.378 62.0087 103.878 60.8087 102.678C60.9087 102.678 61.0087 102.678 61.1087 102.578C61.2087 102.578 61.2087 102.478 61.3087 102.378C62.6087 103.778 63.8087 105.278 64.8087 106.878C66.8087 109.978 68.3087 113.478 69.1087 117.178C68.9087 117.178 68.8087 117.178 68.6087 117.278C68.1087 117.578 67.9087 118.178 68.2087 118.778C68.5087 119.178 68.8087 119.678 69.1087 120.078C68.6087 120.178 68.1087 120.278 67.6087 120.478C67.1087 120.678 66.8087 121.278 67.0087 121.878C67.2087 122.278 67.6087 122.578 68.0087 122.578C68.1087 122.578 68.3087 122.578 68.4087 122.478C68.8087 122.278 69.3087 122.178 69.8087 122.078C69.5087 122.578 69.2087 123.078 68.8087 123.378C68.4087 123.778 68.3087 124.478 68.7087 124.878C68.9087 125.078 69.2087 125.178 69.5087 125.178C69.7087 125.178 69.9087 125.078 70.0087 124.978C69.9087 131.778 67.8087 138.478 63.4087 143.678ZM55.5087 102.478C53.7087 102.178 51.9087 102.078 50.1087 102.378L49.2087 102.578C49.0087 102.678 48.8087 102.778 48.4087 102.878C49.4087 102.078 50.4087 100.978 51.8087 100.878C53.0087 100.878 54.3087 101.478 55.5087 102.478Z" fill="white"/>
<path d="M39.3086 149.078C36.6086 147.978 34.3086 146.978 32.0086 145.878C32.0086 145.378 31.6086 144.878 31.0086 144.878C30.7086 144.878 30.4086 144.778 30.1086 144.778L30.9086 143.778C31.3086 143.278 31.2086 142.678 30.7086 142.278C30.2086 141.878 29.6086 141.978 29.2086 142.478L28.1086 143.878C28.0086 143.778 27.9086 143.778 27.8086 143.678C27.6086 143.378 27.4086 143.078 27.2086 142.778C26.9086 142.278 26.2086 142.078 25.7086 142.378C25.7086 142.378 25.7086 142.378 25.6086 142.478C21.0086 139.678 16.6086 136.578 12.3086 133.478C11.9086 133.278 11.6086 132.978 11.2086 132.678C10.9086 132.378 10.4086 132.078 10.1086 131.978C10.1086 132.278 10.2086 132.678 10.3086 133.078C10.3086 133.178 10.2086 133.278 10.2086 133.378C10.3086 133.778 10.4086 134.278 10.5086 134.678C10.9086 136.078 11.5086 137.478 12.3086 138.678C13.7086 141.878 15.5086 144.878 18.1086 147.178C23.9086 152.078 32.8086 153.278 39.4086 149.378C39.7086 149.478 39.6086 149.078 39.3086 149.078Z" fill="white"/>
<path d="M40.2087 113.278C40.4087 113.478 40.6087 113.578 40.9087 113.578C41.2087 113.578 41.5087 113.478 41.7087 113.278C42.1087 112.878 42.1087 112.178 41.7087 111.778C41.5087 111.578 41.3087 111.378 41.1087 111.178C41.8087 111.278 42.5087 111.278 43.2087 111.378H43.3087C43.8087 111.378 44.3087 110.978 44.4087 110.478C44.5087 109.878 44.1087 109.378 43.5087 109.278C43.2087 109.278 43.0087 109.178 42.7087 109.178C43.0087 108.878 43.2087 108.378 43.0087 107.978C42.8087 107.478 42.2087 107.178 41.6087 107.378C41.3087 107.478 40.9087 107.678 40.6087 107.878C40.6087 107.778 40.6087 107.678 40.6087 107.678C40.7087 107.078 40.4087 106.578 39.8087 106.378C39.2087 106.278 38.7087 106.578 38.5087 107.178C38.5087 107.278 38.5087 107.278 38.5087 107.378C38.4087 107.278 38.4087 107.078 38.3087 106.978C38.1087 106.478 37.5087 106.178 36.9087 106.378C36.4087 106.578 36.1087 107.178 36.3087 107.778C36.5087 108.178 36.6087 108.578 36.8087 108.878C36.3087 108.878 35.9087 108.878 35.4087 108.878C34.8087 108.878 34.4087 109.378 34.4087 109.978C34.4087 110.578 34.9087 110.978 35.5087 110.978C35.7087 110.978 35.9087 110.978 36.1087 110.978C35.8087 111.278 35.6087 111.478 35.3087 111.778C34.9087 112.178 34.9087 112.878 35.4087 113.278C35.6087 113.478 35.9087 113.578 36.1087 113.578C36.4087 113.578 36.7087 113.478 36.9087 113.178C37.2087 112.878 37.5087 112.478 37.9087 112.178C37.9087 112.678 37.9087 113.278 38.0087 113.778C38.0087 114.378 38.5087 114.778 39.1087 114.778H39.2087C39.8087 114.678 40.2087 114.178 40.2087 113.578C40.2087 113.478 40.2087 113.378 40.2087 113.278Z" fill="white"/>
<path d="M57.3085 121.178C57.5085 120.978 57.7085 120.678 57.9085 120.478C57.9085 120.678 58.0085 120.778 58.0085 120.978L58.1085 121.378C58.2085 121.878 58.6085 122.278 59.1085 122.278C59.2085 122.278 59.2085 122.278 59.3085 122.278C59.9085 122.178 60.3085 121.578 60.2085 121.078L60.1085 120.578C60.1085 120.378 60.0085 120.178 60.0085 120.078C60.2085 120.378 60.5085 120.478 60.8085 120.478C61.0085 120.478 61.2085 120.478 61.3085 120.378C61.8085 120.078 62.0085 119.478 61.7085 118.878C61.6085 118.678 61.4085 118.478 61.3085 118.278C61.7085 118.178 62.2085 118.178 62.6085 118.078C63.2085 117.978 63.6085 117.478 63.5085 116.878C63.4085 116.278 62.9085 115.878 62.3085 115.978C61.6085 116.078 61.0085 116.178 60.3085 116.178C60.5085 115.778 60.7085 115.278 60.9085 114.878C61.1085 114.378 60.9085 113.678 60.4085 113.478C59.9085 113.278 59.4085 113.478 59.1085 113.878C59.1085 113.378 58.8085 112.878 58.3085 112.778C57.7085 112.678 57.2085 113.078 57.1085 113.578C57.0085 114.078 57.0085 114.478 57.1085 114.878C56.6085 114.578 56.1085 114.278 55.5085 114.078C54.9085 113.878 54.3085 114.178 54.1085 114.778C53.9085 115.378 54.2085 115.978 54.8085 116.178C55.2085 116.278 55.5085 116.478 55.9085 116.678C55.4085 116.678 54.9085 116.778 54.5085 116.778C53.9085 116.878 53.5085 117.378 53.5085 117.978C53.5085 118.578 54.0085 118.978 54.6085 118.978H54.7085C55.4085 118.878 56.0085 118.878 56.7085 118.778C56.5085 119.078 56.2085 119.478 55.9085 119.778C55.5085 120.178 55.6085 120.878 56.0085 121.278C56.2085 121.478 56.5085 121.578 56.7085 121.578C56.8085 121.478 57.1085 121.378 57.3085 121.178Z" fill="white"/>
<path d="M45.8087 127.778C46.4087 127.778 46.8087 127.278 46.8087 126.678C46.8087 126.578 46.8087 126.378 46.8087 126.278C47.0087 126.578 47.3087 126.778 47.4087 127.078C47.6087 127.378 47.9087 127.578 48.3087 127.578C48.5087 127.578 48.7087 127.478 48.9087 127.378C49.4087 127.078 49.6087 126.378 49.2087 125.878C49.0087 125.578 48.8087 125.278 48.6087 124.978H49.7087C50.3087 124.978 50.8087 124.478 50.7087 123.878C50.7087 123.278 50.2087 122.878 49.6087 122.878H48.3087C48.7087 122.478 49.2087 122.078 49.6087 121.578C50.0087 121.178 50.0087 120.478 49.5087 120.078C49.1087 119.678 48.4087 119.678 48.0087 120.178C47.5087 120.778 46.9087 121.278 46.3087 121.878C46.3087 121.378 46.2087 120.978 46.2087 120.478C46.1087 119.878 45.6087 119.478 45.0087 119.478C44.4087 119.578 44.0087 120.078 44.0087 120.678V120.778C44.0087 120.778 44.0087 120.778 43.9087 120.678C43.5087 120.178 42.9087 120.078 42.4087 120.478C41.9087 120.878 41.8087 121.478 42.2087 121.978C42.5087 122.378 42.8087 122.678 43.1087 122.978H41.0087C40.4087 122.978 39.9087 123.478 40.0087 124.078C40.0087 124.678 40.5087 125.078 41.1087 125.078H42.2087C41.9087 125.278 41.5087 125.578 41.2087 125.778C40.7087 126.078 40.6087 126.778 40.9087 127.278C41.1087 127.578 41.4087 127.778 41.8087 127.778C42.0087 127.778 42.2087 127.678 42.4087 127.578C43.1087 127.078 43.8087 126.578 44.5087 126.078C44.5087 126.278 44.5087 126.378 44.5087 126.578C44.7087 127.378 45.2087 127.778 45.8087 127.778C45.7087 127.778 45.8087 127.778 45.8087 127.778Z" fill="white"/>
<path d="M65.2087 131.178C65.1087 131.178 65.1087 131.178 65.2087 131.178H62.8087C63.1087 130.778 63.4087 130.378 63.6087 129.978C63.9087 129.478 63.8087 128.778 63.3087 128.478C62.8087 128.178 62.1087 128.278 61.8087 128.778C61.7087 128.978 61.6087 129.078 61.4087 129.278C61.4087 129.178 61.4087 129.078 61.4087 128.978C61.4087 128.378 60.9087 127.878 60.3087 127.978C59.7087 127.978 59.3087 128.478 59.3087 129.078C59.3087 129.378 59.3087 129.578 59.3087 129.878C58.9087 129.578 58.6087 129.178 58.2087 128.878C57.7087 128.478 57.1087 128.578 56.7087 128.978C56.3087 129.478 56.4087 130.078 56.8087 130.478C57.1087 130.678 57.3087 130.978 57.6087 131.178C57.4087 131.178 57.2087 131.178 57.1087 131.278C56.5087 131.378 56.2087 131.978 56.3087 132.578C56.4087 133.078 56.9087 133.378 57.3087 133.378C57.4087 133.378 57.5087 133.378 57.5087 133.378C57.8087 133.278 58.1087 133.278 58.4087 133.278C58.2087 133.578 58.0087 133.778 57.8087 134.078C57.4087 134.478 57.5087 135.178 57.9087 135.578C58.1087 135.778 58.3087 135.778 58.6087 135.778C58.9087 135.778 59.1087 135.678 59.3087 135.478C59.3087 135.778 59.3087 135.978 59.3087 136.278C59.3087 136.878 59.8087 137.378 60.3087 137.378C60.9087 137.378 61.4087 136.878 61.4087 136.378C61.4087 135.878 61.4087 135.378 61.4087 134.878C61.6087 135.078 61.9087 135.378 62.1087 135.578C62.3087 135.778 62.6087 135.878 62.9087 135.878C63.2087 135.878 63.4087 135.778 63.6087 135.578C64.0087 135.178 64.0087 134.478 63.6087 134.078C63.3087 133.778 63.0087 133.578 62.8087 133.278H65.1087C65.7087 133.278 66.2087 132.778 66.1087 132.178C66.2087 131.578 65.7087 131.178 65.2087 131.178Z" fill="white"/>
<path d="M52.0086 136.278C51.6086 136.678 51.2086 137.078 50.8086 137.378C50.8086 136.678 50.9086 135.978 51.0086 135.278C51.1086 134.678 50.7086 134.178 50.2086 134.078C49.6086 133.978 49.1086 134.378 49.0086 134.878C48.9086 135.378 48.9086 135.778 48.8086 136.278C48.6086 136.178 48.4086 136.178 48.2086 136.178C47.6086 136.278 47.2086 136.878 47.4086 137.378C47.5086 137.778 47.6086 138.178 47.8086 138.478H46.4086C45.8086 138.478 45.3086 138.978 45.3086 139.478C45.3086 140.078 45.8086 140.578 46.3086 140.578H46.5086C46.4086 140.778 46.3086 141.078 46.3086 141.378C46.3086 141.778 46.4086 142.178 46.7086 142.378C46.9086 142.578 47.2086 142.678 47.5086 142.678C47.8086 142.678 48.0086 142.578 48.2086 142.378C48.3086 142.278 48.3086 142.178 48.4086 142.078C48.4086 142.178 48.4086 142.278 48.3086 142.378C48.1086 142.978 48.5086 143.478 49.1086 143.678C49.2086 143.678 49.3086 143.678 49.4086 143.678C49.9086 143.678 50.3086 143.378 50.4086 142.878C50.4086 142.778 50.5086 142.578 50.5086 142.478C50.7086 142.878 51.0086 143.178 51.2086 143.578C51.4086 143.878 51.8086 144.078 52.1086 144.078C52.3086 144.078 52.5086 144.078 52.7086 143.878C53.2086 143.578 53.4086 142.878 53.1086 142.378C52.7086 141.778 52.3086 141.078 51.9086 140.478C52.5086 140.478 52.9086 139.978 52.9086 139.478C52.9086 139.178 52.8086 138.878 52.6086 138.678C53.1086 138.278 53.5086 137.878 53.9086 137.478C54.3086 137.078 54.2086 136.378 53.8086 135.978C53.0086 135.878 52.4086 135.878 52.0086 136.278Z" fill="white"/>
<path d="M32.0086 132.578C31.6086 132.278 31.2086 131.978 30.8086 131.778C30.3086 131.478 29.6086 131.578 29.3086 132.078C29.0086 132.578 29.1086 133.078 29.5086 133.478H29.4086C28.8086 133.478 28.3086 133.978 28.3086 134.478C28.3086 135.078 28.8086 135.578 29.3086 135.578C29.6086 135.578 30.0086 135.578 30.3086 135.578C30.1086 135.778 29.8086 136.078 29.7086 136.178C29.3086 136.578 29.4086 137.278 29.8086 137.678C30.0086 137.878 30.2086 137.978 30.5086 137.978C30.8086 137.978 31.1086 137.878 31.3086 137.578C31.5086 137.378 31.8086 137.078 32.1086 136.778V137.678C32.1086 138.278 32.6086 138.678 33.2086 138.678C33.8086 138.678 34.2086 138.178 34.2086 137.578V136.978C34.4086 137.078 34.6086 137.178 34.8086 137.178C35.1086 137.178 35.4086 137.078 35.6086 136.778C35.9086 136.378 35.9086 135.978 35.7086 135.578C35.9086 135.578 36.2086 135.578 36.4086 135.578C37.0086 135.578 37.5086 135.078 37.4086 134.478C37.3086 133.878 36.9086 133.378 36.3086 133.478C36.1086 133.478 35.9086 133.478 35.6086 133.478C35.7086 133.378 35.8086 133.178 35.9086 133.078C36.3086 132.678 36.2086 131.978 35.8086 131.578C35.4086 131.178 34.7086 131.278 34.3086 131.678C34.2086 131.778 34.0086 131.978 33.9086 132.178V131.378C33.9086 130.778 33.4086 130.378 32.8086 130.378C32.2086 130.378 31.8086 130.878 31.8086 131.478L32.0086 132.578Z" fill="white"/>
<path d="M27.4085 116.178L27.3086 117.178L26.7085 116.178C26.4086 115.678 25.7085 115.478 25.2086 115.878C24.7086 116.178 24.5085 116.878 24.9085 117.378L25.4085 118.078L24.9085 117.978C24.3085 117.878 23.8085 118.178 23.6085 118.778C23.5085 119.378 23.8085 119.878 24.4085 120.078L25.8086 120.378C25.4086 120.678 25.0085 120.978 24.6085 121.378C24.1085 121.778 24.1085 122.378 24.4085 122.878C24.6085 123.178 24.9086 123.278 25.2086 123.278C25.4086 123.278 25.7086 123.178 25.8086 123.078C26.1086 122.878 26.4086 122.578 26.7085 122.378C26.6086 122.778 26.5085 123.178 26.4085 123.578C26.2085 124.078 26.4085 124.778 27.0085 124.978C27.1085 125.078 27.3085 125.078 27.4085 125.078C27.8085 125.078 28.2085 124.778 28.4085 124.378C28.6085 123.978 28.7086 123.578 28.8086 123.178C28.9086 123.178 29.1086 123.278 29.2085 123.278C29.4085 123.278 29.6086 123.178 29.8086 123.078C30.3086 122.778 30.5085 122.078 30.1085 121.578L29.9085 121.278L30.9085 121.478C31.0085 121.478 31.1085 121.478 31.1085 121.478C31.6085 121.478 32.0085 121.178 32.1086 120.678C32.2086 120.078 31.9086 119.578 31.3086 119.378L30.5085 119.178C30.9085 118.778 31.3086 118.478 31.8086 118.078C32.2086 117.678 32.3085 116.978 31.9085 116.578C31.5085 116.178 30.8085 116.078 30.4085 116.478C30.1085 116.778 29.8085 116.978 29.5085 117.178L29.6085 116.278C29.7085 115.678 29.2085 115.178 28.6085 115.078C27.9085 115.178 27.4085 115.678 27.4085 116.178Z" fill="white"/>
<path d="M17.7087 127.478C17.1087 127.678 16.8087 128.278 17.0087 128.778C17.0087 128.878 17.0087 128.878 17.1087 128.978C16.8087 128.778 16.4087 128.678 16.0087 128.578C15.4087 128.478 14.9087 128.778 14.7087 129.378C14.6087 129.978 14.9087 130.478 15.5087 130.678C15.9087 130.778 16.2087 130.978 16.6087 131.178L16.0087 131.378C15.6087 131.478 15.1087 131.678 14.7087 132.178C14.3087 132.678 14.4087 133.278 14.9087 133.678C15.1087 133.878 15.3087 133.878 15.6087 133.878C15.9087 133.878 16.2087 133.778 16.4087 133.478C16.5087 133.378 16.7087 133.378 16.8087 133.278L17.6087 132.978C17.4087 133.478 17.3087 133.978 17.1087 134.478C16.9087 135.078 17.2087 135.678 17.8087 135.778C17.9087 135.778 18.0087 135.878 18.1087 135.878C18.5087 135.878 19.0087 135.578 19.1087 135.178V135.078C19.1087 135.178 19.1087 135.178 19.2087 135.278C19.4087 135.678 19.8087 135.978 20.2087 135.978C20.3087 135.978 20.5087 135.978 20.6087 135.878C21.1087 135.678 21.4087 135.078 21.2087 134.478C21.0087 134.078 20.9087 133.678 20.8087 133.278C21.3087 133.478 21.8087 133.678 22.3087 133.778C22.4087 133.778 22.5087 133.878 22.6087 133.878C23.0087 133.878 23.5087 133.578 23.6087 133.178C23.8087 132.578 23.5087 131.978 22.9087 131.878C22.5087 131.778 22.2087 131.578 21.8087 131.478L22.3087 131.278C22.8087 131.078 23.1087 130.478 22.9087 129.878C22.7087 129.378 22.1087 129.078 21.5087 129.278L20.8087 129.578C20.9087 129.178 21.0087 128.778 21.1087 128.378C21.2087 127.778 20.9087 127.278 20.3087 127.078C19.7087 126.978 19.2087 127.278 19.0087 127.878C19.0087 127.978 19.0087 127.978 18.9087 128.078C18.8087 127.578 18.2087 127.378 17.7087 127.478Z" fill="white"/>
<path d="M11.8087 120.478C11.9087 120.878 12.0087 121.278 12.0087 121.678C12.1087 122.178 12.5087 122.578 13.0087 122.578C13.1087 122.578 13.1087 122.578 13.2087 122.578C13.8087 122.478 14.2087 121.978 14.1087 121.378C14.1087 121.278 14.1087 121.278 14.1087 121.178C14.6087 121.478 15.1087 121.878 15.6087 122.178C15.8087 122.278 16.0087 122.378 16.2087 122.378C16.5087 122.378 16.9087 122.178 17.1087 121.878C17.4087 121.378 17.3087 120.778 16.8087 120.378C16.3087 119.978 15.7087 119.578 15.2087 119.178C15.6087 119.078 16.0087 118.978 16.4087 118.778C17.0087 118.578 17.3087 117.978 17.1087 117.478C16.9087 116.978 16.3087 116.678 15.8087 116.778C16.2087 116.378 16.2087 115.678 15.8087 115.278C15.4087 114.878 14.7087 114.878 14.3087 115.278C13.9087 115.678 13.5087 115.978 13.2087 116.378C13.0087 115.778 12.8087 115.278 12.6087 114.678C12.4087 114.078 11.8087 113.878 11.2087 114.078C10.6087 114.278 10.4087 114.878 10.6087 115.478C10.7087 115.678 10.7087 115.878 10.8087 116.078C10.3087 115.878 9.80872 115.978 9.50872 116.378C9.20872 116.878 9.30872 117.478 9.70872 117.878C9.90872 118.078 10.1087 118.178 10.3087 118.378C10.0087 118.478 9.70872 118.478 9.40872 118.578C8.80872 118.678 8.40872 119.178 8.50872 119.778C8.60872 120.078 8.80872 120.378 9.10872 120.478C9.10872 120.778 9.10872 120.978 9.30872 121.178C9.50872 121.478 9.80872 121.578 10.1087 121.578C10.3087 121.578 10.6087 121.478 10.7087 121.378C11.1087 121.078 11.4087 120.778 11.8087 120.478Z" fill="white"/>
<path d="M21.4085 105.378C21.9085 105.478 22.4085 105.678 23.0085 105.878C22.7085 106.078 22.4086 106.178 22.2086 106.278C21.6086 106.478 21.3085 107.078 21.5085 107.578C21.6085 107.978 22.1085 108.278 22.5085 108.278C22.6085 108.278 22.7086 108.278 22.8086 108.178C23.0086 108.078 23.2085 108.078 23.4085 107.978L23.0085 109.078C22.8085 109.678 23.1086 110.278 23.7085 110.478C23.8085 110.478 23.9085 110.578 24.0085 110.578C24.4085 110.578 24.9085 110.278 25.0085 109.878L25.4085 108.678C25.6085 108.778 25.8085 108.878 26.1085 108.878C26.2085 108.878 26.4085 108.878 26.5085 108.778C27.0085 108.578 27.2085 107.978 27.0085 107.378C27.1085 107.378 27.2086 107.378 27.3086 107.478C27.4086 107.478 27.4085 107.478 27.5085 107.478C28.0085 107.478 28.5085 107.078 28.5085 106.578C28.6085 105.978 28.2085 105.478 27.6085 105.378H27.5085C27.8085 105.278 28.1085 105.078 28.4085 104.978C29.0085 104.778 29.3085 104.178 29.1086 103.678C28.9086 103.078 28.3086 102.778 27.8086 102.978C27.6086 103.078 27.4085 103.178 27.2085 103.178C27.2085 102.678 27.0085 102.278 26.5085 102.078C25.9085 101.878 25.3085 102.178 25.1085 102.778V102.878C24.8085 102.578 24.4085 102.478 24.1085 102.678C23.6085 102.878 23.3085 103.378 23.4085 103.878C22.9085 103.678 22.4085 103.478 21.9085 103.378C21.3085 103.278 20.8085 103.578 20.6085 104.178C20.5085 104.678 20.8085 105.178 21.4085 105.378Z" fill="white"/>
<path d="M9.7086 106.678C9.9086 106.678 10.0086 106.778 10.2086 106.778C10.1086 106.878 9.9086 106.978 9.8086 107.178C9.4086 107.578 9.4086 108.278 9.8086 108.678C10.0086 108.878 10.3086 108.978 10.6086 108.978C10.8086 108.978 10.9086 108.978 11.1086 108.878C11.0086 109.078 11.0086 109.278 10.9086 109.478C10.7086 109.978 11.0086 110.678 11.5086 110.878C11.6086 110.978 11.8086 110.978 11.9086 110.978C12.3086 110.978 12.7086 110.678 12.9086 110.278C13.1086 109.678 13.4086 108.978 13.6086 108.378L13.7086 108.478C13.9086 108.778 14.3086 108.978 14.6086 108.978C14.8086 108.978 15.0086 108.978 15.1086 108.778C15.5086 108.578 15.7086 108.078 15.6086 107.678C16.1086 107.778 16.6086 107.878 17.2086 107.978C17.3086 107.978 17.3086 107.978 17.4086 107.978C17.9086 107.978 18.4086 107.578 18.4086 107.078C18.5086 106.478 18.1086 105.978 17.5086 105.878C16.8086 105.778 16.1086 105.678 15.4086 105.478C15.5086 105.378 15.7086 105.278 15.8086 105.178C16.3086 104.878 16.5086 104.178 16.1086 103.678C15.8086 103.178 15.1086 102.978 14.6086 103.378C14.6086 103.378 14.5086 103.378 14.5086 103.478C14.6086 102.878 14.1086 102.378 13.6086 102.278C13.2086 102.278 12.8086 102.378 12.6086 102.678C12.3086 102.178 11.7086 102.078 11.2086 102.378C10.7086 102.678 10.5086 103.378 10.8086 103.878L11.3086 104.778C10.9086 104.678 10.5086 104.678 10.1086 104.578C9.5086 104.478 9.0086 104.878 8.9086 105.378C8.8086 106.078 9.1086 106.578 9.7086 106.678Z" fill="white"/>
</svg>
