<svg width="115" height="289" viewBox="0 0 115 289" fill="none" xmlns="http://www.w3.org/2000/svg">
<path d="M48.6627 3.95007C50.8899 0.0259367 56.617 -0.186178 60.0108 2.25315C68.4954 8.19237 68.9197 27.0706 69.556 36.7219C70.6166 68.5391 71.359 100.569 67.0106 132.174C64.8895 147.976 61.4956 163.567 57.2533 178.945C57.2533 179.157 57.0412 179.263 56.8291 179.157C56.723 179.157 56.617 178.945 56.617 178.839C62.6623 147.658 66.0561 116.159 66.1622 84.4478C66.3743 70.6603 66.1622 50.8275 66.0561 36.8279C65.7379 28.1312 66.0561 9.14689 59.0563 3.63189C56.2988 1.51074 51.3141 1.19257 49.193 4.3743C48.9808 4.58641 48.4506 4.26824 48.6627 3.95007Z" fill="white"/>
<path d="M46.6477 81.4782C54.1778 113.295 57.6777 146.173 57.3595 178.839C57.3595 179.051 57.1474 179.263 56.9353 179.263C56.7232 179.263 56.511 179.051 56.511 178.839C53.9657 155.4 51.2082 129.416 48.2386 105.977C47.284 97.9171 46.2235 89.7507 45.375 81.6903C45.375 81.3721 45.5871 81.0539 45.9053 80.9479C46.3295 80.9479 46.5416 81.16 46.6477 81.4782Z" fill="white"/>
<path d="M90.6616 196.126C85.1466 193.157 78.9953 191.566 72.8439 191.884C71.9955 188.808 71.041 185.945 70.9349 183.081C71.3591 182.021 71.5713 180.854 71.3591 179.688C70.6167 176.718 68.2835 175.339 65.9502 174.066C63.723 173.112 60.9655 172.476 58.7383 173.112C58.7383 173.218 58.7383 173.218 58.8443 173.218C61.1776 173.642 63.1927 174.491 64.9957 175.763C66.4805 176.824 68.3895 178.521 68.6016 180.218C68.8138 181.809 67.435 183.4 65.8441 183.93C61.0716 185.415 54.7081 185.096 49.9355 183.293C48.2386 182.551 46.2235 181.809 46.8598 179.688C48.0265 176.718 51.1021 174.809 54.2839 174.066C54.602 173.96 54.602 173.43 54.1778 173.43C50.5719 173.43 46.5417 175.445 44.9508 178.945C44.5266 180.218 44.5266 181.278 44.9508 182.233C44.8447 182.445 44.7387 182.657 44.7387 182.869C44.9508 185.627 44.8447 188.702 44.4205 191.884C31.7997 191.778 19.0728 197.399 11.4366 207.581C-4.89625 228.474 -2.98721 262.2 19.1788 278.321C30.9512 287.23 46.1174 289.457 60.4352 288.927C78.8892 288.821 96.4948 282.669 106.676 266.23C120.994 243.746 114.312 209.384 90.6616 196.126ZM59.5868 187.748C62.1321 187.748 64.5715 187.642 67.0108 186.687C67.7532 186.369 68.4956 185.945 69.1319 185.309C69.1319 186.263 69.1319 187.112 69.344 188.066C69.6622 190.293 70.6167 192.52 71.9955 194.642C72.4197 195.278 73.0561 196.126 73.1621 196.869C73.1621 197.293 72.6318 196.657 72.3137 196.657C71.3591 196.551 70.8288 197.611 71.147 198.248C71.4652 198.99 70.8288 199.202 70.2986 199.202C69.1319 199.096 68.8138 197.823 67.6471 196.975C67.435 196.763 67.0108 196.445 66.1623 196.445C65.2078 196.551 64.8896 197.081 64.6775 197.399C63.723 198.672 64.0412 199.945 63.4048 201.217C63.0866 201.854 62.8745 201.217 62.5564 200.793C61.6018 199.308 61.92 197.081 60.3292 196.126C59.0565 195.808 58.208 196.232 57.0414 196.763C55.1323 197.611 53.8596 199.308 52.3748 200.687C51.7385 201.217 51.4203 200.475 51.2082 199.945C50.89 198.778 50.9961 197.505 50.89 196.232C50.784 195.914 50.784 195.384 50.2537 194.96C48.6628 193.899 45.1629 196.232 43.7842 197.929C45.375 193.157 46.4356 188.702 46.9659 184.46C50.3597 186.899 56.7232 187.748 59.5868 187.748ZM66.4805 198.672C66.4805 198.566 66.4805 198.672 66.4805 198.672V198.672ZM70.2986 286.487C70.2986 286.381 70.4046 286.275 70.4046 286.169C70.5107 286.275 70.6167 286.381 70.7228 286.381C70.5107 286.381 70.4046 286.381 70.2986 286.487ZM108.797 247.034C107.525 257.428 103.176 266.018 96.4948 272.7C96.813 271.215 97.2372 269.73 97.9796 268.352C98.2978 267.821 97.9796 267.079 97.4493 266.867C96.919 266.549 96.1766 266.867 95.9645 267.397C95.3281 268.776 94.7979 270.261 94.4797 271.745C93.8433 270.791 93.207 269.836 92.4646 268.988C92.0404 268.458 91.404 268.458 90.8737 268.776C90.3434 269.2 90.3434 269.836 90.6616 270.367C91.5101 271.427 92.2525 272.488 92.9949 273.548C91.5101 273.548 90.0253 273.442 88.5405 273.124C87.9041 273.018 87.3738 273.442 87.2678 273.973C87.1617 274.609 87.5859 275.139 88.1162 275.245C88.9647 275.457 89.8132 275.564 90.6616 275.564C90.4495 275.67 90.3434 275.776 90.1313 275.882C89.601 276.2 89.3889 276.836 89.7071 277.367C89.8132 277.579 89.9192 277.685 90.1313 277.791C85.4648 280.972 80.1619 283.518 74.4348 285.215C73.9045 285.321 73.3742 285.533 72.8439 285.639C72.8439 285.321 72.7379 284.897 72.5258 284.684C72.3137 284.472 72.1015 284.366 71.9955 284.26C72.6318 284.366 73.3742 284.366 74.0106 284.472C74.1166 284.472 74.1166 284.472 74.2227 284.472C74.753 284.472 75.2833 284.048 75.3893 283.518C75.4954 282.882 75.0712 282.351 74.4348 282.245C73.5863 282.139 72.8439 282.033 71.9955 281.927L74.753 279.594C75.2833 279.17 75.2833 278.533 74.859 278.003C74.4348 277.473 73.7985 277.473 73.2682 277.897L70.5107 280.124C70.5107 279.276 70.4046 278.321 70.4046 277.473C70.4046 276.836 69.8743 276.412 69.238 276.412C68.6016 276.412 68.1774 276.942 68.1774 277.579C68.2835 278.639 68.2835 279.594 68.3895 280.654C67.6471 279.912 67.0108 279.063 66.2684 278.215C65.8441 277.791 65.2078 277.685 64.6775 278.109C64.1472 278.533 64.1472 279.17 64.5715 279.7C65.1017 280.336 65.632 280.866 66.1623 281.503C65.526 281.503 64.9957 281.503 64.3593 281.503C63.723 281.503 63.1927 282.033 63.2988 282.669C63.2988 283.306 63.8291 283.73 64.4654 283.73C64.9957 283.73 65.632 283.73 66.1623 283.73C65.7381 284.048 65.3139 284.366 64.8896 284.578C64.3593 284.791 64.0412 285.533 64.3593 286.063C64.5715 286.487 64.9957 286.7 65.4199 286.7C65.526 286.7 65.7381 286.7 65.8441 286.594C66.9047 286.169 67.7532 285.427 68.4956 284.791L68.6016 284.684C68.6016 285.109 68.4956 285.533 68.3895 285.745C68.2835 286.063 68.1774 286.381 68.2835 286.594C66.5865 286.912 64.7836 287.23 63.1927 287.442C60.8594 287.548 58.4201 287.866 56.0869 287.866C55.2384 287.866 50.89 287.654 50.1476 287.654C47.6022 287.23 44.5266 287.018 41.9812 286.275C40.7085 285.957 38.6934 285.533 37.4207 285.003C31.0573 282.882 25.6483 279.488 21.0879 275.245H21.1939C21.3 275.245 21.406 275.351 21.6181 275.351C22.0424 275.351 22.4666 275.033 22.6787 274.609C22.8908 273.973 22.5727 273.336 22.0424 273.124L19.7091 272.276C19.1788 272.064 18.7546 271.958 18.2243 271.745C19.0728 271.215 19.9212 270.685 20.6636 270.049C21.0879 269.624 21.1939 268.882 20.7697 268.458C20.3455 268.033 19.603 267.927 19.1788 268.352C18.4364 268.988 17.694 269.518 16.8456 269.942C16.7395 268.67 16.5274 267.503 16.2092 266.23C15.9971 265.594 15.3607 265.276 14.8305 265.488C14.3002 265.7 13.982 266.124 14.0881 266.655C10.5882 261.458 8.14883 255.519 6.66403 249.473C7.08826 250.004 7.51249 250.64 7.93672 251.17C8.14883 251.488 8.46701 251.701 8.89124 251.701C9.10335 251.701 9.31547 251.595 9.52758 251.488C10.0579 251.17 10.1639 250.428 9.84575 249.898C9.10335 248.837 8.25489 247.776 7.40643 246.822C8.89124 246.504 10.376 246.292 11.9669 246.186C12.6033 246.08 13.0275 245.549 13.0275 244.913C12.9214 244.277 12.3911 243.852 11.7548 243.852C10.376 243.958 8.99729 244.171 7.61855 244.383L9.52758 242.155C9.95181 241.625 9.84575 240.989 9.42152 240.565C8.89124 240.14 8.25489 240.246 7.83066 240.671L5.60345 243.322C4.96711 238.337 4.96711 233.247 5.70951 228.368C5.81557 228.686 5.92162 228.898 5.92162 229.216C6.02768 229.747 6.45191 230.171 6.9822 230.171C7.08826 230.171 7.08826 230.171 7.19431 230.171C7.83066 230.065 8.25489 229.535 8.14883 228.898C7.93672 227.838 7.51249 226.883 6.9822 226.035C7.51249 226.035 8.04278 225.929 8.57306 225.929C9.20941 225.929 9.7397 225.504 9.7397 224.868C9.7397 224.232 9.31547 223.701 8.67912 223.701C8.25489 223.701 7.83066 223.701 7.40643 223.701L8.14883 222.641C8.46701 222.111 8.36095 221.474 7.83066 221.05C7.7246 220.944 7.61855 220.944 7.51249 220.944C11.0124 209.596 18.4364 199.945 30.1027 195.066C29.8906 195.914 29.5725 196.657 29.0422 197.293C28.724 197.823 28.8301 198.46 29.2543 198.884C29.4664 198.99 29.6785 199.096 29.8906 199.096C30.2088 199.096 30.527 198.99 30.8451 198.672C31.2694 198.142 31.5876 197.505 31.9057 196.763L32.33 198.672C32.436 199.202 32.8602 199.626 33.3905 199.626C33.4966 199.626 33.4966 199.626 33.6026 199.626C34.239 199.52 34.5572 198.884 34.4511 198.248L33.9208 195.914L36.9965 197.505C37.2086 197.611 37.3147 197.611 37.5268 197.611C37.951 197.611 38.3752 197.399 38.4813 196.975C38.7995 196.445 38.5874 195.702 37.951 195.49L34.4511 193.687C34.345 193.581 34.1329 193.581 34.0269 193.581C37.3147 192.627 40.9206 191.99 44.8447 191.778C44.6326 193.793 44.3145 195.808 43.7842 197.929C43.7842 198.035 43.8902 198.035 43.8902 198.035C45.7993 197.187 47.4962 196.445 49.4052 196.02C50.0416 197.399 50.89 199.096 51.8446 200.369C52.7991 201.005 53.6475 199.52 54.3899 198.99C55.9808 197.823 58.1019 197.187 59.9049 197.081C60.6473 198.035 61.7079 199.202 62.3442 200.369C62.5564 200.687 62.5564 201.005 62.9806 201.323C63.2988 201.641 64.0412 201.429 64.2533 201.111C65.2078 200.263 65.8441 198.884 66.5865 198.142C66.5865 198.142 66.6926 198.142 66.6926 198.248C67.7532 198.778 69.344 199.626 70.6167 199.308C71.3591 199.202 71.8894 198.778 72.5258 198.248C72.7379 198.142 72.95 198.035 72.95 197.929C72.95 197.929 72.95 197.929 72.95 197.823C73.2682 197.293 74.1166 197.187 74.2227 196.445C74.3288 196.02 74.1166 195.596 74.1166 195.278C73.9045 194.217 73.6924 193.263 73.3742 192.308C78.6771 193.369 83.5558 195.384 87.7981 198.248C87.5859 198.248 87.4799 198.248 87.2678 198.354C86.6314 198.46 86.3133 199.096 86.4193 199.732C86.5254 200.369 87.1617 200.687 87.7981 200.581C88.3283 200.475 88.9647 200.475 89.601 200.581C89.495 200.687 89.3889 200.793 89.2829 200.899C88.8586 201.323 88.8586 202.066 89.2829 202.49C89.495 202.702 89.8132 202.808 90.1313 202.808C90.4495 202.808 90.6616 202.702 90.8737 202.49C91.1919 202.172 91.5101 201.854 91.8282 201.535C92.1464 202.596 92.4646 203.657 92.8888 204.717C93.1009 205.141 93.5252 205.353 93.9494 205.353C94.1615 205.353 94.2676 205.353 94.4797 205.247C94.9039 205.035 95.116 204.505 95.116 204.081C102.222 211.187 106.994 220.52 108.797 230.595C108.585 230.277 108.373 229.959 108.161 229.535C107.843 229.004 107.207 228.792 106.57 229.11C106.04 229.429 105.828 230.065 106.146 230.701C106.676 231.656 107.313 232.504 107.949 233.353C106.888 233.459 105.828 233.671 104.767 234.095C104.237 234.307 103.919 234.944 104.131 235.58C104.343 236.004 104.767 236.322 105.191 236.322C105.298 236.322 105.51 236.322 105.616 236.216C106.676 235.792 107.737 235.58 108.797 235.58C108.267 236.746 107.631 237.807 106.676 238.656C106.252 239.08 106.146 239.822 106.57 240.246C106.782 240.458 107.101 240.565 107.419 240.565C107.737 240.565 107.949 240.458 108.161 240.246C108.691 239.822 109.01 239.292 109.434 238.762C109.328 241.837 109.222 244.383 108.797 247.034ZM32.5421 194.43C32.6481 194.43 32.8602 194.323 32.9663 194.323C32.8602 194.43 32.7542 194.43 32.7542 194.536C32.6481 194.536 32.6481 194.536 32.5421 194.43Z" fill="white"/>
<path d="M93.7372 215.959C94.2675 216.489 95.222 216.702 95.9644 216.383C97.1311 215.959 97.6613 214.686 97.2371 213.52C96.2826 210.868 94.7978 208.747 92.9948 206.838C91.1918 204.929 89.1767 203.338 86.7374 202.278C81.6466 199.626 75.0711 200.793 74.0105 207.156C77.6165 207.793 81.5406 208.641 84.8284 210.126C88.2222 211.611 91.1918 213.52 93.7372 215.959ZM74.3287 207.05C75.8135 205.565 77.2983 203.656 79.5255 203.338C82.7072 203.02 85.8889 205.141 88.4343 207.793C83.8738 206.202 78.9952 205.778 74.3287 207.05Z" fill="white"/>
<path d="M60.5412 278.745C56.1929 277.579 52.1627 276.2 48.3446 274.503C48.5567 274.291 48.6628 274.079 48.6628 273.76C48.6628 273.124 48.2385 272.594 47.6022 272.594C46.7537 272.594 46.0113 272.488 45.1629 272.382L47.0719 270.048C47.4961 269.518 47.3901 268.882 46.8598 268.458C46.3295 268.033 45.6932 268.139 45.2689 268.67L42.9357 271.533C42.2993 270.791 41.769 269.942 41.2387 269.094C40.9206 268.564 40.1782 268.352 39.6479 268.67C39.1176 268.988 39.0115 269.624 39.2236 270.155C31.1633 265.594 23.7392 259.867 16.8455 253.61C16.7394 253.503 16.5273 253.291 16.4213 253.185C16.1031 252.867 15.4668 252.549 15.2546 252.337C15.3607 252.867 15.4668 253.397 15.5728 253.822C15.5728 253.928 15.5728 253.928 15.5728 254.034C15.6789 254.776 15.997 255.413 16.2092 256.049V256.155C16.6334 257.322 17.0576 258.488 17.4818 259.655C19.8151 265.488 22.8908 271.321 27.7694 275.457C36.6783 282.881 50.0415 284.578 60.3291 279.169C60.8594 279.063 60.7533 278.745 60.5412 278.745ZM26.8149 271.321C25.224 269.624 23.7392 267.715 22.3605 265.7C28.5118 272.806 37.2086 277.685 46.3295 279.594C46.7537 279.7 47.284 279.806 47.7083 279.806C39.966 279.382 32.3299 276.836 26.8149 271.321Z" fill="white"/>
<path d="M62.8746 222.959C63.1927 222.959 63.5109 222.853 63.723 222.641C64.1473 222.217 64.1473 221.474 63.723 221.05C63.0867 220.414 62.5564 219.777 61.9201 219.141C63.4049 219.247 64.9957 219.353 66.4805 219.565H66.5866C67.1169 219.565 67.6472 219.141 67.7532 218.611C67.8593 217.974 67.435 217.444 66.7987 217.338C65.8442 217.232 64.8897 217.126 63.9351 217.02C64.2533 216.808 64.6775 216.702 65.1018 216.489C65.6321 216.277 65.9502 215.535 65.7381 215.005C65.526 214.474 64.7836 214.156 64.2533 214.368C63.4049 214.686 62.5564 215.111 61.814 215.535C61.9201 215.111 61.9201 214.58 62.0261 214.156C62.1322 213.52 61.814 212.99 61.1776 212.777C60.5413 212.671 60.011 212.99 59.7989 213.626C59.6928 214.262 59.5868 214.792 59.4807 215.429C59.1626 214.792 58.7383 214.05 58.5262 213.308C58.3141 212.777 57.6777 212.459 57.0414 212.671C56.5111 212.883 56.1929 213.52 56.4051 214.156C56.7232 215.005 57.1475 215.853 57.5717 216.595C56.6172 216.595 55.5566 216.595 54.6021 216.702C53.9657 216.702 53.5415 217.232 53.5415 217.868C53.5415 218.505 54.0718 218.929 54.7081 218.929C55.4505 218.929 56.1929 218.929 56.9353 218.823C56.1929 219.459 55.5566 220.201 54.8142 220.944C54.39 221.368 54.39 222.11 54.9203 222.535C55.1324 222.747 55.4505 222.853 55.6627 222.853C55.9808 222.853 56.299 222.747 56.5111 222.429C57.2535 221.58 58.102 220.838 58.9504 220.095C58.9504 221.368 58.9504 222.535 59.0565 223.807C59.0565 224.444 59.5868 224.868 60.2231 224.868H60.3292C60.9655 224.762 61.3898 224.232 61.3898 223.595C61.2837 222.959 61.2837 222.323 61.2837 221.686C61.6019 222.004 61.814 222.323 62.1322 222.535C62.3443 222.853 62.5564 222.959 62.8746 222.959Z" fill="white"/>
<path d="M89.4949 232.822C89.601 233.459 89.707 233.989 89.8131 234.625V234.837C89.8131 235.049 89.9191 235.156 89.9191 235.368C90.0252 235.898 90.4494 236.322 90.9797 236.322C91.0858 236.322 91.0858 236.322 91.1918 236.322C91.8282 236.216 92.2524 235.58 92.1464 235.049C92.1464 234.837 92.0403 234.625 92.0403 234.413V234.201C91.8282 233.353 91.7221 232.504 91.51 231.656C91.9342 232.08 92.3585 232.398 92.6766 232.928C92.8888 233.247 93.313 233.459 93.6312 233.459C93.8433 233.459 94.0554 233.459 94.1614 233.353C94.6917 233.034 94.9039 232.398 94.5857 231.762C94.2675 231.125 93.7372 230.701 93.313 230.277C94.3736 230.171 95.3281 230.065 96.3887 229.853C97.025 229.747 97.4492 229.216 97.3432 228.58C97.2371 227.944 96.7068 227.519 96.0705 227.625C94.7978 227.838 93.419 227.944 92.0403 228.156C92.4645 227.201 92.8888 226.247 93.313 225.292C93.5251 224.762 93.313 224.019 92.7827 223.807C92.2524 223.595 91.51 223.807 91.2979 224.338C91.0858 224.868 90.7676 225.504 90.5555 226.035C90.4494 225.292 90.3434 224.656 90.4494 224.02C90.5555 223.383 90.1313 222.853 89.4949 222.747C88.8586 222.641 88.3283 223.065 88.2222 223.701C88.0101 224.656 88.1162 225.61 88.2222 226.459V226.565C87.1617 225.929 86.1011 225.186 84.9344 224.868C84.2981 224.656 83.6618 224.974 83.4496 225.61C83.2375 226.247 83.5557 226.883 84.192 227.095C85.2526 227.519 86.3132 228.05 87.2677 228.792C85.995 228.898 84.8284 229.11 83.5557 229.216C82.9193 229.322 82.4951 229.853 82.4951 230.489C82.4951 231.125 83.0254 231.55 83.6617 231.55H83.7678C85.1466 231.444 86.5253 231.231 87.9041 231.125C87.3738 231.974 86.7374 232.928 85.995 233.671C85.5708 234.095 85.6768 234.837 86.1011 235.262C86.3132 235.474 86.6314 235.58 86.8435 235.58C87.1616 235.58 87.4798 235.474 87.6919 235.156C88.5404 234.201 89.0707 233.565 89.4949 232.822Z" fill="white"/>
<path d="M70.4047 245.019C71.041 245.019 71.4653 244.489 71.4653 243.852C71.4653 243.216 71.3592 242.474 71.3592 241.837C72.1016 242.58 72.844 243.322 73.3743 244.276C73.5864 244.595 73.9046 244.807 74.3288 244.807C74.5409 244.807 74.753 244.701 74.9652 244.595C75.4954 244.276 75.7076 243.534 75.2833 243.004C74.753 242.261 74.2227 241.519 73.5864 240.883H76.45C77.0863 240.883 77.6166 240.352 77.5105 239.716C77.5105 239.08 76.9803 238.549 76.3439 238.655L73.0561 238.761C74.0106 237.807 74.9652 236.852 75.9197 235.898C76.3439 235.474 76.3439 234.731 75.8136 234.307C75.3894 233.883 74.647 233.883 74.2228 234.413C73.1622 235.58 71.9955 236.64 70.8289 237.701C70.7229 236.64 70.6168 235.58 70.5107 234.519C70.4047 233.883 69.8744 233.459 69.238 233.459C68.6017 233.565 68.1775 234.095 68.1775 234.731C68.2835 235.262 68.2835 235.898 68.2835 236.428C67.8593 236.004 67.4351 235.58 67.1169 235.156C66.6927 234.625 66.0563 234.519 65.526 234.943C64.9957 235.368 64.8897 236.004 65.3139 236.534C65.9503 237.383 66.6927 238.231 67.5411 238.868L62.9807 238.974C62.3443 238.974 61.814 239.504 61.9201 240.14C61.9201 240.777 62.4504 241.201 63.0867 241.201L66.5866 241.095C65.6321 241.837 64.6776 242.474 63.617 243.216C63.0867 243.534 62.9807 244.276 63.2988 244.807C63.5109 245.125 63.8291 245.337 64.2533 245.337C64.4655 245.337 64.6776 245.231 64.8897 245.125C66.2684 244.276 67.5411 243.322 68.8138 242.261C68.8138 242.792 68.9199 243.428 68.9199 243.958C69.3441 244.595 69.7683 245.019 70.4047 245.019Z" fill="white"/>
<path d="M100.525 251.276L95.8585 251.382C96.4948 250.534 97.0251 249.579 97.6614 248.731C97.9796 248.201 97.8736 247.458 97.3433 247.14C96.813 246.822 96.0706 246.928 95.7524 247.458C95.2221 248.201 94.7979 248.943 94.2676 249.685C94.2676 248.943 94.2676 248.307 94.2676 247.564C94.2676 246.928 93.7373 246.504 93.101 246.504C92.4646 246.504 92.0404 247.034 92.0404 247.67C92.0404 248.519 92.0404 249.261 92.0404 250.11C91.1919 249.367 90.3435 248.625 89.495 247.882C88.9647 247.458 88.3284 247.564 87.9041 247.989C87.4799 248.519 87.586 249.155 88.0102 249.579C88.7526 250.216 89.495 250.852 90.2374 251.488C89.6011 251.488 88.8587 251.594 88.2223 251.701C87.586 251.807 87.2678 252.443 87.3739 253.079C87.4799 253.61 88.0102 253.928 88.4344 253.928C88.5405 253.928 88.6466 253.928 88.6466 253.928C89.2829 253.822 89.9192 253.822 90.6616 253.716H91.298C90.7677 254.458 90.1314 255.094 89.6011 255.837C89.1768 256.261 89.2829 257.003 89.7071 257.428C89.9192 257.64 90.1314 257.64 90.4495 257.64C90.7677 257.64 91.0859 257.534 91.298 257.216C91.5101 256.897 91.8283 256.579 92.0404 256.367C92.0404 257.216 92.0404 258.064 92.0404 259.019C92.0404 259.655 92.5707 260.185 93.101 260.185C93.7373 260.185 94.2676 259.655 94.2676 259.125C94.2676 257.852 94.2676 256.685 94.2676 255.413C94.9039 256.049 95.6463 256.791 96.2827 257.428C96.4948 257.64 96.813 257.746 97.1312 257.746C97.4493 257.746 97.6614 257.64 97.8736 257.428C98.2978 257.003 98.2978 256.261 97.8736 255.837C97.1312 255.094 96.4948 254.458 95.7524 253.716L100.419 253.61C101.055 253.61 101.586 253.079 101.48 252.443C101.586 251.701 101.161 251.276 100.525 251.276Z" fill="white"/>
<path d="M80.4805 259.125C79.632 260.079 78.6775 260.821 77.6169 261.564C77.723 260.079 77.723 258.594 78.0411 257.216C78.1472 256.579 77.723 256.049 77.1927 255.943C76.5563 255.837 76.026 256.261 75.92 256.791C75.7079 257.852 75.6018 259.019 75.4957 260.079C75.3897 259.443 74.7533 259.125 74.2231 259.231C73.5867 259.337 73.1625 259.973 73.3746 260.503C73.5867 261.352 74.0109 262.2 74.4352 262.837H71.3595C70.7232 262.837 70.1929 263.367 70.1929 263.897C70.1929 264.533 70.7232 265.064 71.2534 265.064H72.5261C72.314 265.276 71.6777 265.912 71.5716 266.761C71.5716 267.185 71.6777 267.609 71.9958 268.033C72.208 268.246 72.5261 268.352 72.8443 268.352C73.1625 268.352 73.3746 268.246 73.5867 268.033C73.9049 267.715 74.0109 267.291 73.9049 266.867L74.0109 266.761C74.3291 266.443 74.7533 266.23 75.1776 265.912C75.0715 266.867 74.9655 267.715 74.7533 268.564C74.5412 269.2 74.9655 269.73 75.6018 269.942C75.7079 269.942 75.8139 269.942 75.92 269.942C76.4503 269.942 76.8745 269.624 76.9806 269.094C77.1927 268.458 77.2987 267.821 77.4048 267.291C78.0411 268.246 78.5714 269.2 79.2078 270.048C79.4199 270.367 79.8441 270.579 80.1623 270.579C80.3744 270.579 80.5865 270.579 80.7986 270.367C81.3289 270.048 81.541 269.306 81.2229 268.776C80.4805 267.503 79.632 266.23 78.8896 264.958H79.7381C80.3744 264.958 80.9047 264.427 80.9047 263.897C80.9047 263.367 80.4805 262.837 79.9502 262.731C80.9047 262.094 81.8592 261.246 82.6016 260.397C83.0258 259.973 82.9198 259.231 82.4955 258.806C81.541 258.594 80.9047 258.594 80.4805 259.125Z" fill="white"/>
<path d="M47.072 252.125C46.5417 251.807 45.7993 251.913 45.4811 252.443C45.163 252.973 45.269 253.716 45.7993 254.034C46.2235 254.352 46.6478 254.564 47.072 254.882C46.4357 254.882 45.7993 254.882 45.163 254.882C44.5266 254.882 43.9963 255.413 43.9963 255.943C43.9963 256.579 44.5266 257.109 45.0569 257.109C46.0114 257.109 46.966 257.109 47.9205 257.109C47.1781 257.852 46.5417 258.488 46.1175 258.912C45.6933 259.337 45.7993 260.079 46.2235 260.503C46.4357 260.715 46.6478 260.821 46.9659 260.821C47.2841 260.821 47.6023 260.715 47.8144 260.397C48.2386 259.867 48.981 259.125 49.9356 258.382L50.0416 260.928C50.0416 261.564 50.5719 261.988 51.2083 261.988C51.8446 261.988 52.2688 261.458 52.2688 260.821L52.1628 258.7C52.3749 258.912 52.587 259.125 52.9052 259.337C53.1173 259.549 53.3294 259.655 53.6476 259.655C53.9658 259.655 54.2839 259.549 54.496 259.231C54.9203 258.806 54.8142 258.064 54.39 257.64C54.1779 257.428 53.9657 257.322 53.8597 257.109C54.6021 257.109 55.4506 257.109 56.193 257.109C56.8293 257.109 57.3596 256.579 57.2535 255.943C57.2535 255.306 56.7232 254.776 56.0869 254.882C55.3445 254.882 54.6021 254.882 53.7536 254.882C54.2839 254.352 54.8142 253.822 55.1324 253.397C55.5566 252.973 55.4506 252.231 55.0263 251.807C54.6021 251.382 53.8597 251.488 53.4355 251.913C53.1173 252.337 52.4809 252.867 51.8446 253.503L51.7385 251.17C51.7385 250.534 51.2083 250.11 50.5719 250.11C49.9356 250.11 49.5113 250.64 49.5113 251.276L49.6174 254.034C48.875 253.397 47.9205 252.761 47.072 252.125Z" fill="white"/>
<path d="M42.5113 227.625L42.1931 230.701L40.3902 227.838C40.072 227.307 39.3296 227.201 38.7993 227.519C38.269 227.838 38.0569 228.58 38.4811 229.11L39.8599 231.337L37.9508 230.913C37.3145 230.807 36.7842 231.125 36.5721 231.762C36.466 232.398 36.7842 232.928 37.4206 233.14L40.6023 233.883C39.7538 234.625 38.7993 235.368 37.9508 236.004C37.4206 236.428 37.4206 237.065 37.7387 237.595C37.9509 237.913 38.269 238.019 38.5872 238.019C38.7993 238.019 39.1175 237.913 39.2235 237.807C40.072 237.171 40.8144 236.534 41.6629 235.898C41.5568 237.065 41.2386 238.231 40.8144 239.292C40.6023 239.822 40.8144 240.564 41.4507 240.777C41.5568 240.883 41.7689 240.883 41.875 240.883C42.2992 240.883 42.7234 240.565 42.9356 240.14C43.2537 239.292 43.4658 238.443 43.678 237.595C43.8901 237.913 44.2082 238.125 44.6325 238.125C44.8446 238.125 45.0567 238.019 45.2688 237.913C45.7991 237.595 46.0112 236.852 45.587 236.322L44.6325 234.731L47.2839 235.368C47.39 235.368 47.496 235.368 47.496 235.368C48.0263 235.368 48.4505 235.05 48.5566 234.519C48.6627 233.883 48.3445 233.353 47.7081 233.14L45.4809 232.61C46.4355 231.868 47.2839 231.125 48.2384 230.277C48.6627 229.853 48.7687 229.11 48.3445 228.686C47.9203 228.262 47.1779 228.156 46.7536 228.58C46.0112 229.216 45.1628 229.853 44.4204 230.595L44.6325 227.944C44.7385 227.307 44.2082 226.777 43.5719 226.671C43.0416 226.565 42.5113 226.989 42.5113 227.625Z" fill="white"/>
<path d="M26.3907 247.034C26.4967 247.564 26.7088 247.989 26.8149 248.519C25.9664 247.989 25.118 247.564 24.1635 247.352C23.5271 247.246 22.9968 247.564 22.7847 248.201C22.6787 248.837 22.9968 249.367 23.6332 249.579C24.4816 249.792 25.3301 250.322 26.2846 250.852L26.4967 250.958L24.5877 251.701C24.0574 251.913 23.315 252.231 22.7847 252.867C22.3605 253.397 22.4665 254.034 22.9968 254.458C23.2089 254.67 23.4211 254.67 23.7392 254.67C24.0574 254.67 24.3756 254.564 24.5877 254.246C24.6938 254.034 25.118 253.928 25.4362 253.822L27.6634 252.973C27.3452 254.14 27.027 255.307 26.6028 256.367C26.3907 257.003 26.7088 257.64 27.3452 257.746C27.4513 257.746 27.5573 257.852 27.6634 257.852C28.0876 257.852 28.6179 257.534 28.7239 257.109C28.9361 256.579 29.0421 256.049 29.2542 255.413C29.4663 255.943 29.6785 256.579 29.8906 257.109C30.1027 257.534 30.5269 257.852 30.9512 257.852C31.0572 257.852 31.2693 257.852 31.3754 257.746C31.9057 257.534 32.2238 256.897 32.0117 256.261C31.5875 255.306 31.2693 254.246 30.8451 253.291C31.9057 253.822 33.0723 254.246 34.2389 254.564C34.345 254.564 34.4511 254.67 34.5571 254.67C34.9813 254.67 35.5116 254.352 35.6177 253.928C35.8298 253.291 35.5116 252.655 34.8753 252.549C33.9208 252.231 32.8602 251.807 31.9057 251.382L33.8147 250.64C34.345 250.428 34.6632 249.792 34.4511 249.155C34.2389 248.625 33.6026 248.307 32.9662 248.519L30.8451 249.367C31.0572 248.413 31.3754 247.458 31.5875 246.504C31.6936 245.867 31.3754 245.337 30.739 245.125C30.1027 245.019 29.5724 245.337 29.3603 245.973C29.1482 246.61 29.0421 247.352 28.83 247.989C28.7239 247.564 28.5118 247.034 28.4058 246.61C28.1937 245.973 27.5573 245.655 27.027 245.867C26.6028 245.761 26.2846 246.398 26.3907 247.034Z" fill="white"/>
<path d="M18.2243 233.247C18.4364 234.201 18.6485 235.049 18.7546 236.004C18.8606 236.534 19.2849 236.959 19.8152 236.959C19.9212 236.959 19.9212 236.959 20.0273 236.959C20.6636 236.852 21.0878 236.322 20.9818 235.686C20.8757 235.156 20.7697 234.625 20.6636 234.095C21.7242 234.837 22.8908 235.686 23.9514 236.428C24.1635 236.534 24.3756 236.64 24.5877 236.64C24.9059 236.64 25.3301 236.428 25.5423 236.11C25.8604 235.58 25.7544 234.943 25.2241 234.519C24.0575 233.777 22.8908 232.928 21.8302 232.08C22.7848 231.762 23.7393 231.55 24.6938 231.231C25.3301 231.019 25.6483 230.383 25.4362 229.853C25.2241 229.216 24.5877 228.898 24.0575 229.11C23.4211 229.322 22.7848 229.534 22.1484 229.747C22.5727 229.322 23.1029 228.792 23.5272 228.368C23.9514 227.944 23.9514 227.201 23.5272 226.777C23.1029 226.353 22.3605 226.353 21.9363 226.777C21.1939 227.625 20.3454 228.368 19.497 229.11C19.1788 227.944 18.7546 226.777 18.4364 225.61C18.2243 224.974 17.5879 224.762 16.9516 224.974C16.3153 225.186 16.1031 225.822 16.3153 226.459C16.6334 227.201 16.8455 228.05 17.0577 228.792C16.7395 228.58 16.3153 228.262 15.9971 228.05C15.4668 227.732 14.8305 227.838 14.4062 228.262C14.088 228.792 14.1941 229.428 14.6183 229.853C15.2547 230.277 15.891 230.807 16.5274 231.231C15.6789 231.444 14.8305 231.55 13.982 231.762C13.3456 231.868 12.9214 232.398 13.0275 233.034C13.1335 233.565 13.5578 233.883 13.982 233.989C13.7699 234.307 13.8759 234.837 14.088 235.156C14.3002 235.474 14.6183 235.58 14.9365 235.58C15.1486 235.58 15.4668 235.474 15.5729 235.368C16.6334 234.625 17.3758 233.883 18.2243 233.247Z" fill="white"/>
<path d="M32.8603 210.232C34.027 210.55 35.0875 210.974 36.2542 211.399C35.5118 211.929 34.7694 212.353 34.027 212.565C33.3906 212.777 33.0724 213.414 33.2846 213.944C33.3906 214.368 33.9209 214.686 34.3451 214.686C34.4512 214.686 34.5573 214.686 34.6633 214.58C35.4057 214.368 36.0421 214.05 36.5723 213.626L35.6178 216.489C35.4057 217.126 35.7239 217.762 36.3602 217.974C36.4663 217.974 36.5723 218.08 36.6784 218.08C37.1026 218.08 37.6329 217.762 37.739 217.338L38.6935 214.474C38.6935 214.58 38.7996 214.686 38.7996 214.792C39.0117 215.217 39.4359 215.429 39.8601 215.429C39.9662 215.429 40.1783 215.429 40.2844 215.323C40.8146 215.111 41.1328 214.368 40.8146 213.838C40.7086 213.52 40.6025 213.202 40.3904 212.99C40.8147 213.096 41.3449 213.202 41.7692 213.308C41.8752 213.308 41.8752 213.308 41.9813 213.308C42.5116 213.308 43.0419 212.883 43.0419 212.353C43.1479 211.717 42.7237 211.187 42.0873 211.08C41.5571 210.974 41.1328 210.868 40.6025 210.656C41.451 210.126 42.2995 209.702 43.254 209.384C43.8903 209.171 44.2085 208.535 43.9964 208.005C43.7843 207.368 43.1479 207.05 42.6176 207.262C41.9813 207.475 41.3449 207.687 40.7086 208.005L40.9207 207.368C41.1328 206.732 40.8146 206.096 40.1783 205.884C39.542 205.672 38.9056 205.99 38.6935 206.626L38.2693 207.899C38.2693 207.793 38.1632 207.581 38.1632 207.475C37.9511 206.838 37.3147 206.52 36.7845 206.732C36.1481 206.944 35.8299 207.581 36.0421 208.111C36.1481 208.429 36.2542 208.641 36.3602 208.959C35.2997 208.535 34.2391 208.111 33.0724 207.793C32.4361 207.687 31.9058 208.005 31.6937 208.641C31.4816 209.277 32.224 210.126 32.8603 210.232Z" fill="white"/>
<path d="M14.7247 212.353C15.361 212.459 15.8913 212.565 16.5276 212.671C16.1034 213.096 15.5731 213.52 15.1489 213.944C14.7247 214.368 14.7247 215.111 15.1489 215.535C15.361 215.747 15.6792 215.853 15.9974 215.853C16.3155 215.853 16.5276 215.747 16.7398 215.535C17.0579 215.217 17.3761 214.899 17.6943 214.58C17.3761 215.535 17.0579 216.383 16.7398 217.338C16.5276 217.868 16.8458 218.611 17.3761 218.823C17.4822 218.929 17.6943 218.929 17.8003 218.929C18.2246 218.929 18.6488 218.611 18.8609 218.186C19.3912 216.808 19.8154 215.535 20.2397 214.156L20.9821 215.323C21.1942 215.641 21.6184 215.853 21.9366 215.853C22.1487 215.853 22.3608 215.853 22.4669 215.641C22.9972 215.323 23.2093 214.58 22.8911 214.05L22.679 213.732C23.8456 213.944 24.9062 214.156 26.0728 214.262C26.1789 214.262 26.1789 214.262 26.2849 214.262C26.8152 214.262 27.3455 213.838 27.3455 213.308C27.4516 212.671 27.0273 212.141 26.391 212.035C24.9062 211.823 23.3153 211.505 21.8305 211.293C22.3608 210.868 22.9972 210.55 23.5274 210.126C24.0577 209.808 24.2698 209.065 23.8456 208.535C23.5274 208.005 22.785 207.793 22.2548 208.217C21.9366 208.429 21.5123 208.641 21.1942 208.959C21.3002 208.535 21.3002 208.217 21.4063 207.793C21.5124 207.156 20.9821 206.626 20.4518 206.52C19.8154 206.414 19.2851 206.944 19.1791 207.475C19.1791 207.581 19.1791 207.687 19.073 207.899L18.5427 207.05C18.2246 206.52 17.4822 206.308 16.9519 206.626C16.4216 206.944 16.2095 207.687 16.5276 208.217L18.0124 210.656C17.0579 210.444 15.9974 210.338 15.0428 210.126C14.4065 210.02 13.8762 210.444 13.7701 210.974C13.6641 211.611 14.0883 212.247 14.7247 212.353Z" fill="white"/>
<path d="M72.8441 198.46C72.7373 198.46 72.8441 198.566 72.8441 198.46V198.46Z" fill="white"/>
</svg>
