<svg width="60" height="45" viewBox="0 0 60 45" fill="none" xmlns="http://www.w3.org/2000/svg">
<path fill-rule="evenodd" clip-rule="evenodd" d="M29.9996 -4.40702e-06V0.0999956C30.4996 0.199996 31.0996 0.399996 31.5996 0.299996C31.6996 0.399996 32.1996 0.699996 32.2996 0.399996C34.6996 1.4 37.1996 2.2 39.1996 3.6C39.3996 3.8 39.4996 4 39.6996 4C39.9996 4.2 41.1996 4.9 41.6996 5.4C43.2996 6.8 44.4996 8.3 45.5996 10C45.5996 10.1 45.5996 10.2 45.5996 10.3C45.6996 10.4 45.8996 10.5 45.9996 10.6C46.0996 10.8 46.0996 11 46.1996 11.2C46.3996 11.7 46.8996 12.3 47.1996 12.9C47.6996 14 47.9996 15.2 48.4996 16.4C48.4996 17.2 48.8996 18 48.7996 18.8C49.3996 21.9 48.8996 25 48.3996 28.4C47.7996 29.6 47.8996 30.7 47.1996 31.8C47.7996 31.3 48.7996 30.7 49.0996 30.1C49.1996 30 49.1996 30.1 49.1996 30.2C51.4996 28.2 53.6996 26.4 55.8996 24C55.9996 24.1 55.7996 24.2 55.8996 24.2C55.9996 24.2 55.9996 24 55.9996 23.8C56.3996 24.1 56.0996 24.6 55.7996 24.9C56.1996 24.8 56.5996 24.2 56.7996 23.6C57.2996 23.8 56.6996 24.3 57.1996 24.4C57.0996 24.5 57.0996 24.6 56.9996 24.7C57.5996 24.7 57.1996 24.3 57.6996 24.2C57.9996 24.3 57.4996 24.6 57.5996 24.7C57.6996 24.8 57.7996 24.4 57.7996 24.7C57.9996 24.9 57.6996 25.1 57.5996 25.3C57.2996 25.8 57.2996 26.2 56.9996 26.8C57.5996 26.4 57.5996 25.6 57.8996 25.3C58.0996 25.5 57.8996 25.7 57.8996 25.9C58.0996 26 57.9996 25.7 58.0996 25.6C58.2996 25.6 58.1996 25.8 58.2996 25.9C58.5996 25.6 58.8996 25.2 59.1996 24.9C59.4996 25.3 58.5996 25.7 58.5996 26.2C58.4996 26.3 58.7996 26.3 58.7996 26.4C56.6996 31.9 52.0996 34.5 48.4996 38.2C47.8996 38.6 47.2996 39 46.5996 39.5C46.2996 39.7 45.8996 40 45.6996 40.2C45.6996 40.2 45.6996 40.4 45.5996 40.4C45.3996 40.6 44.9996 40.6 44.7996 40.8C43.9996 41.5 42.8996 42.6 41.7996 43.1C41.6996 43.3 41.7996 43.4 41.5996 43.5C41.3996 43.5 41.1996 43.3 41.1996 43.7C41.0996 43.7 41.0996 43.6 40.9996 43.6C40.8996 43.5 40.8996 44 40.6996 43.7C40.6996 43.9 40.5996 44.1 40.3996 44.2C40.1996 44.1 40.4996 43.8 40.4996 43.7C40.1996 43.6 40.1996 43.6 40.2996 43.4C40.1996 43.4 40.0996 43.6 39.8996 43.4C39.9996 43.2 40.0996 43.1 40.2996 43C40.0996 42.9 40.2996 42.5 40.2996 42.3C39.6996 42.6 39.6996 43.6 39.4996 44.2C39.2996 43.8 39.5996 43.2 39.5996 42.7C39.3996 42.8 39.1996 42.8 39.1996 43.1C39.2996 43.1 39.2996 43.1 39.3996 43.1C39.0996 43.3 38.9996 44 38.9996 44.5C38.6996 43.7 39.0996 42.9 39.1996 42.1C38.8996 42.1 38.9996 42.8 38.6996 43.2C38.3996 42.9 38.6996 42.5 38.4996 42.3C38.0996 42.5 38.4996 43 38.1996 43.2C37.9996 43.2 38.1996 42.9 38.0996 42.8C37.8996 43 38.1996 43.3 37.8996 43.4C37.9996 42.2 38.2996 40.7 37.6996 39.7C37.5996 39.6 37.6996 39.7 37.7996 39.6C37.1996 37.6 36.8996 35.5 36.1996 33.5C35.8996 31.5 35.4996 29.3 34.6996 27.6C34.4996 26.4 33.8996 24.9 33.2996 23.6C33.6996 22.9 32.5996 22.4 33.1996 21.6C33.3996 21.6 33.4996 21.8 33.5996 21.9C33.4996 21.5 33.3996 21.2 33.4996 20.8C33.5996 20.6 33.7996 20.7 33.8996 20.6C34.0996 20.7 33.7996 20.9 33.7996 21C34.0996 21.1 34.0996 21.3 34.2996 21.5C34.1996 21 34.0996 20.4 34.3996 19.8C34.9996 20.4 35.3996 21.1 35.5996 21.8C35.6996 21.3 34.8996 20.5 35.3996 19.8C36.0996 20 37.0996 20.3 37.0996 21C37.1996 21 37.2996 21 37.3996 21C37.7996 21.2 37.8996 21.8 38.2996 22.4C38.3996 22.6 38.6996 22.7 38.7996 22.9C38.7996 23 38.6996 23 38.7996 23.1C38.7996 23.2 38.9996 23.3 39.0996 23.4C39.4996 24.1 39.8996 24.9 39.9996 25.7C40.7996 26.7 40.9996 27.8 41.4996 28.9C41.7996 27.6 41.9996 26.2 42.0996 24.7C42.2996 21.6 41.5996 18.5 40.2996 15.7C40.0996 15.6 40.1996 15.5 39.8996 15.4C40.0996 15.1 39.4996 15 39.6996 14.6C39.2996 14.3 39.2996 13.9 38.7996 13.7C38.7996 13.6 38.7996 13.6 38.7996 13.5C38.1996 13 37.7996 12 37.0996 11.8C36.9996 11.7 37.0996 11.7 37.1996 11.7C36.3996 10.9 34.9996 10.1 33.7996 9.39999C33.5996 9.29999 33.0996 8.89999 32.9996 9.2C33.0996 9 32.4996 8.6 32.5996 9C31.7996 8.39999 30.8996 8.1 29.8996 8.1C29.8996 8.1 29.9996 8.1 29.9996 8C28.5996 7.8 27.1996 7.9 25.7996 7.8C25.5996 7.9 25.6996 8.1 25.3996 8.1C25.2996 8 25.3996 8 25.4996 7.9C23.5996 8 21.8996 8.7 20.0996 8.89999C19.9996 9.09999 19.8996 9.1 19.7996 9.3C19.5996 9.1 18.6996 9.5 18.7996 9.7C18.7996 9 18.3996 9 18.3996 9.39999C18.3996 9.2 18.2996 9.4 18.0996 9.3C16.6996 10.2 15.0996 10.9 13.9996 12.1C13.6996 12.2 13.0996 12.7 12.8996 13C11.2996 14 9.99961 15.5 8.99961 17.5C8.59961 18.2 8.19961 18.8 8.09961 19.5C8.09961 19.6 8.19961 19.8 8.09961 19.8C8.09961 19.9 7.99961 19.7 7.99961 19.7C7.79961 19.9 7.79961 20.3 7.69961 20.6C7.39961 21.5 6.79961 22.8 6.89961 23.3C6.89961 23.3 6.99961 23.3 6.99961 23.2C7.09961 23.3 6.89961 23.3 6.89961 23.4C6.59961 25.2 7.09961 26.7 7.29961 28.4C7.39961 28.5 7.39961 28.4 7.39961 28.4C7.19961 29 7.79961 29.8 7.69961 30.4C8.19961 31.9 8.69961 32.9 9.49961 34.2C9.69961 34.5 9.69961 34.8 9.99961 35.1C10.1996 35.4 10.6996 35.6 10.5996 35.9C10.6996 36 10.7996 36 10.7996 35.9C11.1996 37 12.3996 37.9 12.6996 38.9C13.2996 39.4 13.7996 39.9 14.3996 40.3C14.4996 40.6 14.0996 40.4 13.9996 40.5C13.9996 41 14.6996 41.3 14.5996 41.7C14.2996 41.5 13.9996 41.5 13.6996 41.4C13.7996 41.6 13.9996 41.8 14.0996 42.1C14.0996 42.3 13.6996 42.4 13.9996 42.6C13.5996 42.6 13.2996 42.5 12.8996 42.4C12.8996 42.7 13.1996 42.8 13.4996 42.8C13.4996 43.1 13.2996 42.8 13.1996 42.9C12.9996 43.2 13.4996 43.3 13.4996 43.5C13.1996 43.5 12.1996 43.5 12.0996 43.2C11.8996 43.2 12.0996 43.5 11.8996 43.7C11.4996 43.7 11.2996 43.2 10.8996 43.3C10.8996 43.4 11.1996 43.5 11.1996 43.6C8.69961 42.6 6.49961 40.4 4.49961 38.2C4.49961 37.9 4.19961 37.4 3.79961 37.3C3.79961 36.5 2.49961 35.6 2.69961 34.7C2.49961 34.5 2.19961 34.4 2.49961 34.1C1.49961 33.2 1.79961 32.1 1.19961 31.1C1.09961 29.5 0.399609 28.1 0.299609 26.5C0.199609 26.5 0.199609 26.5 0.199609 26.5C0.0996094 26.1 0.299609 25.2 0.199609 24.8C0.199609 24.8 0.0996094 24.8 0.0996094 24.9C0.699609 24.5 0.0996094 23.9 0.0996094 23.5C0.0996094 23.2 0.299609 23 0.299609 22.7C0.399609 22.2 0.299609 21.6 0.399609 21.1C0.499609 20.8 0.699609 20.6 0.599609 20.3C0.499609 20.2 0.699609 20.2 0.699609 20.1C0.999609 18 1.99961 16 2.89961 13.7C2.99961 13.4 3.39961 12.7 3.69961 12.3C4.99961 10.4 6.69961 8.9 8.29961 7.4C8.49961 7.6 8.49961 7.3 8.69961 7.3C8.89961 6.8 9.69961 6.9 10.0996 6C10.1996 6.3 10.8996 5.6 10.9996 5.4C11.1996 5.3 10.8996 5.5 10.8996 5.6C11.7996 4.8 13.1996 4.5 13.9996 3.5C14.0996 3.5 13.9996 3.6 13.9996 3.6C14.5996 3.3 15.4996 3.2 15.7996 2.6C15.8996 2.6 15.7996 2.7 15.7996 2.7C16.3996 2.5 16.8996 2.1 17.5996 2C17.7996 1.7 18.1996 1.4 18.3996 1.7C19.9996 0.999996 21.8996 0.899996 23.5996 0.199996C23.6996 0.199996 23.6996 0.299996 23.6996 0.399996C24.5996 0.0999956 25.8996 0.0999956 26.6996 -4.40702e-06C26.7996 -0.100004 26.7996 -4.40702e-06 26.7996 -4.40702e-06C27.3996 -4.40702e-06 28.0996 0.299996 28.5996 -4.40702e-06C29.0996 0.199996 29.5996 0.299996 29.9996 -4.40702e-06ZM47.2996 29.4C47.4996 29.6 46.7996 30.4 47.2996 30.2C47.1996 29.6 47.9996 28.6 47.6996 28.2C47.5996 28.6 47.6996 29 47.2996 29.4ZM46.9996 31C46.9996 30.8 47.1996 30.6 47.0996 30.4C46.9996 30.7 46.8996 30.9 46.9996 31ZM46.3996 32.4C46.5996 31.9 46.9996 31.5 46.8996 31C46.6996 31.3 46.4996 32 46.3996 32.4Z" fill="white"/>
</svg>
