<svg width="215" height="141" viewBox="0 0 215 141" fill="none" xmlns="http://www.w3.org/2000/svg">
<path d="M211.151 98.0229C211.793 98.0229 212.434 98.2061 212.984 98.481C213.625 98.7559 214.084 99.2141 214.45 99.8556C214.817 100.497 215 101.047 215 101.78C215 102.421 214.817 103.063 214.542 103.704C214.175 104.346 213.717 104.804 213.167 105.079C212.617 105.445 211.976 105.629 211.243 105.629C210.601 105.629 209.96 105.445 209.318 105.17C208.677 104.804 208.218 104.346 207.943 103.796C207.577 103.246 207.394 102.605 207.394 101.963C207.394 101.322 207.577 100.68 207.852 100.039C208.218 99.3974 208.677 98.9392 209.226 98.6643C209.96 98.2061 210.509 98.0229 211.151 98.0229ZM211.243 98.7559C210.693 98.7559 210.235 98.9392 209.776 99.1225C209.318 99.3974 208.952 99.7639 208.677 100.222C208.402 100.68 208.31 101.23 208.31 101.78C208.31 102.33 208.493 102.788 208.768 103.246C209.043 103.704 209.41 104.071 209.868 104.346C210.326 104.621 210.876 104.712 211.426 104.712C211.976 104.712 212.434 104.529 212.892 104.254C213.35 103.979 213.717 103.613 213.992 103.154C214.267 102.696 214.359 102.146 214.359 101.597C214.359 101.047 214.175 100.589 213.9 100.039C213.625 99.5807 213.259 99.2141 212.801 98.9392C212.251 98.9392 211.701 98.7559 211.243 98.7559ZM209.593 103.888L209.501 99.8556H210.326C211.059 99.8556 211.518 99.8556 211.609 99.8556C211.884 99.8556 212.067 99.9472 212.251 100.039C212.434 100.13 212.526 100.222 212.617 100.405C212.709 100.589 212.801 100.772 212.801 100.955C212.801 101.23 212.709 101.505 212.526 101.688C212.342 101.872 212.067 102.055 211.701 102.055C211.793 102.055 211.884 102.146 211.976 102.238C212.067 102.33 212.159 102.421 212.251 102.513C212.251 102.513 212.342 102.696 212.526 102.971L212.984 103.796H211.976L211.609 103.154C211.334 102.696 211.151 102.421 211.059 102.33C210.876 102.238 210.693 102.146 210.509 102.146H210.326V103.796L209.593 103.888ZM210.326 101.597H210.693C211.151 101.597 211.426 101.597 211.609 101.505C211.701 101.505 211.793 101.413 211.884 101.322C211.976 101.23 211.976 101.138 211.976 101.047C211.976 100.955 211.976 100.864 211.884 100.772C211.793 100.68 211.701 100.589 211.609 100.589C211.518 100.589 211.243 100.497 210.693 100.589H210.326V101.597Z" fill="white"/>
<path fill-rule="evenodd" clip-rule="evenodd" d="M65.4349 112.685V102.513H69.6505V127.988H65.5265V116.442H61.3108C60.3944 113.876 59.1113 112.685 59.1113 112.685H65.4349Z" fill="white"/>
<path fill-rule="evenodd" clip-rule="evenodd" d="M40.5989 107.919C41.0571 106.637 42.0652 105.995 43.4399 105.995C44.8146 105.995 45.8227 106.637 46.2809 107.919C46.5558 108.836 46.7391 109.844 46.7391 110.76C46.7391 111.127 46.7391 111.493 46.7391 111.951C48.4804 110.577 50.13 110.21 50.7715 110.027C50.7715 109.844 50.7715 109.661 50.7715 109.477C50.7715 108.653 50.5882 107.828 50.3133 107.003C49.3969 104.346 47.6556 102.605 44.9062 102.238C41.9736 101.78 39.3159 102.421 37.3913 104.987C36.1083 106.728 35.7417 108.744 35.7417 110.852C35.7417 120.657 35.7417 130.462 35.7417 140.267C35.7417 140.45 35.7417 140.725 35.8333 141C37.0247 140.175 38.1245 139.442 39.2242 138.709C39.7741 138.343 39.9574 137.976 39.9574 137.335C39.9574 128.538 39.9574 119.832 39.9574 111.035C40.1407 110.119 40.324 108.927 40.5989 107.919Z" fill="white"/>
<path fill-rule="evenodd" clip-rule="evenodd" d="M11.9139 111.493C11.9139 111.493 11.9139 97.0149 11.9139 89.8673C13.2886 89.8673 16.0379 89.8673 16.0379 89.8673V128.079H12.2805H11.9139C11.9139 128.079 11.9139 115.434 11.9139 115.25C11.2724 115.25 8.52302 115.25 7.78986 115.25C5.31543 115.25 3.11594 114.517 1.64962 112.501C0.641517 111.127 0.0916454 109.477 0.0916454 107.736C0 101.872 0 89.8673 0 89.8673H4.21569C4.21569 89.8673 4.21569 101.138 4.21569 106.362C4.21569 107.461 4.39898 108.561 4.76556 109.569C5.22378 110.852 6.32353 111.585 7.69821 111.585C8.43137 111.585 11.9139 111.493 11.9139 111.493Z" fill="white"/>
<path fill-rule="evenodd" clip-rule="evenodd" d="M87.3381 122.123C86.605 127.896 80.2814 130.737 75.5159 127.438C73.683 126.155 72.7665 124.139 72.4916 121.94C72.3999 121.115 72.3999 120.29 72.3999 119.466C72.3999 115.892 72.3083 112.318 72.5832 108.744C72.7665 105.812 74.3245 103.429 77.3488 102.513C80.3731 101.597 83.2141 101.872 85.5052 104.254C86.9715 105.812 87.5214 107.736 87.6131 109.844C87.6131 111.86 87.6131 119.832 87.3381 122.123ZM83.3057 115.434C83.3974 113.967 83.3974 112.501 83.3974 111.035C83.3974 110.302 83.3057 109.477 83.2141 108.744C82.8475 107.095 81.7477 106.087 80.2814 105.995C78.6318 105.904 77.4404 106.728 76.8905 108.469C76.7073 108.928 76.6156 109.477 76.6156 109.935C76.6156 113.509 76.6156 117.083 76.6156 120.657C76.6156 121.115 76.7073 121.573 76.7989 122.123C77.3488 124.414 79.4566 125.514 81.3812 124.597C82.7558 123.864 83.2141 122.581 83.3057 121.207C83.3974 119.282 83.3057 117.358 83.3057 115.434Z" fill="white"/>
<path fill-rule="evenodd" clip-rule="evenodd" d="M117.215 122.123C116.848 125.514 114.557 127.988 111.533 128.629C106.859 129.546 102.826 126.705 102.368 121.94C102.093 118.641 102.276 109.386 102.46 108.103C103.193 104.254 106.125 102.055 109.975 102.146C113.915 102.238 116.665 104.712 117.123 108.653C117.489 110.76 117.489 119.832 117.215 122.123ZM113.182 111.035C113.182 110.21 113.09 109.477 112.907 108.744C112.541 107.095 111.441 106.087 110.066 106.087C108.417 105.995 107.317 106.728 106.675 108.469C106.492 109.019 106.4 109.569 106.4 110.119C106.4 113.693 106.4 117.266 106.4 120.84C106.4 121.298 106.492 121.757 106.584 122.306C107.134 124.506 109.241 125.697 111.166 124.689C112.541 124.047 113.182 122.673 113.182 121.298C113.274 119.282 113.182 112.501 113.182 111.035Z" fill="white"/>
<path fill-rule="evenodd" clip-rule="evenodd" d="M205.194 128.263C202.078 128.171 199.329 128.171 196.121 128.171C192.913 128.171 190.622 124.78 190.164 121.39C189.889 119.282 189.981 117.175 190.805 115.159C192.18 111.951 195.021 110.852 197.954 110.76C198.137 110.76 198.32 110.852 198.412 110.943C199.145 112.135 199.787 113.326 200.612 114.609C199.878 114.609 199.329 114.609 198.779 114.609C196.213 114.609 195.021 115.434 194.655 117.908C194.471 119.191 194.563 120.657 194.93 121.94C195.204 123.314 196.304 124.139 197.862 124.231C198.87 124.231 199.787 124.231 200.886 124.231C200.886 123.956 200.978 123.681 200.978 123.406C200.978 119.007 200.978 114.517 200.978 110.119C200.978 109.386 200.886 108.653 200.703 107.92C200.153 105.904 197.679 105.354 196.213 106.453C195.663 106.82 195.113 107.278 194.471 107.828C193.738 107.278 192.455 106.453 191.447 105.812C193.188 103.429 195.938 101.78 198.687 102.055C202.719 102.421 205.194 104.804 205.285 108.744C205.285 115.159 205.194 121.573 205.194 128.263Z" fill="white"/>
<path fill-rule="evenodd" clip-rule="evenodd" d="M30.1512 122.49C31.0677 123.314 31.8925 124.047 32.8089 124.872C31.6176 127.346 28.6849 128.904 25.9355 128.721C21.9948 128.354 19.2454 125.88 18.8788 121.94C18.6956 119.649 18.6956 117.358 18.6956 115.159C18.6956 113.051 18.6956 110.944 18.8788 108.836C19.2454 104.804 21.9948 102.238 26.1188 102.146C29.9679 101.963 33.0839 104.529 33.7254 108.469C34.092 110.76 34.092 113.051 33.0839 115.159C31.7092 118.091 29.1431 119.099 26.4854 119.099C26.3021 119.099 26.0272 119.007 25.9355 118.824C25.294 117.725 24.6525 116.533 23.8277 115.25C24.5609 115.25 25.2024 115.25 25.8439 115.25C28.135 115.25 29.3264 114.242 29.6014 111.952C29.693 110.852 29.693 109.661 29.4181 108.561C29.0515 106.728 27.8601 105.904 26.2105 105.995C24.6525 106.087 23.5528 107.095 23.0945 108.744C23.0029 109.202 22.9112 109.752 22.9112 110.21C22.9112 113.784 22.9112 117.266 22.9112 120.84C22.9112 121.298 23.0029 121.757 23.0945 122.215C23.8277 124.872 26.852 125.697 28.9598 123.773C29.4181 123.498 29.7846 123.039 30.1512 122.49Z" fill="white"/>
<path fill-rule="evenodd" clip-rule="evenodd" d="M135.452 128.079C133.527 119.557 131.603 111.127 129.77 102.605C128.303 102.605 126.837 102.605 125.279 102.605C123.355 111.035 121.522 119.557 119.597 127.988H123.813C125.004 122.031 126.196 116.075 127.387 110.119C127.479 110.119 127.479 110.119 127.57 110.119C127.937 111.677 128.212 113.326 128.578 114.884C129.403 119.099 130.32 123.314 131.144 127.53C131.144 127.713 131.419 128.079 131.603 128.079H135.452Z" fill="white"/>
<path fill-rule="evenodd" clip-rule="evenodd" d="M90.2708 102.605V128.079H94.3948V106.545H98.8854C99.252 106.545 99.4353 106.453 99.6186 106.087C100.077 105.17 101.177 102.605 101.177 102.605H90.2708Z" fill="white"/>
<path fill-rule="evenodd" clip-rule="evenodd" d="M174.035 102.696H178.159C178.159 102.696 178.159 111.127 178.159 111.402C178.25 111.402 178.25 111.402 178.342 111.493C178.434 111.31 182.1 105.812 183.749 103.246C184.024 102.88 184.299 102.696 184.757 102.696C186.132 102.696 187.415 102.696 188.881 102.696C188.698 103.063 184.024 110.027 181.825 113.326C181.55 113.693 181.55 113.967 181.825 114.426C184.574 118.824 190.531 128.354 190.531 128.354H186.865C185.949 128.446 185.49 128.079 185.032 127.346C182.924 123.864 178.434 116.625 178.067 116.167C178.067 120.382 178.067 124.322 178.067 128.263C176.601 128.263 175.318 128.263 173.943 128.263C174.035 115.434 174.035 102.696 174.035 102.696Z" fill="white"/>
<path fill-rule="evenodd" clip-rule="evenodd" d="M60.3945 116.167C60.2112 116.258 58.8366 116.9 58.3783 117.083C56.7287 117.908 55.1707 118.916 53.7044 120.199C53.4295 120.382 53.2462 120.565 52.9712 120.749C51.8715 121.482 50.7718 121.665 49.4887 121.298C48.2973 120.932 47.2892 120.199 46.4644 119.191C46.4644 119.099 46.3728 119.099 46.3728 119.007C46.5561 117.999 47.8391 117.45 48.2057 117.266C49.2138 116.808 50.3135 116.442 51.4133 116.167C51.8715 115.983 53.0629 115.617 53.1545 115.617C51.1383 115.8 49.2138 116.167 47.3809 116.991C46.6477 117.266 46.0978 117.725 45.4563 118.091C43.5318 119.466 42.8903 121.39 42.707 122.123C42.3404 124.414 43.7151 125.788 44.5399 125.788C45.548 125.697 46.2811 125.147 46.4644 124.139C46.6477 123.223 46.5561 120.749 46.6477 120.657C47.7475 121.757 49.947 122.306 50.6801 122.215C50.5885 122.765 50.2219 124.964 49.3971 126.063C48.9389 126.705 46.9227 128.538 44.7232 128.354C43.8984 128.263 42.707 127.896 41.7905 126.338C41.6072 125.605 41.3323 124.689 41.2406 123.864C41.0574 118.366 44.0817 116.991 45.1814 115.892C45.4563 115.709 45.548 115.525 45.6396 115.25C46.5561 112.685 48.8472 111.218 51.5966 110.852C53.7961 110.577 55.7206 111.127 57.4619 112.41C58.6533 113.326 59.6614 114.517 60.3029 115.892C60.3029 115.892 60.3945 115.983 60.3945 116.167Z" fill="white"/>
<path fill-rule="evenodd" clip-rule="evenodd" d="M152.131 115.525C151.673 114.701 151.307 113.784 151.123 112.959C151.856 112.868 152.315 112.776 152.956 112.593C152.956 111.402 152.864 110.394 152.864 109.844C152.773 107.736 152.315 105.812 150.757 104.254C148.466 101.872 145.625 101.597 142.6 102.513C139.576 103.429 138.018 105.72 137.835 108.744C137.56 112.318 137.651 121.115 137.835 121.94C138.11 124.139 139.026 126.063 140.859 127.438C145.533 130.737 152.131 127.988 152.864 122.215C152.956 121.298 153.048 119.282 153.048 117.175C152.681 116.533 152.406 115.983 152.131 115.525ZM148.649 121.207C148.557 122.581 148.007 123.864 146.633 124.597C144.708 125.514 142.6 124.414 142.05 122.215C141.959 121.756 141.867 121.298 141.867 120.749C141.867 117.175 141.867 113.601 141.867 110.027C141.867 109.477 141.959 108.928 142.142 108.469C142.692 106.82 143.792 105.995 145.441 106.087C146.908 106.178 148.007 107.186 148.374 108.836C148.557 109.569 148.557 110.394 148.649 111.127C148.74 112.501 148.74 119.282 148.649 121.207Z" fill="white"/>
<path fill-rule="evenodd" clip-rule="evenodd" d="M58.6529 112.41V102.513H54.4373V109.935C56.5451 110.577 58.2864 112.043 58.6529 112.41Z" fill="white"/>
<path fill-rule="evenodd" clip-rule="evenodd" d="M54.5298 120.932V127.988H58.6538V117.725C56.271 118.733 54.988 120.199 54.5298 120.932Z" fill="white"/>
<path fill-rule="evenodd" clip-rule="evenodd" d="M170.185 108.286C170.094 107.461 170.002 106.637 169.636 105.904C169.086 104.621 168.261 103.704 166.978 103.154C165.97 102.696 164.962 102.605 163.862 102.513C162.487 102.513 155.522 102.513 155.522 102.513V111.677C156.347 111.402 157.263 110.943 157.905 110.577C158.455 110.302 159.371 109.752 159.83 109.477V106.362C159.83 106.362 163.679 106.362 163.954 106.362C164.229 106.362 165.328 106.453 166.245 107.003C167.161 107.553 167.711 108.561 167.894 109.477C168.078 111.035 167.253 113.693 165.053 114.517C163.129 115.25 160.013 115.434 158.821 114.975C162.121 114.792 163.77 114.334 164.595 114.059C164.87 113.967 165.053 113.876 165.328 113.693C165.603 113.601 165.787 113.326 165.787 113.051C165.145 112.043 164.32 111.31 163.312 110.669C162.487 110.119 161.571 110.027 160.654 110.302C160.196 110.394 159.83 110.577 159.371 110.852C158.455 111.31 157.63 111.768 156.714 112.226C156.255 112.41 155.797 112.593 155.339 112.776C154.514 113.051 153.598 113.234 152.773 113.418C152.59 113.509 152.315 113.509 152.131 113.601C152.131 113.784 152.131 113.876 152.223 113.967C153.048 116.167 154.422 117.908 156.622 118.916C157.538 119.374 159.005 119.649 160.654 119.649C161.662 119.649 162.487 119.466 163.22 119.099C166.061 117.908 166.428 115.892 166.703 115.709C167.344 115.159 167.986 114.334 168.444 113.876C168.994 113.326 169.544 112.226 169.727 111.585C169.819 111.218 169.911 110.943 170.002 110.577C170.185 109.752 170.277 109.019 170.185 108.286Z" fill="white"/>
<path fill-rule="evenodd" clip-rule="evenodd" d="M170.644 119.557C170.552 118.641 170.46 117.725 170.186 116.9C169.911 115.983 169.727 115.434 168.994 114.792L168.903 114.701C168.261 114.975 167.345 115.892 166.336 117.725C166.886 118.916 166.978 120.199 166.795 121.482C166.52 123.039 165.145 124.322 163.495 124.322C162.396 124.322 161.204 124.322 160.105 124.322C160.013 124.322 159.921 124.322 159.738 124.322C159.646 123.772 159.738 123.223 159.738 122.673C159.738 122.215 159.738 121.023 159.738 120.382C157.172 120.382 156.072 119.649 155.431 119.099C155.431 120.015 155.431 127.713 155.431 128.171C155.614 128.171 155.706 128.171 155.797 128.171C158.547 128.171 161.204 128.171 163.954 128.171C164.687 128.171 165.42 128.079 166.153 127.896C167.711 127.438 168.903 126.522 169.636 124.964C169.911 124.414 170.094 123.772 170.186 123.131C170.644 121.94 170.644 120.749 170.644 119.557Z" fill="white"/>
<path d="M111.735 83.3937C134.977 83.3937 153.818 64.7254 153.818 41.6968C153.818 18.6683 134.977 0 111.735 0C88.4931 0 69.6519 18.6683 69.6519 41.6968C69.6519 64.7254 88.4931 83.3937 111.735 83.3937Z" fill="white"/>
<path d="M113.397 81.0162C91.5249 81.0162 73.7134 63.4597 73.7134 41.6968C73.7134 20.0254 91.4326 2.37744 113.397 2.37744C135.269 2.37744 153.081 19.934 153.081 41.6968C152.989 63.4597 135.269 81.0162 113.397 81.0162Z" fill="url(#paint0_linear_2_1064)"/>
<path d="M127.424 63.0024C131.3 61.7223 133.976 61.7223 137.668 63.1853C134.069 62.4538 127.608 62.5452 122.256 66.3857C121.61 66.8429 121.056 67.483 120.502 68.1231C120.964 68.1231 121.425 68.2146 121.887 68.306C123.548 66.5686 125.393 65.4713 127.793 65.1056C128.531 68.7632 135.084 68.306 142.374 65.8371C142.467 65.8371 142.467 65.9285 142.559 65.9285C140.529 60.1678 131.484 56.9674 127.424 63.0024Z" fill="white"/>
<path d="M107.305 25.9691C112.658 31.2726 110.627 40.3252 110.627 40.3252C121.148 27.0664 106.105 23.5916 106.105 23.5916C101.03 39.2279 108.413 41.0567 108.413 41.0567C111.458 32.7357 107.305 25.9691 107.305 25.9691Z" fill="white"/>
<path d="M102.783 41.514C102.783 41.514 103.614 31.1812 89.7705 34.3816C89.7705 34.3816 92.2623 43.8914 102.322 42.5198C102.322 42.5198 97.615 36.9419 92.6314 35.7532C92.5391 35.6618 98.261 35.3875 102.783 41.514Z" fill="white"/>
<path d="M85.8944 45.9031C89.4013 46.6346 94.4771 44.7144 94.4771 44.7144C88.8476 40.7824 83.6794 45.9031 83.6794 45.9031C91.0625 52.0296 94.3848 45.4459 94.3848 45.4459C89.309 47.8234 85.8944 45.9031 85.8944 45.9031Z" fill="white"/>
<path d="M126.409 76.6271C126.409 78.5473 124.84 80.1018 122.902 80.1018C120.964 80.1018 119.395 78.5473 119.395 76.6271C119.395 74.7068 120.964 73.1523 122.902 73.1523C124.84 73.1523 126.409 74.7068 126.409 76.6271Z" fill="white"/>
<path d="M140.713 27.615C140.713 27.615 137.944 27.7979 135.545 28.2551C133.699 28.5294 135.268 26.792 135.268 26.792L138.683 21.3056C138.683 21.3056 133.238 24.2317 131.023 23.8659C126.224 22.9515 120.686 25.329 120.04 31.4555C119.394 37.582 115.888 40.3252 115.888 40.3252C115.888 40.3252 91.7081 57.6989 88.2935 60.8993C85.7094 63.3682 83.4022 67.5745 82.4794 69.4947L61.53 81.1076C61.53 81.1076 61.6223 81.6563 62.4529 82.5707C62.9143 83.2108 63.6526 83.4851 64.1141 83.5765C64.3909 83.668 64.7601 83.5765 64.9447 83.4851C67.7133 81.8392 84.7865 71.5978 91.985 67.483C93.0924 66.8429 93.7385 66.5686 94.7536 66.4772L102.69 67.9402C102.69 67.9402 103.06 70.9578 105.644 70.8663C108.32 70.7749 111.458 67.3001 111.458 67.3001C111.458 67.3001 118.656 65.197 125.485 61.2651C136.375 54.8642 134.714 44.3486 134.53 37.9478C134.437 31.5469 140.713 27.615 140.713 27.615Z" fill="white"/>
<path d="M142.282 26.8835C139.883 27.0664 137.483 27.2492 135.914 27.5236C135.545 27.615 135.638 27.4321 135.73 27.3407C136.376 26.2434 139.052 22.1286 139.883 20.757C140.067 20.4827 139.883 20.3912 139.698 20.4827C138.406 20.9399 135.545 22.4029 135.084 22.6772C134.253 23.043 133.053 23.4087 131.946 23.1344C128.07 22.1286 125.301 23.2259 125.301 23.2259C119.21 25.4204 119.579 30.9069 118.287 34.473C117.734 36.0275 116.995 38.5879 114.319 40.9653C112.935 42.2455 110.166 43.6171 109.982 43.6171C93.9234 51.481 71.2206 54.8643 65.868 55.5043C65.1297 55.5958 65.3142 55.9615 65.868 56.3273C68.8212 57.7904 76.5733 61.0822 82.4798 61.9052C82.7566 61.9052 82.7566 62.1795 82.4798 62.2709C78.0499 63.9169 69.744 67.3002 65.6834 68.7632C61.5304 70.3177 63.0993 73.0609 63.0993 73.0609C60.8844 74.7983 61.6227 76.81 62.1764 77.5415C60.423 79.2789 61.3459 81.1991 62.0842 82.1135C62.1764 82.2964 62.6379 82.3878 62.9147 82.2049C65.0374 80.9248 72.9741 75.987 79.7111 72.4208C79.7111 72.4208 93.2774 64.4655 93.7389 64.2826C94.2003 64.0083 94.6617 63.6425 96.4152 63.6425C100.014 63.6425 110.166 62.6367 120.133 55.9615C132.223 47.9148 127.424 36.8505 116.719 40.7824C116.626 40.7824 116.534 40.7824 116.626 40.691C116.995 40.2338 117.734 39.2279 118.657 37.8563C119.303 36.9419 121.148 35.0217 126.87 36.3019C127.055 36.3019 127.239 36.3018 127.424 36.2104C128.162 35.6618 130.285 34.0158 131.392 31.7298C131.577 31.2726 131.3 31.3641 131.208 31.3641C130.193 31.3641 129.27 30.6325 129.177 29.6267C128.993 28.5294 129.823 27.4321 130.931 27.2492C131.3 27.1578 131.577 27.2492 131.946 27.3407C132.223 27.4321 132.223 27.3407 132.315 27.1578C132.5 26.5177 132.869 24.8718 133.515 24.4146C134.161 23.866 135.73 23.3173 137.022 22.7687C137.114 22.7687 137.206 22.7687 137.114 22.9515C136.468 23.866 134.991 26.0605 134.069 28.2551C133.976 28.3465 133.976 28.7123 134.438 28.6209C134.715 28.6209 137.852 28.2551 139.144 28.0722C139.421 28.0722 139.329 28.3465 139.144 28.438C137.299 29.7181 136.468 30.8154 136.468 30.8154C136.468 30.8154 134.161 32.9186 134.069 38.4964C133.976 44.0743 136.376 50.4751 128.254 58.1561C122.348 63.8254 112.566 65.8371 110.997 66.2029C110.812 66.2029 110.72 66.2943 110.628 66.4772C110.074 67.3002 107.951 69.8605 105.367 69.8605C103.706 69.8605 103.521 68.3974 103.521 67.6659C103.521 67.3916 103.429 67.2087 103.06 67.2087C102.137 67.1173 99.8298 66.9344 97.2458 66.7515C97.0612 66.7515 96.7844 66.6601 96.5998 66.6601C95.8615 66.5686 95.4 66.5686 94.9386 66.5686C93.3697 66.5686 93.0928 66.9344 92.6314 67.1173C92.17 67.3002 88.7553 69.5862 88.7553 69.5862C88.7553 69.5862 89.8628 69.0375 90.5088 68.6718C92.3545 67.7574 93.1851 67.7574 94.2926 67.8488C98.1687 68.306 102.506 69.0375 102.506 69.0375C102.506 71.2321 105.367 71.7807 105.367 71.7807C105.367 71.7807 113.581 73.0609 115.15 73.3352C116.719 73.6095 117.18 73.3352 117.18 75.5298C117.18 77.7244 119.118 77.45 119.118 77.45C119.118 77.45 118.195 73.6096 122.071 72.9695C126.501 72.2379 126.778 75.4384 126.778 75.4384C126.778 75.4384 127.424 75.8041 127.701 74.1582C127.978 72.5123 126.778 72.2379 126.778 72.2379C126.316 70.1348 123.548 70.3177 121.517 71.415C119.487 72.4208 116.903 71.8722 116.903 71.8722C116.903 71.8722 110.997 70.7749 110.166 70.592C109.705 70.5006 109.797 70.0434 110.074 69.8605C110.904 69.2204 111.089 69.0375 111.55 68.5803C112.381 67.9402 113.212 67.3916 114.227 67.1173C129.27 62.7281 135.084 54.5899 135.638 47.3661C136.099 39.868 134.345 38.8622 136.376 33.4672C137.391 30.6325 141.082 28.1637 142.559 27.3407C142.836 26.8835 142.559 26.8835 142.282 26.8835ZM90.6934 61.8137C90.5088 61.8137 90.6011 61.7223 90.6934 61.7223C92.9083 61.8137 94.754 61.6309 97.3381 61.1736C101.122 60.5336 108.689 58.8876 116.534 53.5841C116.903 53.3098 117.272 53.0354 117.641 52.8526C117.826 52.7611 117.918 52.7611 118.103 52.7611C118.472 52.8526 118.564 53.3098 118.564 53.6755C118.564 53.8584 118.472 53.9499 118.38 54.1327C113.673 58.1561 106.567 61.1736 99.9221 61.8137C97.3381 61.9966 92.816 62.3624 90.6934 61.8137ZM132.5 28.6209C132.592 28.8037 132.592 28.8952 132.592 29.0781C132.592 29.8096 132.038 30.4497 131.3 30.4497C130.562 30.4497 130.008 29.901 130.008 29.0781C130.008 28.7123 130.193 28.3465 130.469 28.0722C130.746 28.0722 130.562 28.8037 130.931 28.8037C131.392 28.8952 132.315 28.1637 132.5 28.6209Z" fill="url(#paint1_linear_2_1064)"/>
<defs>
<linearGradient id="paint0_linear_2_1064" x1="113.369" y1="2.42545" x2="113.369" y2="81.0295" gradientUnits="userSpaceOnUse">
<stop stop-color="#F9B900"/>
<stop offset="0.3777" stop-color="#F08906"/>
<stop offset="0.7892" stop-color="#E85B0D"/>
<stop offset="0.9956" stop-color="#E5490F"/>
<stop offset="0.9962" stop-color="#E44210"/>
</linearGradient>
<linearGradient id="paint1_linear_2_1064" x1="61.2536" y1="51.345" x2="142.63" y2="51.345" gradientUnits="userSpaceOnUse">
<stop offset="0.0093471" stop-color="#6F3918"/>
<stop offset="0.3217" stop-color="#5D3226"/>
<stop offset="0.8104" stop-color="#260F02"/>
</linearGradient>
</defs>
</svg>
