<svg width="41" height="119" viewBox="0 0 41 119" fill="none" xmlns="http://www.w3.org/2000/svg">
<path d="M40.0051 79.8802C40.2474 76.1648 38.7128 72.2879 35.8051 69.9456C37.8243 68.411 38.7935 65.8264 39.1166 63.4033C40.4089 55.9726 35.1589 47.7342 27.3244 48.2188C27.4859 45.9573 27.4859 43.615 27.0013 41.4343C26.9205 41.0304 26.5975 40.9496 26.2744 40.9496C26.1936 40.5458 26.1128 40.2227 25.8705 39.8996C24.4167 38.365 22.0744 38.7689 20.2167 39.092C21.9129 39.092 26.2744 39.092 25.3052 41.7573C24.8205 42.7266 23.6898 42.9689 22.4783 43.2112C21.2667 43.4535 20.0552 43.5342 18.8437 43.5342C17.3091 43.4535 13.3514 43.4535 13.1091 41.5958C13.1091 41.2727 13.3514 40.7881 13.7552 40.5458C15.2898 39.7381 17.3091 39.8996 19.0052 39.6573C19.086 39.6573 19.086 39.5766 19.0052 39.4958C17.0668 39.1727 15.0475 38.6074 13.1091 39.4958C11.8168 40.2227 11.4937 41.7573 12.2206 42.8881C12.1399 42.9689 12.1399 43.0496 12.0591 43.1304C11.6552 44.9881 11.3322 46.6842 10.9283 48.4611C4.62837 49.5919 -0.621594 56.6188 1.15532 62.9995C1.55916 64.1303 2.36685 65.0995 3.17454 65.7456C3.57838 66.0687 3.90145 66.4725 3.73992 66.9572C3.57838 67.4418 3.33607 67.9264 3.09377 68.411C0.589936 72.934 -2.1562 79.6379 2.60915 83.5955C2.68992 83.9186 2.85146 84.1609 3.17454 84.2417H3.2553C3.65915 84.9686 3.49761 85.7763 3.33607 86.6647C3.013 87.8763 2.77069 89.2493 2.60915 90.6224C2.52839 90.7839 2.52839 90.9455 2.52839 91.107C2.28608 94.1762 2.68992 97.3262 5.11298 99.5877C5.92067 100.395 6.88989 101.042 7.85912 101.607C8.34373 101.849 8.98988 102.011 9.15142 102.415C9.31296 102.818 9.15142 103.384 9.07065 103.868C8.66681 108.311 10.2014 112.995 13.7552 115.903C17.3898 118.891 22.8821 119.295 27.0013 116.791C30.8782 114.368 32.8974 109.118 31.2013 104.918C36.2897 105.161 37.6628 97.1647 36.532 93.2878C36.1282 91.7532 35.482 90.3801 34.5128 89.1686C37.7435 87.2301 39.7628 83.5955 40.0051 79.8802ZM38.1474 79.7994C37.9051 83.1917 36.3705 86.3416 34.109 88.9262C34.0282 89.007 34.0282 89.1686 34.109 89.2493C34.3513 89.8955 34.5128 90.5416 34.6743 91.1878C34.432 91.0262 34.0282 91.107 33.7859 91.3493C33.382 91.7532 32.4936 91.7532 31.7667 91.4301C30.6359 90.7839 29.9897 89.5724 29.5859 88.1993C29.7474 87.0686 29.7474 86.0186 29.5859 84.8878C30.4744 85.0493 31.4436 85.0493 32.4936 84.8878C34.3513 84.6455 35.6436 82.8686 36.6128 81.4148C37.3397 80.2032 37.8243 78.9109 38.0666 77.5379C38.2282 78.3456 38.2282 79.0725 38.1474 79.7994ZM10.3629 102.576C12.4629 103.061 13.6745 100.799 14.3206 98.3762C14.4014 98.6993 14.5629 99.1031 14.7245 99.4262C15.7745 101.445 18.1975 103.303 20.5398 103.222C20.5398 103.222 20.5398 103.222 20.5398 103.303C20.459 103.707 20.3783 104.192 20.2975 104.595C18.6014 110.249 10.7668 108.795 10.3629 102.576ZM14.6437 93.9339C16.4206 93.6108 18.1975 91.9955 18.8437 90.1378C19.086 89.5724 19.2475 89.0878 19.409 88.5224C19.4898 89.2493 19.5706 89.9762 19.8129 90.7032C20.459 92.7224 22.3167 94.8224 24.5782 94.8224C24.0129 96.357 23.4475 97.8916 22.6398 99.2646C22.3167 99.83 21.7513 100.961 21.3475 101.284C20.8629 101.768 20.2167 101.445 19.5706 101.365C16.9052 100.718 15.0475 98.3762 14.6437 95.7108C14.7245 95.0647 14.7245 94.4185 14.6437 93.9339ZM9.07065 64.8572C10.8476 64.2918 12.3822 62.1918 13.2706 59.8495C13.5129 61.3034 14.2398 62.6764 15.6129 63.8072C16.5014 64.6956 17.7129 65.0995 18.9244 65.0187C18.6014 66.2302 18.4398 67.4418 18.5206 68.6533C17.6321 70.9956 15.6937 72.8533 13.0283 73.1763C11.0899 73.4187 9.39373 72.934 8.98988 70.7533C8.50527 68.8956 8.74758 66.8764 9.07065 64.8572ZM23.7706 56.6995C24.1744 58.1534 24.5782 59.5264 25.0629 60.8995C25.2244 61.3841 25.4667 61.9495 25.9513 62.4341C26.4359 62.9187 27.0821 63.161 27.5667 63.3226C28.0513 63.4841 28.5359 63.6457 29.1013 63.8072C29.5051 66.5533 28.3744 69.1379 27.3244 71.6418C26.9205 72.4494 26.5975 73.4994 25.7898 73.7417C24.5782 73.984 22.4783 73.8225 21.509 73.2571C20.7013 72.7725 20.3783 71.8033 20.0552 70.9148C19.8129 70.1071 19.5706 69.2187 19.4898 68.3302C19.7321 67.1995 19.7321 66.0687 19.4898 64.8572C20.2975 64.6956 21.1052 64.2918 21.7513 63.7264C23.8513 61.9495 24.0936 59.2034 23.7706 56.6995ZM18.6821 70.5918C18.8437 71.3994 19.086 72.2071 19.409 73.0148C20.2975 74.9533 22.4783 75.5186 24.4975 75.4379C24.4167 75.9225 24.4167 76.4071 24.3359 76.8917C24.0936 79.1532 23.8513 81.4955 22.236 82.9494C21.509 83.5955 20.7821 83.3532 19.9744 83.1109C16.2591 81.9801 14.3206 78.1032 14.1591 74.3071C16.0168 73.8225 17.7129 72.4494 18.6821 70.5918ZM20.7821 103.384C20.7821 103.303 20.7821 103.303 20.7821 103.384C20.7013 103.303 20.7013 103.303 20.7013 103.222C21.0244 103.222 21.3475 103.142 21.6706 103.061C22.4783 102.738 22.9629 101.849 23.2859 101.203C23.7706 100.153 24.1744 99.1031 24.4975 97.9724C24.4975 98.2147 24.4975 98.3762 24.5782 98.6185C25.1436 101.445 27.2436 104.111 30.2321 104.676C30.3128 104.676 30.4744 104.676 30.6359 104.676C30.3936 105.888 29.5859 106.938 28.6974 107.826C25.0629 111.622 22.0744 110.007 21.1052 106.372C21.3475 105.322 21.3475 104.192 20.7821 103.384ZM20.7821 90.3801C20.0552 88.6839 19.9744 86.6647 19.8937 84.6455C21.9936 85.1301 24.0936 84.2417 24.8205 81.0109C24.8205 80.8494 24.9013 80.6878 24.9013 80.5263C24.9821 80.6878 25.0629 80.9301 25.1436 81.0917C25.9513 83.1917 27.2436 84.2417 28.859 84.7263C28.6974 85.6955 28.6167 86.7455 28.6974 87.7955C28.2936 89.4109 27.6475 90.8647 26.5975 92.157C26.2744 92.4801 25.9513 92.8839 25.709 93.207C23.8513 94.4185 21.5898 92.3185 20.7821 90.3801ZM37.7435 75.3571C37.0974 78.2648 35.6436 80.9302 33.382 82.7878C33.059 83.0301 32.7359 83.1917 32.332 83.1917C31.1205 83.2724 29.1821 83.2724 28.2128 82.7071C26.1936 81.0917 25.2244 78.184 25.0629 75.4379C25.4667 75.4379 25.8705 75.3571 26.2744 75.2763C28.2936 74.5494 28.5359 72.2879 29.2628 70.5918C29.5859 69.5418 29.909 68.411 29.9897 67.2802C30.1513 68.0072 30.2321 68.6533 30.4744 69.3802C30.959 71.3187 32.9782 72.5302 34.6743 71.2379C34.9166 70.9956 35.3205 70.7533 35.5628 70.3494C36.532 71.884 37.2589 73.5802 37.7435 75.3571ZM14.886 44.5035C17.5514 45.0688 23.7706 45.2304 25.709 42.7266C25.7898 44.5842 26.2744 46.4419 26.759 48.2188C26.6782 48.2188 26.5975 48.2188 26.5167 48.2188C25.5475 47.8958 24.659 48.865 24.659 49.6727C24.5782 50.0765 24.659 50.3996 24.659 50.7227C24.659 51.0457 24.5782 51.6111 24.3359 51.6111C24.3359 51.6111 24.2552 51.5303 24.1744 51.4496C24.0129 51.1265 23.609 50.4803 23.3667 50.1573C23.1244 49.7534 22.8013 49.4304 22.236 49.4304C21.6706 49.5111 21.3475 49.915 21.186 50.238C20.7013 50.965 20.459 52.015 20.136 52.7419C19.2475 52.338 18.2783 51.0457 18.1167 49.9957C18.1167 49.0265 16.7437 49.0265 16.6629 49.9957C16.6629 50.8034 16.1783 52.015 15.6937 52.338C15.6937 52.338 15.6129 52.1765 15.5321 52.015C15.2898 51.4496 15.1283 50.5611 14.9668 49.915C14.6437 48.6227 13.5937 48.5419 12.5437 48.865C13.2706 47.2496 13.4322 45.4727 13.0283 43.7765C13.7552 44.2612 14.3206 44.4227 14.886 44.5035ZM13.2706 50.6419C13.1899 50.4804 13.2706 50.4804 13.2706 50.6419V50.6419ZM10.8476 48.9457C10.7668 49.3496 10.686 49.7534 10.6053 50.1573C10.6053 51.3688 12.5437 50.965 13.4322 50.7227C13.836 51.5303 14.4822 52.1765 15.1283 52.8226C15.2091 52.9034 15.3706 53.0649 15.5321 53.0649C15.8552 53.1457 16.1783 52.9034 16.3398 52.6611C16.5821 52.2573 16.9052 51.8534 17.3091 51.5303C18.036 52.1765 18.7629 52.7419 19.5706 53.3073C19.7321 53.388 19.8937 53.5496 20.2975 53.5496C20.8629 53.4688 20.9437 52.9842 21.186 52.6611C21.509 52.1765 21.9936 51.6111 22.3975 51.2073C22.8013 51.5303 23.2052 51.7727 23.609 52.0957C23.7706 52.1765 24.0129 52.338 24.3359 52.338C24.659 52.338 24.9013 52.0957 24.9821 51.9342C25.4667 51.1265 25.8705 48.2996 27.1628 49.4304C27.1628 49.5111 27.2436 49.5111 27.2436 49.5111C27.3244 49.3496 27.3244 49.1881 27.2436 49.0265C27.2436 48.865 27.2436 48.6227 27.2436 48.4611C31.6051 48.865 35.3205 52.0957 36.7743 56.2149C37.582 58.3957 37.7435 60.8187 37.582 63.161C37.4205 65.3418 36.9359 67.6033 35.5628 69.461C35.4012 69.3802 35.2397 69.3802 35.0782 69.461C32.5743 71.0764 31.9282 69.9456 31.282 67.6033C30.8782 66.311 30.3936 65.0995 29.6667 63.888C30.6359 64.0495 31.5244 64.0495 32.4936 63.7264C35.3205 62.5957 36.0474 59.0418 35.6436 56.3765C35.482 55.3265 34.9166 54.1957 34.109 53.5496C34.0282 53.4688 33.7859 53.6303 33.9474 53.7111C35.4012 56.1342 34.5936 59.5265 32.9782 61.6264C31.6859 62.9995 29.6667 62.3533 27.9705 61.9495C27.4859 61.788 27.0821 61.7072 26.8398 61.4649C26.5975 61.2226 26.3552 60.8995 26.1936 60.4149C25.3052 58.638 24.5782 56.6995 23.5282 55.0842V55.0034C23.5282 55.0034 23.5282 54.9226 23.4475 54.9226C23.3667 54.9226 23.3667 55.0034 23.3667 55.0034C23.1244 56.9418 23.0436 58.8803 22.3167 60.4957C21.6706 62.0303 20.136 63.3226 18.6821 63.4033C17.0668 63.4841 15.6129 61.9495 14.7245 60.6572C14.0783 59.688 13.9975 58.4765 13.9975 57.1842C14.0783 56.4572 14.1591 55.8111 14.0783 55.3265C14.0783 55.1649 13.9168 55.1649 13.836 55.2457C13.6745 55.7303 13.5129 56.2149 13.3514 56.6995C12.5437 58.7995 11.4937 60.6572 9.95911 62.2726C9.39373 62.9187 8.74758 63.3226 8.18219 63.2418C6.64759 63.0803 6.00144 61.2226 5.35529 59.7688C4.62837 58.0726 3.90145 56.4572 3.90145 54.5996C3.90145 54.5188 3.82068 54.5188 3.82068 54.438C5.43606 52.015 7.93989 49.915 10.8476 48.9457ZM4.14376 67.0379C4.3053 66.3918 3.90145 65.8264 3.49761 65.4226C1.88224 63.9687 2.04377 61.7072 2.12454 59.688C2.28608 57.9918 2.85146 56.2957 3.73992 54.7611C3.013 57.5072 4.06299 60.4149 5.27452 62.9995C6.40528 64.5341 7.61681 65.0187 8.66681 64.8572C7.37451 67.9264 5.5976 71.3994 2.36685 72.3687C2.77069 70.5918 3.41684 68.8148 4.14376 67.0379ZM2.04377 73.984C4.95145 73.1763 6.64759 70.7533 7.85912 68.0879C7.45528 70.3495 7.69758 72.7725 9.7168 74.0648C11.0091 74.6302 12.3014 74.711 13.4322 74.5494C12.7052 76.9725 11.736 79.3148 10.4437 81.4955C9.07065 84.0801 6.08221 83.6763 3.73992 82.7071C3.57838 82.5455 3.41684 82.5455 3.2553 82.5455C1.80147 79.8802 1.63993 76.8917 2.04377 73.984ZM9.95911 83.7571C10.6053 83.2724 11.0091 82.5455 11.3322 81.8994C12.2206 80.0417 12.9475 78.1032 13.5129 76.1648C13.5937 77.5379 13.836 78.9109 14.4822 80.2032C15.5321 82.3032 17.6321 84.1609 19.7321 84.7263C19.1667 86.5032 18.6014 88.1993 17.7937 89.7339C17.0668 91.0262 15.7745 92.4801 14.2398 92.5608C13.5937 92.5608 13.0283 92.2378 12.5437 91.5916C10.8476 89.5724 9.95911 86.9878 9.87834 84.2417C9.87834 84.0801 9.7168 84.0801 9.63603 84.2417C8.90911 86.907 6.88989 89.4916 4.22453 90.1378C4.14376 88.5224 4.22453 86.907 4.38607 85.2917C4.38607 85.0493 4.38607 84.8878 4.3053 84.6455C6.08221 84.8878 8.34373 85.0494 9.95911 83.7571ZM6.32451 98.6993C5.19375 96.4377 4.5476 94.0147 4.22453 91.5916C5.75913 91.0262 7.05143 89.9762 7.93989 88.6839C8.50527 87.8763 8.90911 87.0686 9.23219 86.1801C9.23219 88.3609 9.95911 90.6224 11.2514 92.3185C12.2206 93.6108 13.3514 94.0147 14.5629 93.9339C14.4822 94.0955 14.4014 94.257 14.3206 94.4185C13.5129 96.357 12.7052 98.2954 11.6552 100.072C11.0091 101.284 10.0399 101.122 8.82834 101.122C8.74757 101.122 8.66681 101.203 8.66681 101.284C7.61681 100.718 6.80913 99.7493 6.32451 98.6993ZM20.459 116.307C13.9168 116.065 8.74758 109.603 9.7168 103.061C9.7168 102.818 9.7168 102.576 9.63603 102.253C9.79757 102.334 9.95911 102.415 10.0399 102.415C10.1206 102.415 10.1206 102.415 10.2014 102.495C9.07065 105.726 11.5745 109.765 15.1283 110.088C16.986 110.33 19.0052 109.684 20.136 108.23C20.2975 108.068 20.3783 107.907 20.5398 107.665C20.8629 108.715 21.4283 109.684 22.3975 110.411C25.709 112.834 29.5859 109.28 30.8782 106.292C30.959 106.049 31.0397 105.888 31.1205 105.645C31.5244 111.703 26.3552 116.953 20.459 116.307ZM34.0282 101.93C33.9474 102.011 33.9474 102.092 33.8666 102.172C33.7859 102.011 33.5436 101.93 33.4628 102.092C31.7667 104.03 29.1013 102.738 27.5667 101.284C25.709 99.6685 25.2244 97.3262 24.9013 94.9031C25.1436 94.9031 25.4667 94.8224 25.709 94.7416C26.5975 94.4185 27.1628 93.6108 27.6475 92.9647C28.2936 92.0762 28.7782 91.0262 29.1821 89.9762C29.7474 91.5916 30.8782 92.9647 32.8167 93.207C33.5436 93.2878 34.3513 93.1262 34.9166 92.6416C34.9166 92.6416 34.9166 92.6416 34.9974 92.5608C35.5628 95.7108 35.3205 98.9416 34.0282 101.93Z" fill="white"/>
<path d="M19.4091 40.3842C17.3899 20.1113 19.7322 -0.242462 20.8629 -20.5154C21.9129 -40.7076 21.2668 -61.1421 17.3899 -81.0112C17.0668 -82.8689 19.8129 -83.515 20.2975 -81.5766C23.4475 -61.3036 22.6398 -40.8691 22.0745 -20.4346C21.7514 -2.74629 20.7822 22.5343 19.9745 40.3842C19.9745 40.5457 19.8129 40.6265 19.6514 40.6265C19.5706 40.6265 19.4091 40.5457 19.4091 40.3842Z" fill="white"/>
<path d="M18.036 40.5458C14.4821 20.4343 16.1783 -0.161667 16.4206 -20.5154C16.986 -40.8691 16.1783 -61.2228 13.5129 -81.415C13.2706 -83.1919 16.0168 -83.6765 16.2591 -81.8188C16.5014 -66.4728 16.9052 -51.1267 17.4706 -35.7807C17.7937 -26.8961 18.359 -13.9731 18.2783 -5.2501C18.1975 4.92676 17.7129 15.1036 17.7129 25.2805C17.7937 30.3689 17.9552 35.4573 18.359 40.465C18.359 40.5457 18.2783 40.7073 18.1975 40.7073C18.1975 40.7073 18.1167 40.6265 18.036 40.5458Z" fill="white"/>
</svg>
