<svg width="60" height="300" viewBox="0 0 60 300" fill="none" xmlns="http://www.w3.org/2000/svg">
<path d="M59.4498 242.049C59.8098 236.528 57.5293 230.766 53.2084 227.286C56.209 225.005 57.6494 221.164 58.1295 217.563C60.0499 206.521 52.2482 194.278 40.6056 194.998C40.8456 191.638 40.8456 188.157 40.1255 184.916C40.0054 184.316 39.5253 184.196 39.0452 184.196C38.9252 183.596 38.8052 183.116 38.4451 182.636C36.2846 180.355 32.8038 180.955 30.0432 181.435C32.5638 181.435 39.0452 181.435 37.6049 185.396C36.8847 186.837 35.2043 187.197 33.4039 187.557C31.6035 187.917 29.8031 188.037 28.0027 188.037C25.7222 187.917 19.8409 187.917 19.4808 185.156C19.4808 184.676 19.8409 183.956 20.441 183.596C22.7216 182.396 25.7222 182.636 28.2428 182.276C28.3628 182.276 28.3628 182.156 28.2428 182.036C25.3622 181.555 22.3615 180.715 19.4808 182.036C17.5604 183.116 17.0803 185.396 18.1605 187.077C18.0405 187.197 18.0405 187.317 17.9205 187.437C17.3204 190.197 16.8402 192.718 16.2401 195.359C6.87802 197.039 -0.923724 207.481 1.71687 216.963C2.317 218.644 3.51727 220.084 4.71754 221.044C5.31767 221.524 5.79778 222.124 5.55772 222.845C5.31767 223.565 4.95759 224.285 4.59751 225.005C0.876679 231.727 -3.20423 241.689 3.87735 247.57C3.99738 248.05 4.23743 248.41 4.71754 248.53H4.83756C5.4377 249.611 5.19764 250.811 4.95759 252.131C4.47748 253.932 4.1174 255.972 3.87735 258.013C3.75732 258.253 3.75732 258.493 3.75732 258.733C3.39724 263.294 3.99738 267.975 7.59818 271.336C8.79845 272.536 10.2388 273.496 11.6791 274.336C12.3993 274.696 13.3595 274.936 13.5995 275.536C13.8396 276.137 13.5995 276.977 13.4795 277.697C12.8794 284.298 15.1599 291.26 20.441 295.581C25.8423 300.022 34.0041 300.622 40.1255 296.901C45.8867 293.3 48.8874 285.499 46.3668 279.257C53.9285 279.617 55.969 267.735 54.2886 261.973C53.6885 259.693 52.7283 257.652 51.2879 255.852C56.089 252.971 59.0897 247.57 59.4498 242.049ZM56.6891 241.929C56.3291 246.97 54.0486 251.651 50.6878 255.492C50.5678 255.612 50.5678 255.852 50.6878 255.972C51.0479 256.932 51.2879 257.892 51.528 258.853C51.1679 258.613 50.5678 258.733 50.2077 259.093C49.6076 259.693 48.2873 259.693 47.207 259.213C45.5267 258.253 44.5664 256.452 43.9663 254.412C44.2064 252.731 44.2064 251.171 43.9663 249.491C45.2866 249.731 46.7269 249.731 48.2873 249.491C51.0479 249.131 52.9683 246.49 54.4086 244.329C55.4889 242.529 56.209 240.609 56.5691 238.568C56.8092 239.768 56.8092 240.849 56.6891 241.929ZM15.3999 275.776C18.5206 276.497 20.321 273.136 21.2812 269.535C21.4013 270.015 21.6413 270.615 21.8814 271.095C23.4417 274.096 27.0425 276.857 30.5233 276.737C30.5233 276.737 30.5233 276.737 30.5233 276.857C30.4033 277.457 30.2832 278.177 30.1632 278.777C27.6427 287.179 16.0001 285.019 15.3999 275.776ZM21.7613 262.934C24.4019 262.454 27.0425 260.053 28.0027 257.292C28.3628 256.452 28.6029 255.732 28.8429 254.892C28.963 255.972 29.083 257.052 29.4431 258.133C30.4033 261.133 33.1639 264.254 36.5246 264.254C35.6845 266.534 34.8443 268.815 33.644 270.855C33.1639 271.696 32.3237 273.376 31.7236 273.856C31.0034 274.576 30.0432 274.096 29.083 273.976C25.1221 273.016 22.3615 269.535 21.7613 265.574C21.8814 264.614 21.8814 263.654 21.7613 262.934ZM13.4795 219.724C16.1201 218.884 18.4006 215.763 19.7209 212.282C20.081 214.443 21.1612 216.483 23.2017 218.164C24.522 219.484 26.3224 220.084 28.1228 219.964C27.6427 221.764 27.4026 223.565 27.5226 225.365C26.2023 228.846 23.3217 231.607 19.3608 232.087C16.4802 232.447 13.9596 231.727 13.3595 228.486C12.6393 225.725 12.9994 222.725 13.4795 219.724ZM35.3244 207.601C35.9245 209.762 36.5246 211.802 37.2448 213.843C37.4849 214.563 37.8449 215.403 38.5651 216.123C39.2853 216.843 40.2455 217.203 40.9656 217.443C41.6858 217.684 42.406 217.924 43.2461 218.164C43.8463 222.245 42.1659 226.085 40.6056 229.806C40.0054 231.006 39.5253 232.567 38.325 232.927C36.5246 233.287 33.4039 233.047 31.9636 232.207C30.7634 231.487 30.2832 230.046 29.8031 228.726C29.4431 227.526 29.083 226.205 28.963 224.885C29.323 223.205 29.323 221.524 28.963 219.724C30.1632 219.484 31.3635 218.884 32.3237 218.044C35.4444 215.403 35.8045 211.322 35.3244 207.601ZM27.7627 228.246C28.0027 229.446 28.3628 230.646 28.8429 231.847C30.1632 234.727 33.4039 235.568 36.4046 235.447C36.2846 236.168 36.2846 236.888 36.1646 237.608C35.8045 240.969 35.4444 244.449 33.0439 246.61C31.9636 247.57 30.8834 247.21 29.6831 246.85C24.1619 245.17 21.2812 239.408 21.0412 233.767C23.8018 233.047 26.3224 231.006 27.7627 228.246ZM30.8834 276.977C30.8834 276.857 30.8834 276.857 30.8834 276.977C30.7634 276.857 30.7634 276.857 30.7634 276.737C31.2435 276.737 31.7236 276.617 32.2037 276.497C33.4039 276.017 34.1241 274.696 34.6042 273.736C35.3244 272.176 35.9245 270.615 36.4046 268.935C36.4046 269.295 36.4046 269.535 36.5246 269.895C37.3648 274.096 40.4855 278.057 44.9265 278.897C45.0466 278.897 45.2866 278.897 45.5267 278.897C45.1666 280.698 43.9663 282.258 42.646 283.578C37.2448 289.219 32.8038 286.819 31.3635 281.418C31.7236 279.857 31.7236 278.177 30.8834 276.977ZM30.8834 257.652C29.8031 255.132 29.6831 252.131 29.5631 249.131C32.6838 249.851 35.8045 248.53 36.8847 243.729C36.8847 243.489 37.0047 243.249 37.0047 243.009C37.1248 243.249 37.2448 243.609 37.3648 243.849C38.5651 246.97 40.4855 248.53 42.8861 249.251C42.646 250.691 42.526 252.251 42.646 253.812C42.0459 256.212 41.0857 258.373 39.5253 260.293C39.0452 260.773 38.5651 261.373 38.205 261.853C35.4444 263.654 32.0837 260.533 30.8834 257.652ZM56.089 235.327C55.1288 239.648 52.9683 243.609 49.6076 246.37C49.1275 246.73 48.6474 246.97 48.0472 246.97C46.2468 247.09 43.3662 247.09 41.9259 246.25C38.9252 243.849 37.4849 239.528 37.2448 235.447C37.8449 235.447 38.4451 235.327 39.0452 235.207C42.0459 234.127 42.406 230.766 43.4862 228.246C43.9663 226.686 44.4464 225.005 44.5664 223.325C44.8065 224.405 44.9265 225.365 45.2866 226.445C46.0068 229.326 49.0074 231.127 51.528 229.206C51.8881 228.846 52.4882 228.486 52.8483 227.886C54.2886 230.166 55.3689 232.687 56.089 235.327ZM22.1214 189.477C26.0823 190.317 35.3244 190.557 38.205 186.837C38.325 189.597 39.0452 192.358 39.7654 194.998C39.6453 194.998 39.5253 194.998 39.4053 194.998C37.965 194.518 36.6447 195.959 36.6447 197.159C36.5246 197.759 36.6447 198.239 36.6447 198.719C36.6447 199.199 36.5246 200.04 36.1646 200.04C36.1646 200.04 36.0445 199.92 35.9245 199.8C35.6845 199.319 35.0843 198.359 34.7242 197.879C34.3642 197.279 33.8841 196.799 33.0439 196.799C32.2037 196.919 31.7236 197.519 31.4835 197.999C30.7634 199.079 30.4033 200.64 29.9232 201.72C28.6029 201.12 27.1626 199.199 26.9225 197.639C26.9225 196.199 24.882 196.199 24.762 197.639C24.762 198.839 24.0419 200.64 23.3217 201.12C23.3217 201.12 23.2017 200.88 23.0816 200.64C22.7216 199.8 22.4815 198.479 22.2415 197.519C21.7613 195.599 20.201 195.479 18.6406 195.959C19.7209 193.558 19.9609 190.918 19.3608 188.397C20.4411 189.117 21.2812 189.357 22.1214 189.477ZM19.7209 198.599C19.6009 198.359 19.7209 198.359 19.7209 198.599V198.599ZM16.1201 196.079C16.0001 196.679 15.88 197.279 15.76 197.879C15.76 199.679 18.6406 199.079 19.9609 198.719C20.5611 199.92 21.5213 200.88 22.4815 201.84C22.6015 201.96 22.8416 202.2 23.0816 202.2C23.5617 202.32 24.0419 201.96 24.2819 201.6C24.642 201 25.1221 200.4 25.7222 199.92C26.8025 200.88 27.8827 201.72 29.083 202.56C29.323 202.68 29.5631 202.92 30.1632 202.92C31.0034 202.8 31.1234 202.08 31.4835 201.6C31.9636 200.88 32.6838 200.04 33.2839 199.439C33.8841 199.92 34.4842 200.28 35.0843 200.76C35.3244 200.88 35.6845 201.12 36.1646 201.12C36.6447 201.12 37.0047 200.76 37.1248 200.52C37.8449 199.319 38.4451 195.118 40.3655 196.799C40.3655 196.919 40.4855 196.919 40.4855 196.919C40.6056 196.679 40.6056 196.439 40.4855 196.199C40.4855 195.959 40.4855 195.599 40.4855 195.359C46.967 195.959 52.4882 200.76 54.6487 206.881C55.849 210.122 56.089 213.723 55.849 217.203C55.6089 220.444 54.8887 223.805 52.8483 226.565C52.6082 226.445 52.3682 226.445 52.1281 226.565C48.4073 228.966 47.4471 227.286 46.4869 223.805C45.8867 221.884 45.1666 220.084 44.0863 218.284C45.5267 218.524 46.847 218.524 48.2873 218.044C52.4882 216.363 53.5685 211.082 52.9683 207.121C52.7283 205.561 51.8881 203.88 50.6878 202.92C50.5678 202.8 50.2077 203.04 50.4478 203.16C52.6082 206.761 51.408 211.802 49.0074 214.923C47.087 216.963 44.0863 216.003 41.5658 215.403C40.8456 215.163 40.2455 215.043 39.8854 214.683C39.5253 214.323 39.1652 213.843 38.9252 213.122C37.6049 210.482 36.5246 207.601 34.9643 205.201V205.081C34.9643 205.081 34.9643 204.961 34.8443 204.961C34.7242 204.961 34.7242 205.081 34.7242 205.081C34.3642 207.961 34.2441 210.842 33.1639 213.243C32.2037 215.523 29.9232 217.443 27.7627 217.563C25.3622 217.684 23.2017 215.403 21.8814 213.483C20.9212 212.042 20.8011 210.242 20.8011 208.321C20.9212 207.241 21.0412 206.281 20.9212 205.561C20.9212 205.321 20.6811 205.321 20.5611 205.441C20.321 206.161 20.081 206.881 19.8409 207.601C18.6406 210.722 17.0803 213.483 14.7998 215.883C13.9596 216.843 12.9994 217.443 12.1592 217.323C9.87869 217.083 8.91848 214.323 7.95826 212.162C6.87802 209.642 5.79778 207.241 5.79778 204.481C5.79778 204.361 5.67775 204.361 5.67775 204.241C8.07829 200.64 11.7991 197.519 16.1201 196.079ZM6.15786 222.965C6.39791 222.004 5.79778 221.164 5.19764 220.564C2.79711 218.404 3.03716 215.043 3.15719 212.042C3.39724 209.522 4.23743 207.001 5.55772 204.721C4.47748 208.802 6.03783 213.122 7.83823 216.963C9.51861 219.244 11.319 219.964 12.8794 219.724C10.9589 224.285 8.31834 229.446 3.51727 230.886C4.1174 228.246 5.07762 225.605 6.15786 222.965ZM3.03716 233.287C7.35813 232.087 9.87869 228.486 11.6791 224.525C11.079 227.886 11.439 231.487 14.4397 233.407C16.3601 234.247 18.2806 234.367 19.9609 234.127C18.8807 237.728 17.4404 241.209 15.5199 244.449C13.4795 248.29 9.0385 247.69 5.55772 246.25C5.31767 246.01 5.07762 246.01 4.83756 246.01C2.67708 242.049 2.43703 237.608 3.03716 233.287ZM14.7998 247.81C15.76 247.09 16.3601 246.01 16.8402 245.05C18.1605 242.289 19.2408 239.408 20.081 236.528C20.201 238.568 20.5611 240.609 21.5213 242.529C23.0816 245.65 26.2023 248.41 29.323 249.251C28.4828 251.891 27.6427 254.412 26.4424 256.692C25.3622 258.613 23.4417 260.773 21.1612 260.893C20.201 260.893 19.3608 260.413 18.6406 259.453C16.1201 256.452 14.7998 252.611 14.6798 248.53C14.6798 248.29 14.4397 248.29 14.3197 248.53C13.2394 252.491 10.2388 256.332 6.27788 257.292C6.15786 254.892 6.27789 252.491 6.51794 250.091C6.51794 249.731 6.51794 249.491 6.39791 249.131C9.0385 249.491 12.3993 249.731 14.7998 247.81ZM9.39858 270.015C7.71821 266.654 6.75799 263.054 6.27788 259.453C8.55839 258.613 10.4788 257.052 11.7991 255.132C12.6393 253.932 13.2394 252.731 13.7195 251.411C13.7195 254.652 14.7998 258.013 16.7202 260.533C18.1605 262.454 19.8409 263.054 21.6413 262.934C21.5213 263.174 21.4013 263.414 21.2812 263.654C20.081 266.534 18.8807 269.415 17.3204 272.056C16.3601 273.856 14.9198 273.616 13.1194 273.616C12.9994 273.616 12.8794 273.736 12.8794 273.856C11.319 273.016 10.1187 271.576 9.39858 270.015ZM30.4033 296.181C20.6811 295.821 12.9994 286.219 14.4397 276.497C14.4397 276.137 14.4397 275.776 14.3197 275.296C14.5597 275.416 14.7998 275.536 14.9198 275.536C15.0398 275.536 15.0398 275.536 15.1599 275.656C13.4795 280.458 17.2003 286.459 22.4815 286.939C25.2421 287.299 28.2428 286.339 29.9232 284.178C30.1632 283.938 30.2832 283.698 30.5233 283.338C31.0034 284.899 31.8436 286.339 33.2839 287.419C38.205 291.02 43.9663 285.739 45.8867 281.298C46.0068 280.938 46.1268 280.698 46.2468 280.338C46.847 289.34 39.1652 297.141 30.4033 296.181ZM50.5678 274.816C50.4478 274.936 50.4478 275.056 50.3277 275.176C50.2077 274.936 49.8476 274.816 49.7276 275.056C47.207 277.937 43.2461 276.017 40.9656 273.856C38.205 271.456 37.4849 267.975 37.0047 264.374C37.3648 264.374 37.8449 264.254 38.205 264.134C39.5253 263.654 40.3655 262.453 41.0857 261.493C42.0459 260.173 42.766 258.613 43.3662 257.052C44.2064 259.453 45.8867 261.493 48.7674 261.853C49.8476 261.973 51.0479 261.733 51.8881 261.013C51.8881 261.013 51.8881 261.013 52.0081 260.893C52.8483 265.574 52.4882 270.375 50.5678 274.816Z" fill="white"/>
<path d="M28.843 183.356C25.8424 153.229 29.3231 122.982 31.0035 92.8557C32.5639 62.849 31.6037 32.4822 25.8424 2.95557C25.3623 0.194951 29.4432 -0.765264 30.1633 2.11538C34.8444 32.2421 33.6441 62.6089 32.8039 92.9757C32.3238 119.262 30.8835 156.83 29.6832 183.356C29.6832 183.596 29.4432 183.716 29.2031 183.716C29.0831 183.716 28.843 183.596 28.843 183.356Z" fill="white"/>
<path d="M26.8026 183.596C21.5214 153.709 24.042 123.102 24.402 92.8556C25.2422 62.6089 24.042 32.3621 20.0811 2.35543C19.721 -0.285161 23.8019 -1.00532 24.162 1.7553C24.5221 24.5604 25.1222 47.3655 25.9624 70.1706C26.4425 83.3735 27.2827 102.578 27.1626 115.541C27.0426 130.664 26.3225 145.787 26.3225 160.911C26.4425 168.473 26.6825 176.034 27.2827 183.476C27.2827 183.596 27.1626 183.836 27.0426 183.836C27.0426 183.836 26.9226 183.716 26.8026 183.596Z" fill="white"/>
</svg>
