<svg width="47" height="45" viewBox="0 0 47 45" fill="none" xmlns="http://www.w3.org/2000/svg">
<path d="M36.4216 8.57699C36.0694 8.46282 35.7172 8.46282 35.2476 8.57699C34.1909 8.34865 33.3691 9.26199 33.1343 10.1753C32.8995 11.5453 33.3691 13.372 34.8954 13.8287C35.2476 14.057 35.7172 14.1712 36.1868 14.057C36.7738 13.9429 37.2434 13.4862 37.5956 13.0295C37.9479 12.4587 38.0653 12.002 38.1827 11.317C38.3001 10.0612 37.5956 8.91949 36.4216 8.57699Z" fill="white"/>
<path d="M46.7537 27.7571C46.6363 24.6746 46.4015 21.5921 46.2841 18.5095C46.1667 15.6554 46.1667 12.8012 45.6971 10.0611C45.2275 7.4353 43.936 5.15195 41.8228 3.5536C39.5921 1.84109 36.657 1.38442 33.9568 1.15608C27.617 0.699411 21.2772 0.699411 14.9374 0.699411C14.82 0.356909 14.4678 0.0144059 13.8808 0.0144059C9.53685 -0.213929 6.24955 2.29776 3.66668 5.72278C0.379381 10.0611 0.261979 15.0845 0.614189 19.9937C0.9664 25.1313 0.614193 32.2097 2.72745 37.1189C4.60591 41.5714 7.07138 42.4847 11.7675 43.7406C17.2855 45.2248 22.9208 44.6539 28.5562 44.4256C31.3739 44.3114 34.1916 44.7681 36.8918 44.3114C39.0051 43.9689 41.1184 42.9414 42.762 41.4572C46.7537 38.0322 46.9885 32.8947 46.7537 27.7571ZM39.9443 37.1189C37.3615 40.4297 31.4913 39.7447 27.7344 39.8589C23.1556 39.973 18.4595 40.4297 13.8808 39.4022C11.8849 38.9455 9.30204 38.2605 8.12801 36.4338C6.95397 34.7213 6.48435 32.3238 6.13214 30.2688C5.66253 27.5288 5.77994 17.482 5.89734 15.0845C5.89734 13.7145 6.24956 11.7737 6.83657 9.83281C7.07138 9.71865 7.18878 9.60448 7.30618 9.37614C8.24541 7.4353 9.65425 5.60862 11.8849 5.49445C14.3504 5.26611 16.6985 5.26611 19.1639 5.15194C23.7427 4.92361 28.5562 4.46694 33.1349 5.15194C35.1308 5.38028 37.2441 5.95112 38.8877 7.09279C40.5313 8.34864 41.2358 10.4037 41.4706 12.3445C41.9402 16.797 41.588 21.3637 41.588 25.8163C41.588 29.3555 42.2924 34.1505 39.9443 37.1189Z" fill="white"/>
<path d="M34.8953 17.5962C33.8387 15.1987 31.8428 13.2578 29.3773 12.2303C27.4989 11.4311 24.7986 10.7461 22.6853 11.4311C18.1066 11.5453 13.9975 14.6278 12.9409 18.9662C12.8235 19.3087 12.8235 19.7654 12.7061 20.1079C12.7061 20.222 12.7061 20.222 12.7061 20.3362C12.7061 20.4504 12.7061 20.5646 12.7061 20.6787C12.7061 21.1354 12.7061 21.4779 12.7061 21.9346C12.8235 24.3321 13.2931 26.7296 14.4671 28.7846C15.4063 30.383 16.8152 31.753 18.5762 32.5521C20.5721 33.808 23.0375 34.6072 25.2682 34.1505C27.6163 33.6938 29.8469 32.2096 31.4906 30.6113C35.1301 27.4146 37.0085 22.2771 34.8953 17.5962ZM30.9036 24.9029C30.434 25.5879 29.7295 26.2729 29.1425 26.8438C28.0859 27.8713 26.9119 29.0129 25.503 29.698C24.0942 29.8121 22.6853 29.5838 21.3939 29.1271C19.5154 28.3279 18.6936 26.8438 17.8718 25.2454C16.9326 23.1904 16.6978 21.2496 17.8718 19.1945C18.811 17.5962 20.2199 16.3404 21.6287 15.3128C24.6812 14.5137 28.2033 15.5412 30.0818 18.167C31.021 19.4229 31.4906 21.0212 31.4906 22.6196C31.4906 23.4187 31.3732 24.2179 30.9036 24.9029Z" fill="white"/>
</svg>
