<svg width="27" height="45" viewBox="0 0 27 45" fill="none" xmlns="http://www.w3.org/2000/svg">
<path d="M23.489 7.09282C21.2584 2.29778 15.5056 -0.442237 10.2225 1.15611C9.98765 1.27028 9.75285 1.38444 9.63544 1.49861C5.64373 3.43946 2.70864 7.09282 2.35643 11.5454C1.88681 16.3404 4.58709 21.0213 9.16583 22.9621C13.6272 24.7888 18.6755 23.5329 21.728 19.8796C24.8979 16.2262 25.4849 11.317 23.489 7.09282ZM16.797 16.1121C15.7404 17.3679 13.7446 18.0529 12.1009 17.4821C10.3399 16.9112 9.04842 15.3129 8.93102 13.4862C8.81362 11.7737 9.87025 9.94701 11.3965 9.14784C11.5139 9.14784 11.5139 9.14784 11.6313 9.03367C11.7487 9.03367 11.7487 8.9195 11.8661 8.9195C12.8053 8.46283 13.9794 8.2345 15.036 8.577C16.21 8.9195 16.9144 9.83284 17.3841 10.8603C17.9711 12.5729 17.9711 14.6279 16.797 16.1121Z" fill="white"/>
<path d="M25.6029 29.013C26.7769 27.0721 26.1899 23.7613 23.3722 23.5329C21.9634 23.4188 20.6719 24.3321 19.4979 24.9029C17.9717 25.5879 16.5628 26.1588 14.9192 26.273C11.6319 26.3871 8.462 25.0171 5.64431 23.6471C5.52691 23.3046 5.1747 23.0763 4.58768 23.0763C2.70923 23.3046 0.361161 23.8754 0.126354 26.0446C-0.108453 28.2138 1.8874 30.4972 3.53105 31.753C4.35287 32.438 5.4095 32.8947 6.46613 33.2372C6.70094 33.3513 6.93575 33.3513 7.05315 33.4655C6.58354 34.0363 6.23133 34.8355 5.76172 35.5205C5.0573 36.6622 4.23547 37.6897 3.41365 38.7172C2.59182 39.6306 1.77 40.6581 1.88741 42.0281C2.00481 44.4256 4.70509 45.3389 6.81835 44.7681C9.04901 44.0831 11.1623 42.4847 12.5711 40.6581C12.9233 40.2014 13.2755 39.6306 13.6277 39.1739C13.6277 39.0597 13.8626 38.8314 13.8626 38.7172C13.98 38.8314 14.4496 39.0597 14.4496 39.0597C15.5062 39.7447 16.5628 40.6581 17.3847 41.5714C18.7935 43.1698 19.8501 45.7956 22.433 44.7681C25.0159 43.7406 24.8985 40.4297 24.0766 38.2605C23.2548 36.3197 21.846 34.8355 20.3197 33.5797C22.1982 32.438 24.4289 30.9538 25.6029 29.013Z" fill="white"/>
</svg>
