<svg width="43" height="26" viewBox="0 0 43 26" fill="none" xmlns="http://www.w3.org/2000/svg">
<path d="M42.0586 20.6388C40.8846 19.0405 39.0061 18.2413 37.4799 16.9854C36.658 16.4146 35.8362 15.6154 35.484 14.5879C35.1318 13.2179 36.071 12.3046 36.8928 11.3912C38.4191 9.79289 39.8279 8.08038 41.1194 6.13953C42.0586 4.76952 43.5848 2.82867 41.9412 1.34449C40.2975 -0.139684 37.4799 0.202818 35.6014 1.00199C33.3707 2.0295 31.8445 3.97035 30.4357 5.79703C29.4964 6.9387 28.5572 8.08038 27.7354 9.22205C27.2658 9.79289 26.7961 10.3637 26.3265 10.9346C25.8569 11.3912 25.5047 11.9621 25.5047 11.0487C25.5047 8.19454 25.5047 5.34036 25.6221 2.48617C25.6221 2.0295 25.2699 1.45866 24.8003 1.34449C21.513 0.659489 18.3431 0.545321 15.0558 1.00199C13.8818 1.11616 13.9992 3.05701 15.0558 3.17117C17.5213 3.62784 17.2865 7.28121 17.0517 9.10789C16.9343 9.79289 16.8169 10.5921 16.5821 11.2771C16.4646 11.7337 16.2298 13.1037 15.8776 13.3321C15.5254 13.5604 13.5296 10.8204 13.1774 10.3637C11.5337 8.19455 10.0075 5.79703 8.83343 3.39951C8.59862 2.82867 8.36382 2.14367 7.8942 1.91533C7.42459 1.57283 6.60277 1.57283 6.01575 1.57283C4.48951 1.34449 2.96326 1.34449 1.43702 1.34449C0.615194 1.34449 0.262984 1.91533 0.262984 2.48617C-0.20663 3.39951 0.0281768 4.54118 0.380387 5.56869C1.08481 7.62371 1.90663 9.67872 2.96326 11.6196C4.95912 15.3871 7.6594 18.8121 11.2989 21.3238C14.3514 23.493 18.6953 25.4338 22.5696 24.9772C24.0959 24.7488 25.7395 24.178 26.2091 22.5797C26.4439 21.7805 26.3265 21.0955 25.9743 20.2963C25.8569 19.8396 25.5047 19.4971 25.3873 19.0405C25.1525 18.3555 25.5047 18.3555 26.2091 18.5838C27.1484 18.8121 28.205 19.0405 29.0268 19.6113C30.0834 20.2963 30.5531 21.3238 31.3749 22.2372C32.5489 23.6072 34.1926 24.6347 35.9536 24.9772C38.7713 25.548 44.8763 24.5205 42.0586 20.6388Z" fill="white"/>
</svg>
