<svg width="115" height="125" viewBox="0 0 115 125" fill="none" xmlns="http://www.w3.org/2000/svg">
<path d="M22.8696 25.0735C22.9199 25.2487 23.0856 25.1916 23.0353 25.0165C22.985 24.8414 22.8194 24.8984 22.8696 25.0735Z" fill="white"/>
<path d="M65.6965 116.496C63.9391 116.716 62.1316 116.762 60.2979 116.97C58.2985 117.236 56.2861 117.583 54.2606 118.012C53.2032 118.261 52.6658 115.749 53.7232 115.5C53.8126 115.431 53.9652 115.455 54.0546 115.386C54.0305 115.048 54.0696 114.803 54.0957 114.64C56.2375 110.549 60.2591 107.428 63.5939 104.197C63.0414 102.269 62.5523 100.434 61.9235 98.4929C60.5679 100.116 59.2887 101.752 58.0094 103.388C57.2162 104.432 56.4862 105.57 55.7562 106.708C55.3204 107.474 54.8716 108.323 54.1697 108.796C54.2681 109.648 54.4429 110.513 54.5414 111.365C54.7644 112.906 53.2099 113.327 52.9869 111.785C50.9816 97.4115 46.0832 83.9967 40.1776 71.0062C35.9503 61.7139 30.768 52.5198 27.8923 42.6073C24.5263 44.0763 21.3892 45.582 17.5712 45.4731C17.1003 45.4814 16.8361 44.6862 16.825 44.2662C16.8207 38.9119 16.969 33.5821 17.1172 28.2522C17.067 28.0769 17.0168 27.9015 17.0298 27.82C17.0298 27.82 17.0429 27.7384 17.1192 27.7506C17.1983 23.8318 17.2774 19.9129 17.1908 16.0511C17.1777 16.1327 17.0884 16.202 17.0753 16.2836C16.8574 16.667 16.5039 15.9412 16.6324 15.6272C16.7479 15.3947 16.9397 15.1744 17.1315 14.9542C17.0761 12.8541 17.0338 10.6724 16.8258 8.54789C16.8016 8.20943 16.9302 7.89539 17.1852 7.7689C20.0542 6.47127 23.0366 5.44275 25.9427 4.40202C25.9558 4.32046 25.9055 4.14512 25.9186 4.06356C25.8573 3.4682 26.2448 2.02451 27.0583 2.32196C38.9955 5.9885 49.767 11.5598 60.4994 17.3757C60.8549 17.5999 61.1582 18.1503 61.2325 18.6641C61.8059 18.5049 62.2971 19.8383 61.9004 20.3604C60.6212 21.996 59.355 23.55 58.0124 25.0919C75.0573 47.2257 85.6695 73.8513 100.493 97.6373C100.923 98.3753 101.107 100.161 99.8596 100.129C89.7272 100.348 81.6819 107.091 73.4377 112.632C71.4976 113.994 68.2261 117.319 65.6965 116.496ZM18.7836 18.8155C20.2737 15.3733 23.4819 11.955 26.7735 9.97218C26.6268 8.44301 26.4932 6.83228 26.3465 5.30311C23.0829 6.62125 18.2648 8.35987 18.4688 11.4876C18.5301 12.0829 18.5021 12.7476 18.5634 13.343C20.2653 11.0221 22.0939 8.88886 24.062 6.86155C24.1644 6.71064 24.3412 7.07352 24.2518 7.14287C22.3209 9.42707 20.3769 11.7928 18.6357 14.3584C18.7061 15.8753 18.7896 17.3107 18.7836 18.8155ZM18.8975 25.442C19.998 23.9451 21.3777 22.6601 22.5285 21.3386C24.0497 19.658 25.6976 18.165 27.4589 16.9411C27.3141 14.9104 27.08 12.949 26.9353 10.9182C25.4029 12.1787 24.0232 13.4637 22.757 15.0177C21.4908 16.5718 20.4777 18.501 19.0719 19.949C18.9825 20.0184 18.9825 20.0184 18.9062 20.0062C18.9244 21.8494 18.8793 23.5988 18.8975 25.442ZM18.6108 33.5938C21.4244 30.1961 24.6437 27.1979 27.9263 24.2934C27.8077 22.0996 27.689 19.9057 27.4941 17.6996C25.7308 19.4251 24.0438 21.1628 22.4071 23.0758C21.2433 24.4789 20.0906 26.3021 18.7872 27.5993C18.716 29.5118 18.6951 31.5997 18.6108 33.5938ZM18.4788 41.2685C19.5923 39.69 21.1638 38.1848 22.3778 36.957C24.2435 35.0806 26.1725 33.298 28.0884 31.5969C28.0592 29.3337 28.0299 27.0705 27.9243 24.795C24.7794 28.307 21.6475 31.7375 18.5658 35.3433C18.4946 37.2558 18.4867 39.2621 18.4788 41.2685ZM28.1814 40.3114C28.0438 39.7038 27.9825 39.1084 27.9583 38.77C28.0817 36.5312 28.1288 34.2802 28.0995 32.0169C26.3101 33.9055 24.5077 35.8757 22.7053 37.8459C21.3758 39.3061 20.1468 41.1171 18.8042 42.6589C20.1499 43.5434 24.9047 41.7111 28.1814 40.3114ZM37.4755 59.0302C38.3993 57.1704 39.6153 55.441 40.7288 53.8626C41.4458 52.8062 42.1627 51.7498 42.956 50.7056C42.1113 48.6465 41.2666 46.5874 40.435 44.4468C39.463 45.6296 38.6678 47.1754 38.0643 48.5009C37.6155 49.3492 36.481 53.0156 35.3733 53.0894C35.1313 53.1343 35.0178 52.8652 34.9676 52.6898C34.7335 50.7284 36.4746 48.1629 37.3592 46.5478C37.9999 45.4792 38.8584 44.0272 39.9439 43.1134C39.2257 41.2419 38.4443 39.2766 37.8156 37.3357C36.0634 39.4812 33.8572 40.5503 31.2825 41.4767C30.2883 41.8195 29.2811 42.2439 28.3633 42.599C31.5379 47.7077 34.6343 53.3057 37.4755 59.0302ZM44.2519 73.9166C44.2017 73.7413 44.2278 73.5782 44.2408 73.4966C44.5409 71.6207 45.8594 69.7404 46.8966 68.1497C47.5242 67.1626 48.3174 66.1185 49.2372 65.2618C48.266 63.0152 47.3581 60.8623 46.3869 58.6157C45.7704 60.0228 45.0012 61.4054 44.2321 62.788C43.5915 63.8566 42.6899 66.5565 41.5431 66.8749C41.3011 66.9198 41.1243 66.5569 41.1504 66.3938C41.0428 64.62 42.5511 63.021 43.4728 61.6628C44.3052 60.3739 45.1376 59.085 46.0464 57.8084C45.3021 56.1 44.571 54.31 43.8267 52.6016C43.1861 53.6702 42.5586 54.6572 41.931 55.6442C40.7913 57.3858 39.7652 59.3966 38.4226 60.9384C40.4172 65.1054 42.3858 69.4356 44.2519 73.9166ZM46.1793 78.993C47.3359 76.1667 49.8272 73.8049 51.8345 71.5329C51.1536 69.9182 50.4595 68.3851 49.7786 66.7705C48.9723 67.8962 48.2292 69.1157 47.4862 70.3353C46.7171 71.7179 46.188 73.5572 45.0764 74.6341C44.7952 74.9237 44.5924 74.7239 44.4025 74.4426C45.0202 75.9635 45.5485 77.5537 46.1793 78.993ZM48.7335 86.5119C49.123 84.5666 50.4283 82.7679 51.5419 81.1894C52.3613 79.9821 53.283 78.6239 54.3183 77.5348C53.7006 76.0139 53.0699 74.5746 52.5155 73.1475C50.685 75.7824 48.8675 78.3357 46.9607 80.9584L46.8713 81.0277C47.5262 82.8055 48.0917 84.6526 48.7335 86.5119ZM50.5063 92.0655C50.944 90.7971 51.8397 89.602 52.5436 88.6272C53.8489 86.8285 55.3572 85.2295 56.7258 83.5245C56.1211 81.9221 55.5165 80.3196 54.8225 78.7866C54.0664 80.0876 53.234 81.3765 52.4779 82.6776C51.5039 84.362 50.8724 86.3522 49.6956 87.837C49.5801 88.0694 49.4144 88.1266 49.2748 88.0206C49.6766 89.4233 50.0914 90.7444 50.5063 92.0655ZM52.1485 98.4347C53.8545 95.1107 56.7033 92.4714 58.9676 89.5714C58.3629 87.9689 57.7583 86.3665 57.1537 84.7641C56.1034 86.4363 54.9767 88.0964 53.8501 89.7564C53.1462 90.7312 52.5187 91.7183 51.9544 92.7991C51.621 93.415 51.5297 93.9859 51.1461 94.4264C51.4846 95.7353 51.8231 97.0442 52.1485 98.4347ZM61.5348 97.0087C60.9693 95.1616 60.3275 93.3023 59.6857 91.4429C57.33 94.9139 54.3769 98.2057 53.1008 102.268C53.4132 103.74 53.7256 105.212 53.9747 106.59C54.7197 104.869 56.0753 103.245 57.1628 101.83C58.5314 100.125 59.9503 98.5955 61.5348 97.0087ZM67.6836 112.882C71.1168 110.504 77.3708 106.151 78.404 105.563C85.127 101.703 90.3346 98.0196 97.7325 97.2793C83.3407 73.7296 72.7135 47.6872 56.0242 25.7776C55.5682 25.2027 55.5852 24.118 56.1345 23.6203C57.3354 22.4741 58.4731 21.234 59.661 20.1694C49.6006 15.0464 39.5903 10.0989 28.9505 6.63989C28.9987 7.31681 29.1233 8.00593 29.1585 8.76441C29.1585 8.76441 29.2348 8.77662 29.2478 8.69506C29.4135 8.63792 29.4377 8.97638 29.3483 9.04573C29.2589 9.11508 29.2589 9.11508 29.1695 9.18443C30.2155 18.3023 31.0325 27.3836 30.8945 36.563C32.8456 35.6204 34.6702 34.4902 36.6344 33.4661C36.6866 33.1399 36.9416 33.0134 37.1445 33.2131C37.3232 33.0744 37.5783 32.9479 37.744 32.8908C39.0193 32.2583 39.3388 35.1536 38.9161 35.8388C38.8137 35.9897 38.8006 36.0712 38.6982 36.2222C40.7822 40.3198 42.8401 44.5806 44.898 48.8414C45.0376 48.9474 45.1511 49.2165 45.1883 49.4734C54.7446 69.489 63.1371 90.9077 67.6836 112.882ZM61.4395 114.727L61.4526 114.646C61.5368 112.652 63.529 110.963 65.1247 109.796C64.8494 108.581 64.5872 107.284 64.2357 106.057C62.8671 107.762 61.3458 109.442 59.9008 111.135C58.8395 112.387 57.7651 113.721 56.6906 115.055C58.1427 114.785 59.7976 114.715 61.4395 114.727ZM64.6841 114.995C64.6972 114.914 64.7102 114.832 64.7233 114.751C64.8016 114.261 65.146 114.065 65.4885 114.371C65.4885 114.371 65.6672 114.233 66.101 113.967C66.101 113.967 66.0247 113.955 66.0377 113.874C65.8499 113.091 65.6621 112.308 65.4742 111.525C64.7964 112.337 64.1187 113.148 63.5041 114.054C63.2993 114.356 63.1838 114.588 63.0684 114.821C63.6026 114.906 64.1499 114.91 64.6841 114.995Z" fill="white"/>
</svg>
