<svg width="114" height="16" viewBox="0 0 114 16" fill="none" xmlns="http://www.w3.org/2000/svg">
<path d="M112.736 7.23899C111.636 6.73899 110.536 6.53899 109.336 6.43899C109.136 6.23899 108.836 6.23899 108.436 6.23899C107.236 6.43899 106.236 6.83899 105.136 7.13899C104.936 7.13899 104.736 7.23899 104.636 7.23899C104.536 7.23899 104.536 7.23899 104.436 7.23899C103.336 7.13899 102.236 6.93899 101.236 6.53899C99.2363 5.83899 97.5363 4.53899 95.3363 4.73899C94.0363 4.83899 92.7363 5.23899 91.4363 5.63899C87.6363 6.03899 83.9363 7.03899 80.2363 5.93899H80.1363C77.4363 2.73899 72.9363 3.73899 69.5363 5.43899C69.4363 5.43899 69.4363 5.53899 69.3363 5.63899C67.2363 5.63899 65.2363 5.93899 63.1363 6.13899C63.0363 5.93899 62.9363 5.83899 62.7363 5.63899C61.0363 4.33899 58.9363 4.23899 56.9363 4.03899C56.6363 4.03899 56.3363 3.93899 56.0363 3.93899C54.0363 3.53899 52.0363 3.03899 49.9363 2.73899C48.3363 2.43899 46.7363 2.53899 45.2363 3.03899C42.0363 3.03899 38.9363 3.53899 35.8363 4.83899C35.8363 4.83899 35.8363 4.83899 35.7363 4.83899C34.7363 4.73899 33.7363 4.73899 32.7363 4.43899C31.2363 4.03899 30.0363 2.93899 28.5363 2.23899C27.0363 1.53899 25.8363 1.73899 24.2363 2.03899C23.1363 2.23899 22.8363 1.53899 22.0363 1.03899C21.5363 0.638994 20.9363 0.438993 20.2363 0.338993C18.7363 0.138993 17.2363 0.738993 15.8363 1.33899C15.1363 1.63899 14.2363 2.03899 13.2363 2.03899C12.3363 2.03899 11.5363 1.53899 10.7363 1.13899C9.63627 0.438994 8.43627 -0.161007 7.13627 0.0389934C5.63627 0.338993 4.73627 1.43899 3.93627 2.63899C2.53627 4.93899 1.63627 7.63899 1.23627 10.339C1.13627 10.439 1.13627 10.439 1.13627 10.539C0.636271 11.639 -0.363729 12.939 0.136271 14.139C0.536271 15.139 1.63627 15.739 2.73627 15.939C5.73627 16.339 6.93627 13.339 8.93627 11.739C11.4363 9.73899 13.6363 13.139 16.3363 12.839C17.5363 12.639 18.4363 11.839 19.4363 11.239C20.9363 10.239 22.5363 10.239 24.2363 10.439C25.7363 10.639 27.2363 10.939 28.7363 10.939C30.4363 10.939 32.0363 10.439 33.6363 10.039C35.3363 9.63899 36.8363 9.43899 38.5363 9.83899C40.2363 10.139 41.8363 10.739 43.4363 11.139C44.8363 11.439 46.2363 11.539 47.7363 11.339C49.4363 11.039 50.9363 10.439 52.4363 11.639C53.4363 12.439 54.4363 12.939 55.7363 12.839C57.2363 12.639 58.5363 11.739 59.9363 11.439C61.5363 11.039 63.1363 11.539 64.7363 11.739C66.4363 11.939 67.8363 11.539 69.3363 10.939C70.7363 10.339 72.2363 9.63899 73.8363 10.039C75.3363 10.339 76.6363 11.039 78.2363 11.239C79.1363 11.339 80.0363 11.139 80.7363 10.439C80.8363 10.439 81.0363 10.439 81.1363 10.439C81.5363 10.339 81.8363 10.139 82.1363 9.93899C84.8363 10.039 87.5363 10.239 90.2363 10.339C90.6363 10.339 90.8363 10.239 91.0363 9.93899C91.8363 9.83899 92.6363 9.73899 93.5363 9.43899C95.5363 8.93899 97.5363 8.13899 99.6363 8.73899C101.536 9.23899 103.236 10.039 105.236 9.63899C105.336 9.63899 105.436 9.53899 105.536 9.53899C106.636 9.53899 108.636 9.53899 109.536 8.73899C110.336 8.73899 111.136 8.93899 111.836 9.23899C112.836 9.43899 113.936 7.73899 112.736 7.23899Z" fill="white"/>
</svg>
