<svg width="78" height="146" viewBox="0 0 78 146" fill="none" xmlns="http://www.w3.org/2000/svg">
<path d="M75.7021 60.4398C79.6288 44.878 77.8837 26.8667 67.267 14.3308C57.2321 2.37127 39.4893 -3.53645 24.8005 3.3799C17.238 6.83808 11.2752 13.4662 8.51199 21.2471C8.07569 22.3999 2.11293 37.2412 3.85813 43.4371C5.60333 49.7771 11.1298 54.9643 17.6743 55.5407C24.0733 56.1171 28.8726 51.7944 32.9448 47.4716C34.8354 45.5985 36.5806 43.5812 38.9075 42.2844C40.7982 41.1316 42.9797 40.6994 45.1612 40.5553C54.6143 40.2671 63.6312 47.6157 63.1949 57.7021C63.0495 61.1602 61.886 67.212 49.9605 71.6788C42.6888 74.4166 34.9808 71.8229 28 75.5693C20.4375 79.6038 14.6202 86.3761 11.857 94.4452C10.5481 98.3356 10.1118 102.658 11.5661 106.549C13.3113 110.872 16.8017 113.609 21.601 112.889C23.2007 112.601 24.2188 110.872 24.2188 109.431C24.8005 98.4797 32.363 87.817 43.2705 84.9352C46.6155 84.0706 50.1059 83.4943 53.3054 82.1975C56.0687 80.9007 71.1937 77.8748 75.7021 60.4398ZM52.7237 16.7803C49.0879 15.4835 45.1612 14.7631 41.5253 14.9072C37.5986 15.1953 31.9267 15.6276 29.4544 16.9244C28.2909 17.5008 30.6178 19.0858 28.8726 19.0858C28.4363 19.0858 28.1455 19.0858 27.7092 18.9417C27.8546 18.6535 27.8546 18.3653 27.7092 17.9331C26.1094 15.1953 21.1647 17.2126 24.0733 8.42307C25.0914 6.26171 27.7092 4.82081 31.0541 4.10036C39.053 2.37127 50.6876 6.40581 56.9413 11.5931C60.2862 14.4749 62.4677 17.6449 63.4858 20.6708C63.9221 22.1117 64.2129 23.5526 64.0675 24.9935C63.6312 23.9849 62.904 23.1203 62.0314 22.1117C59.7045 19.9503 56.3595 18.0771 52.7237 16.7803Z" fill="white"/>
<path d="M15.9284 132.485C15.3466 132.053 14.9103 131.621 14.3286 131.332C14.3286 130.756 9.23843 127.586 3.4211 129.315C0.948732 130.036 -0.214734 132.917 0.512432 135.511C0.948732 136.952 1.6759 138.393 2.40306 139.69C3.27566 141.131 4.2937 142.427 5.6026 143.58C8.51126 145.885 12.7288 146.03 15.6375 143.58C17.0918 142.283 18.2553 140.266 18.2553 138.249C18.1099 136.087 17.5281 133.926 15.9284 132.485Z" fill="white"/>
</svg>
