<svg width="126" height="271" viewBox="0 0 126 271" fill="none" xmlns="http://www.w3.org/2000/svg">
<path d="M61.0911 144.751C59.6445 135.71 58.1979 125.463 56.8718 116.302C56.6307 114.493 56.028 110.877 56.028 109.068C55.0636 75.0732 54.8225 35.412 54.7019 1.29618C54.7019 0.0906763 54.7019 -4.6108 54.8225 -5.93686L54.943 -8.34787C55.0636 -10.0356 57.5951 -10.0356 57.4746 -8.10677C57.1129 13.4718 57.5951 46.5027 57.7157 68.3223C57.9568 82.6679 57.8362 97.0134 58.5595 111.238C58.9212 114.373 59.6445 122.329 60.0061 125.584C60.6089 131.973 61.3322 138.242 61.8144 144.631C61.8144 144.872 61.6938 144.993 61.4527 144.993C61.2116 144.993 61.0911 144.872 61.0911 144.751Z" fill="white"/>
<path d="M63.1408 143.184C62.0558 134.022 62.4175 123.655 62.538 114.493C63.5024 81.4623 65.6723 42.5245 67.36 9.37306C67.4806 6.47984 67.8422 -2.07925 67.8422 -4.85192L67.7217 -9.55339C67.6011 -10.2767 68.2039 -11 68.9272 -11C69.6505 -11 70.1327 -10.5178 70.2533 -9.79449C70.3738 -8.22734 70.6149 -6.53963 70.6149 -4.85192C70.7355 -0.150442 70.7355 4.91269 70.6149 9.61416C69.4094 46.3821 65.3107 87.3693 63.3819 124.258C63.1408 128.839 63.0202 133.902 63.0202 138.603C63.0202 140.171 63.1408 141.738 63.2613 143.425C63.3819 143.305 63.1408 143.305 63.1408 143.184Z" fill="white"/>
<path d="M117.991 181.037C110.879 168.5 97.136 159.097 82.5493 159.338C81.7055 155.842 80.9822 152.346 80.9822 148.73C81.826 147.283 82.1877 145.595 81.826 143.908C80.8616 140.05 77.9684 138.001 74.8341 136.192C71.8203 134.625 68.3243 134.022 65.0695 134.625C64.9489 134.625 64.8284 134.746 64.8284 134.866C64.8284 134.987 64.9489 135.228 65.0695 135.228C68.2038 135.831 70.9765 136.916 73.508 138.483C75.6779 139.929 78.4506 141.979 78.9328 144.51C79.2945 147.042 77.2451 149.332 74.9546 150.297C72.4231 151.382 69.1682 151.502 66.1544 151.623C61.5735 151.743 56.9926 151.141 52.6528 149.332C50.1212 148.368 47.3485 146.921 48.4335 143.908C50.1212 139.809 54.461 137.157 58.8008 136.072C59.0419 136.072 59.0419 135.71 58.8008 135.71C53.8583 135.71 48.554 138.362 46.5047 143.184C46.0225 144.51 46.0225 145.836 46.3841 146.921C46.143 147.162 46.0225 147.524 46.143 148.006C46.8663 151.864 47.3485 155.963 47.4691 159.941H47.3485C40.236 159.459 32.7619 160.664 26.0111 163.919C22.6357 165.486 19.6219 167.656 16.7287 170.067C-2.80054 187.547 -4.48824 218.89 7.80792 240.951C16.367 256.984 33.1236 267.231 50.965 269.401C75.1957 272.415 103.284 265.664 116.906 243.724C128.72 224.918 128.961 199.843 117.991 181.037ZM66.275 154.275C69.6504 154.275 73.0258 154.154 76.2807 152.828C77.2451 152.467 78.2095 151.864 79.0534 151.141C78.9328 152.587 78.9328 153.913 79.1739 155.36C79.5356 158.494 80.5 161.387 81.9466 164.04C82.3082 164.883 83.0315 165.968 83.1521 166.933C83.1521 167.174 83.0315 167.294 82.6699 167.053C81.4644 166.33 80.2589 167.536 80.6205 168.62C80.8616 169.464 80.0178 169.826 79.415 169.705C77.9684 169.585 77.4862 168.138 76.1601 167.053C75.1957 166.209 73.6286 166.089 72.7847 167.415C72.182 168.259 71.9409 169.103 71.8203 169.826C71.5792 170.911 70.9765 173.443 70.1326 171.273C69.4093 169.947 69.0476 168.5 68.4449 167.053C68.3243 166.692 67.9627 166.209 67.3599 165.848C65.7928 165.366 64.8284 165.968 63.5023 166.451C61.2119 167.415 59.8858 169.344 58.3186 170.911C57.5953 171.393 57.1131 170.67 56.872 169.947C56.2693 168.5 56.1487 167.053 55.9076 165.607C55.7871 165.245 55.6665 164.642 55.0638 164.16C54.5816 163.678 53.7377 163.798 53.135 163.919C50.965 164.522 49.0362 165.848 47.7102 167.656C48.7951 161.629 49.1568 155.601 48.9157 149.453C53.2555 153.19 62.2968 154.275 66.275 154.275ZM113.772 241.313C107.021 253.247 95.2071 261.686 82.0671 265.302C68.9271 268.798 54.3405 269.039 41.321 264.699C28.3015 260.48 17.452 250.715 11.6655 238.54C-3.04164 208.161 9.61618 164.642 47.3485 162.111H47.4691C47.4691 164.16 47.4691 166.33 47.228 168.379C47.228 168.5 47.3485 168.5 47.3485 168.5C49.3979 167.415 51.4473 166.451 53.6172 165.968C53.6172 165.968 53.8583 166.209 53.8583 166.451C54.461 167.897 55.4254 169.103 56.1487 170.429C56.5104 171.152 57.1131 171.996 57.957 171.393C58.6803 170.911 59.0419 170.308 59.6447 169.826C61.453 168.379 63.9845 167.536 66.1544 167.656C67.1188 168.862 68.3243 170.308 69.1682 171.755C69.4093 172.237 69.8915 173.201 70.7354 172.96C72.3025 172.237 73.0258 170.188 74.1108 169.103C74.1108 168.982 74.2313 168.982 74.2313 168.982C74.3519 168.982 74.4724 169.103 74.593 169.103C76.7629 170.429 79.2945 171.514 81.4644 169.344C81.826 168.982 82.1877 168.862 82.0671 168.862C81.9466 168.741 82.4288 168.5 82.5493 168.379C82.911 168.138 83.6343 167.777 83.7548 167.174C83.8754 165.848 83.2726 164.883 83.1521 163.557C83.0315 163.075 83.0315 162.593 82.911 161.99C89.1796 162.955 95.2071 165.245 100.27 168.862C122.21 184.895 126.671 218.287 113.772 241.313Z" fill="white"/>
<path d="M42.5265 177.18C43.732 176.818 43.4909 174.889 42.2854 174.769C39.8744 174.527 37.9456 173.081 36.6195 171.152C36.3784 170.79 36.1373 170.308 35.7756 170.067C35.5345 170.067 35.0523 170.188 34.9318 170.308C32.2797 171.755 29.9892 173.804 27.8193 175.854C22.9973 180.193 20.2246 186.221 19.1397 192.61C18.5369 195.744 18.4163 198.999 19.1397 202.013C19.1397 202.134 19.3808 202.134 19.3808 202.013C20.2246 192.369 26.011 185.377 34.329 180.796C36.8606 179.349 39.6333 178.144 42.5265 177.18ZM19.2602 200.928C18.5369 195.142 21.189 189.476 23.7206 184.413C26.6138 179.952 30.4714 175.974 34.0879 172.237C34.4496 171.875 34.9318 171.514 35.414 171.152C35.5345 171.031 35.5345 171.031 35.6551 170.911C36.2578 172.96 37.4633 174.889 39.2716 176.095C29.2659 180.917 19.6219 189.355 19.2602 200.928Z" fill="white"/>
<path d="M111.602 221.542C110.035 232.512 104.731 242.518 96.2922 249.751C96.1716 249.872 96.2922 250.233 96.5333 250.113C106.901 245.291 113.772 232.995 112.205 221.542C112.084 221.301 111.602 221.301 111.602 221.542Z" fill="white"/>
<path d="M13.715 189.717C11.545 193.333 11.0628 198.155 13.1122 201.892C13.1122 202.013 13.2328 202.013 13.3533 202.013C13.5944 202.013 13.715 201.892 13.715 201.772C14.1972 197.914 14.7999 194.418 16.0054 190.802C16.4876 189.355 14.5588 188.391 13.715 189.717Z" fill="white"/>
<path d="M85.3218 218.046C83.1519 218.167 80.982 218.167 78.8121 218.046C80.7409 215.756 83.0313 213.827 85.6835 212.501C86.2862 212.139 86.5273 211.416 86.1657 210.813C85.804 210.21 85.0807 209.969 84.478 210.331C81.4642 211.898 78.8121 214.189 76.6422 216.72C76.4011 216.961 76.0394 217.443 75.9189 218.046C70.8557 217.805 65.7926 217.443 60.9706 216.961L60.2473 216.841C61.935 215.153 63.6227 213.345 65.1898 211.657C67.6009 209.005 70.1324 206.353 72.7845 203.821C73.7489 204.303 74.7133 204.545 75.5572 204.786C77.1244 205.027 78.6915 205.268 80.3792 205.268C81.4642 205.268 82.5491 205.147 83.7546 205.027C84.478 204.906 84.9602 204.303 84.8396 203.58C84.7191 202.857 84.1163 202.375 83.393 202.495C80.982 202.857 78.4504 202.736 76.0394 202.254C75.5572 202.134 75.1955 202.013 74.7133 201.892C75.9189 200.687 77.2449 199.602 78.571 198.517C79.0532 198.035 79.1737 197.191 78.6915 196.709C78.2093 196.227 77.486 196.106 76.8833 196.588C75.5572 197.673 74.2311 198.879 73.0256 200.084C72.9051 199.361 73.0256 198.396 73.1462 197.432L73.7489 193.574C73.8695 192.851 73.3873 192.248 72.664 192.128C71.9407 192.007 71.3379 192.489 71.2174 193.213L70.6146 197.07C70.3735 198.396 70.1324 200.325 70.9763 202.013C68.3242 204.665 65.7926 207.317 63.3816 209.969C61.6939 211.778 59.8856 213.706 58.0774 215.515C58.1979 212.863 58.3185 210.09 58.5596 207.438C58.8007 204.303 59.0418 201.049 59.2829 198.035H59.4034C60.1267 197.914 60.6089 197.432 60.9706 197.191C63.0199 195.503 65.0693 193.816 66.8776 192.007C67.3598 191.525 67.3598 190.681 66.8776 190.199C66.3954 189.717 65.5515 189.717 65.0693 190.199C63.261 191.887 61.4528 193.574 59.524 195.142C59.7651 192.972 59.8856 191.043 60.0062 189.355C60.1267 188.632 59.524 188.029 58.8007 187.909C58.0774 187.788 57.4746 188.391 57.3541 189.114C57.2335 190.32 57.113 191.525 56.9924 192.972L52.6526 189.114C52.1704 188.632 51.3265 188.632 50.8443 189.235C50.3621 189.717 50.3621 190.561 50.9649 191.043L56.1485 195.624C56.2691 195.744 56.5102 195.985 56.5102 195.985V196.106C56.5102 196.227 56.6307 196.468 56.6307 196.709C56.3896 200.084 56.028 203.701 55.7869 207.317C55.6663 209.849 55.5458 212.26 55.3047 214.791C55.0636 214.55 54.8225 214.309 54.5814 214.068C53.9786 213.586 53.4964 213.104 52.8937 212.621C51.5676 211.416 50.4827 209.849 49.3977 208.282L45.0579 202.254C45.1784 202.254 45.1784 202.134 45.299 202.134C45.9017 201.651 46.1428 201.049 46.1428 200.687C46.8661 198.396 47.1072 196.106 46.9867 193.816C46.9867 193.092 46.3839 192.61 45.6606 192.61C44.9373 192.61 44.4551 193.213 44.4551 193.936C44.5757 195.985 44.3346 198.035 43.7318 199.964C43.7318 200.084 43.7318 200.084 43.7318 200.084H43.6113C43.6113 200.084 43.6113 200.084 43.4907 200.084L40.1153 195.383C39.7537 194.78 38.9098 194.659 38.307 195.142C37.7043 195.624 37.5837 196.347 38.0659 196.95L40.7181 200.566C38.307 200.928 36.0166 201.29 33.6056 201.531C32.8823 201.651 32.4001 202.254 32.4001 202.977C32.5206 203.58 33.0028 204.183 33.7261 204.183H33.8467C36.7399 203.942 39.5126 203.46 42.4058 202.977L47.3483 209.849C48.5539 211.416 49.7594 213.104 51.206 214.55C51.8087 215.153 52.4115 215.635 53.0142 216.117C53.1348 216.117 53.1348 216.238 53.2553 216.238L37.7043 214.912C37.5837 214.671 37.4632 214.55 37.3426 214.43L31.1946 207.679C30.7124 207.197 29.8685 207.076 29.3863 207.558C28.9041 208.04 28.7835 208.884 29.2657 209.367L33.9672 214.55L28.1808 214.068C27.4575 213.947 26.8547 214.55 26.7342 215.274C26.6136 215.997 27.2164 216.6 27.9397 216.72L33.3645 217.202C31.7973 218.528 30.2302 219.734 28.5424 220.819C27.9397 221.181 27.8191 222.024 28.1808 222.627C28.4219 222.989 28.7835 223.23 29.2657 223.23C29.5069 223.23 29.748 223.109 29.9891 222.989C32.4001 221.301 34.8111 219.493 36.981 217.564L54.3403 219.131C50.0005 223.35 45.5401 227.329 40.8386 231.066C40.3564 230.825 39.8742 230.825 39.5126 230.825L30.5918 230.101C29.8685 229.981 29.2657 230.583 29.2657 231.307C29.2657 232.03 29.748 232.633 30.4713 232.633L38.0659 233.236C36.4988 234.441 34.9316 235.647 33.3645 236.732C32.7617 237.093 32.6412 237.937 33.1234 238.54C33.3645 238.901 33.7261 239.022 34.2083 239.022C34.4494 239.022 34.6905 238.901 34.9316 238.781C36.4988 237.696 38.066 236.49 39.6331 235.285C39.2715 237.696 39.1509 240.107 39.1509 242.639C39.1509 243.362 39.7537 243.844 40.477 243.844C41.2003 243.844 41.803 243.241 41.6825 242.518C41.6825 239.625 41.803 236.852 42.2852 234.2C42.2852 233.959 42.4058 233.477 42.4058 232.994C46.7456 229.499 50.9649 225.882 54.943 222.024C54.7019 227.57 54.4608 232.994 54.4608 238.54C54.3403 238.66 54.0992 238.781 54.0992 238.781C51.5676 240.589 49.1566 242.759 47.2278 245.291C46.7456 245.893 46.8661 246.617 47.4689 247.099C48.0717 247.581 48.795 247.461 49.2772 246.858C50.8443 244.929 52.532 243.241 54.4608 241.674C54.4608 243.603 54.3403 245.411 54.3403 247.34C54.3403 248.063 54.943 248.666 55.6663 248.666C56.3896 248.666 56.9924 248.063 56.9924 247.34C56.9924 245.652 56.9924 243.965 57.113 242.277C59.0418 243.965 60.85 246.014 62.4172 248.184C62.6583 248.546 63.0199 248.787 63.5021 248.787C63.7432 248.787 63.9843 248.666 64.2254 248.546C64.8282 248.184 64.9487 247.34 64.5871 246.737C62.5377 243.844 60.1267 241.192 57.2335 239.022C57.3541 232.994 57.5952 226.967 57.8363 221.06C58.0774 221.422 58.439 221.783 58.6801 222.145C62.1761 226.364 66.0337 230.222 70.1324 233.718C70.1324 233.959 70.1324 234.2 70.1324 234.321L69.8913 242.759C69.8913 243.482 70.3735 244.085 71.0968 244.085C71.8201 244.085 72.3023 243.482 72.4229 242.88L72.5434 235.888C73.8695 236.973 75.1955 238.058 76.5216 239.143C76.7627 239.384 77.0038 239.384 77.3655 239.384C77.7271 239.384 78.0888 239.263 78.3299 238.901C78.8121 238.299 78.6915 237.575 78.2093 237.093C76.7627 235.888 75.4367 234.803 73.99 233.597C76.4011 232.874 79.0532 232.512 81.5847 232.633C82.308 232.633 82.9108 232.151 82.9108 231.427C82.9108 230.704 82.4286 230.101 81.7053 230.101C78.571 229.86 75.3161 230.342 72.3023 231.307C72.1818 231.307 71.9407 231.427 71.579 231.548C67.6009 228.052 63.7432 224.435 60.4884 220.337C60.2473 219.975 59.8856 219.613 59.6445 219.252L60.7295 219.372C65.9132 219.854 71.3379 220.337 76.6422 220.457C77.0038 220.819 77.486 221.181 77.7271 221.422C79.5354 222.627 80.982 224.194 82.0669 226.003C82.308 226.364 82.7902 226.605 83.1519 226.605C83.393 226.605 83.6341 226.605 83.8752 226.364C84.478 226.003 84.7191 225.159 84.3574 224.556C83.393 222.989 82.1875 221.663 80.8614 220.457C81.1025 220.457 81.3436 220.457 81.5847 220.457C82.9108 220.457 84.2369 220.457 85.5629 220.337C86.2862 220.337 86.7684 219.734 86.7684 219.011C86.6479 218.649 86.0451 218.046 85.3218 218.046Z" fill="white"/>
</svg>
