<svg width="110" height="122" viewBox="0 0 110 122" fill="none" xmlns="http://www.w3.org/2000/svg">
<g clip-path="url(#clip0_40_68)">
<path d="M93.6308 61.5947C93.3893 61.9135 93.2275 62.2928 93.3653 62.7734C93.4233 63.1937 93.6214 63.5946 93.9403 63.8362C94.2591 64.0777 94.6987 64.1597 95.1987 64.1621C95.619 64.1041 95.9402 63.8456 96.1817 63.5267C96.6044 62.9687 96.5874 62.3286 96.2298 61.8069L96.1091 61.9663C95.7468 62.4446 95.3266 62.5027 94.928 62.2008C94.4497 61.8385 94.3916 61.4183 94.7539 60.94L94.8143 60.8602C94.394 60.9183 93.9931 61.1164 93.6308 61.5947Z" fill="white"/>
<path d="M100.785 62.7484L109.101 59.3875L99.6905 57.4031C98.9367 56.0796 97.9028 54.7947 96.5476 53.7683L96.2287 53.5268C93.1198 51.1721 89.9627 50.5373 86.8783 51.4628C85.1755 52.0548 83.7312 52.968 82.5454 54.2024C82.043 54.7 81.56 55.3378 80.8959 56.2147C79.0459 58.326 72.539 59.7954 61.2542 60.7822C49.9501 61.629 40.9115 61.3065 34.1191 59.6745C28.9861 58.1703 24.9112 57.0911 22.0947 56.3378C17.2806 55.0752 14.2443 54.2809 12.8264 53.8342C10.9688 53.3054 9.5679 53.4988 8.62358 54.4144L7.83634 55.9507C6.47645 55.9243 5.47411 56.4196 4.80997 57.2965C4.32696 57.9342 4.12414 58.5333 4.08075 59.2531C3.38029 59.3498 2.77888 59.647 2.31757 59.9248C1.07372 60.7389 0.489304 61.6762 0.443562 62.896C0.257726 64.1351 0.893106 65.1181 2.08886 66.0238C0.842655 67.3379 0.475689 68.8162 0.987963 70.4586C1.5776 72.6614 3.35306 73.6298 6.51482 73.2647L38.9489 70.3573C40.1229 71.6229 41.3574 72.8087 42.5724 73.8544L42.6522 73.9148C42.389 74.5936 42.1861 75.1926 42.1428 75.9124C42.0994 76.6322 42.1961 77.3327 42.4932 77.9341C42.7904 78.5355 43.288 79.0379 43.8461 79.4605C44.8027 80.185 46.0008 80.5907 47.38 80.7572C48.7592 80.9236 50.0998 80.81 51.4017 80.4161C51.4814 80.4765 51.4814 80.4765 51.5611 80.5368C59.7186 85.3353 67.1317 86.8102 73.7208 84.9012C79.4089 83.188 85.3503 78.6559 91.3856 71.1842C93.2765 68.8531 95.7836 67.3649 98.7666 66.7389C100.288 66.3861 101.629 66.2724 102.868 66.4582L106.585 67.0157L100.785 62.7484ZM6.34311 71.5039C4.44219 71.6949 3.30445 71.2096 2.92992 70.0478C2.61576 68.8063 3.12046 67.8087 4.40534 66.7747C4.60581 66.6756 4.72657 66.5162 4.82798 66.2167C4.86901 65.9969 4.91005 65.7771 4.73127 65.5162C4.63222 65.3157 4.47278 65.195 4.23363 65.0139C3.61524 64.671 3.05722 64.2483 2.71902 63.8667C11.835 64.7496 18.492 65.401 22.649 66.0406L36.7819 67.5871C36.7215 67.6668 36.8012 67.7272 36.8012 67.7272C36.9003 67.9277 37.1394 68.1088 37.2385 68.3093L6.34311 71.5039ZM89.9507 70.0974C83.7753 77.5885 77.8146 81.9804 71.868 83.3725C65.9817 84.6848 59.269 83.1131 51.8507 78.4982L51.5318 78.2567L51.5922 78.177L51.1115 78.3147C50.0295 78.7496 48.9087 78.9043 47.829 78.8392C46.6696 78.7138 45.6913 78.3492 44.9135 77.8855C43.7975 77.0402 43.6427 75.9195 44.4493 74.5233C44.5097 74.4436 44.5701 74.3639 44.6304 74.2841L45.1738 73.5667L44.4564 73.0233C41.6276 70.63 39.1804 67.8984 36.9941 64.9881C36.1993 63.8843 35.5252 62.6211 34.8512 61.358C39.245 62.6787 46.5228 63.1729 56.6047 62.7804C66.8268 62.3685 74.9135 60.9666 80.9445 58.6349C82.3818 59.2217 83.5171 60.207 84.4714 61.4315C85.2662 62.5353 85.7615 63.5376 85.9162 64.6584C88.177 64.489 90.1794 63.9984 92.0029 63.247C91.6477 62.2253 91.8916 61.4065 92.6354 60.59C93.3793 59.7735 94.1208 59.457 94.901 59.4206C95.7005 59.5244 96.2995 59.7272 96.7175 60.1692C97.1354 60.6112 97.3528 61.1522 97.2514 61.4517C97.8335 61.0144 98.4373 60.2173 99.0627 59.0602L102.519 59.7965L97.7878 62.2342L100.097 64.4851C95.8944 65.0654 92.5058 66.8894 89.9507 70.0974Z" fill="white"/>
<path d="M42.8702 78.5959L50.69 87.1528C51.3664 87.916 51.8447 88.2782 51.8037 88.4981C51.9221 88.8386 51.7193 89.4377 51.0551 90.3145C50.5311 91.1721 50.3476 91.9112 50.8042 92.6334C51.0627 92.9546 51.3018 93.1357 51.6811 93.2975L53.0094 91.5438C54.1541 90.5291 55.6348 90.3961 57.1711 91.1834C58.9272 92.0116 59.8815 93.2361 59.9348 94.6564C60.0919 95.2771 60.0291 95.8569 59.7466 96.3955L60.0655 96.637C60.4254 96.6587 60.7466 96.4002 61.389 95.8833C61.9517 95.3059 62.1739 94.8469 62.0168 94.2262L61.5602 93.504C61.9248 92.5257 61.7291 91.6248 60.7531 90.7602C60.0163 90.0767 58.9583 89.6517 57.4994 89.4249C56.4801 89.2801 55.422 88.8551 54.3857 88.0702L53.0112 86.9037L45.5103 78.5883C45.7928 78.0496 42.3362 77.3134 42.8702 78.5959Z" fill="white"/>
<path d="M61.3588 76.7929C61.1753 77.5321 61.1706 78.5321 61.1852 79.6722C72.7167 81.5065 83.7472 75.0583 83.2174 68.6357C82.5909 61.5127 65.6369 60.2129 56.086 58.2479C41.3442 54.3585 35.3923 52.6104 21.8476 40.8465C24.1721 48.3776 27.6462 53.894 32.1103 57.275C29.3179 55.6619 27.2236 54.452 25.7863 53.8652C32.2656 62.5358 37.5849 66.9409 41.7443 67.0805C41.1815 67.6579 40.358 68.414 39.5127 69.53C45.9938 73.5606 50.4263 75.1615 52.89 74.393C52.448 74.811 51.9046 75.5284 51.2405 76.4053C55.9919 78.2477 59.2914 78.3632 61.3588 76.7929Z" fill="white"/>
</g>
<defs>
<clipPath id="clip0_40_68">
<rect width="110" height="122" fill="white"/>
</clipPath>
</defs>
</svg>
