<svg width="20" height="37" viewBox="0 0 20 37" fill="none" xmlns="http://www.w3.org/2000/svg">
<path d="M17.5009 12.3404C16.7965 12.112 16.0921 12.2262 15.3876 12.112C14.6832 12.112 13.8614 12.112 13.157 12.112C13.157 11.6554 13.2744 11.3129 13.2744 10.8562C13.5092 9.14367 13.9788 6.97449 16.2094 6.97449C17.6183 6.97449 18.7923 6.97449 19.4967 5.71864C20.3186 4.4628 19.9664 2.97862 19.6141 1.60861C19.4967 1.38028 19.4967 1.26611 19.3793 1.15194C19.2619 0.809439 18.9097 0.581104 18.4401 0.581104C15.505 0.466936 12.1003 0.581104 9.28266 1.60861C6.81719 2.52195 5.64315 4.8053 5.40834 7.20282C5.17354 8.91533 5.29093 10.6278 5.52573 12.2262C4.2343 12.3404 3.06027 12.3404 1.76883 12.4545C0.477393 12.5687 0.242594 14.3954 1.29922 14.7379C1.29922 15.9937 1.41663 17.4779 1.88624 18.6196C2.59066 20.1038 3.9995 19.9896 5.40834 19.9896C5.64315 19.9896 5.87794 19.9896 6.11275 19.9896C6.23016 22.5013 6.23016 25.1271 6.23016 27.6388C6.23016 29.2372 6.23016 30.8355 6.11275 32.4338C6.11275 33.4614 5.64315 35.1739 6.58238 35.973C7.4042 36.7722 9.40005 36.5439 10.5741 36.5439C11.7481 36.5439 12.6873 35.973 13.157 34.8314C13.5092 33.8039 13.2744 32.6622 13.0396 31.6347C13.0396 31.4063 12.9222 31.178 12.9222 30.9497C13.157 27.2963 13.2744 23.6429 13.157 19.8754C13.744 19.8754 14.331 19.8754 14.918 19.8754C16.3268 19.8754 17.9705 20.2179 19.0271 19.0762C19.8489 18.0487 19.6142 16.6787 19.2619 15.5371C19.1445 14.5095 18.9097 12.797 17.5009 12.3404Z" fill="white"/>
</svg>
